Monda-Extra-Bold.ufo
<glyph name="exclam" format="1">
  <advance width="576"/>
  <unicode hex="0021"/>
  <outline>
    <contour>
      <point x="139" y="0" type="line"/>
      <point x="417" y="0" type="line"/>
      <point x="417" y="268" type="line"/>
      <point x="139" y="268" type="line"/>
    </contour>
    <contour>
      <point x="236" y="433" type="curve"/>
      <point x="324" y="433" type="line"/>
      <point x="324" y="433"/>
      <point x="437" y="1538"/>
      <point x="437" y="1496" type="curve"/>
      <point x="144" y="1496" type="line"/>
      <point x="144" y="1538"/>
      <point x="236" y="433"/>
    </contour>
  </outline>
</glyph>
<glyph name="quotedbl" format="1">
  <advance width="1104"/>
  <unicode hex="0022"/>
  <outline>
    <contour>
      <point x="311" y="837" type="line"/>
      <point x="434" y="837" type="line"/>
      <point x="493" y="1522" type="line"/>
      <point x="211" y="1522" type="line"/>
    </contour>
    <contour>
      <point x="676" y="837" type="line"/>
      <point x="799" y="837" type="line"/>
      <point x="893" y="1522" type="line"/>
      <point x="610" y="1522" type="line"/>
    </contour>
  </outline>
</glyph>
<glyph name="numbersign" format="1">
  <advance width="1518"/>
  <unicode hex="0023"/>
  <outline>
    <contour>
      <point x="249" y="0" type="line"/>
      <point x="472" y="0" type="line"/>
      <point x="554" y="480" type="line"/>
      <point x="786" y="480" type="line"/>
      <point x="701" y="0" type="line"/>
      <point x="924" y="0" type="line"/>
      <point x="1005" y="480" type="line"/>
      <point x="1286" y="480" type="line"/>
      <point x="1286" y="632" type="line"/>
      <point x="1032" y="632" type="line"/>
      <point x="1075" y="888" type="line"/>
      <point x="1310" y="888" type="line"/>
      <point x="1310" y="1040" type="line"/>
      <point x="1103" y="1040" type="line"/>
      <point x="1180" y="1496" type="line"/>
      <point x="965" y="1496" type="line"/>
      <point x="884" y="1040" type="line"/>
      <point x="650" y="1040" type="line"/>
      <point x="728" y="1496" type="line"/>
      <point x="513" y="1496" type="line"/>
      <point x="432" y="1040" type="line"/>
      <point x="139" y="1040" type="line"/>
      <point x="139" y="888" type="line"/>
      <point x="407" y="888" type="line"/>
      <point x="361" y="632" type="line"/>
      <point x="115" y="632" type="line"/>
      <point x="115" y="480" type="line"/>
      <point x="334" y="480" type="line"/>
    </contour>
    <contour>
      <point x="580" y="632" type="line"/>
      <point x="623" y="888" type="line"/>
      <point x="857" y="888" type="line"/>
      <point x="812" y="632" type="line"/>
    </contour>
  </outline>
</glyph>
<glyph name="dollar" format="1">
  <advance width="1268"/>
  <unicode hex="0024"/>
  <outline>
    <contour>
      <point x="612" y="-276" type="line"/>
      <point x="722" y="-276" type="line"/>
      <point x="722" y="1758" type="line"/>
      <point x="612" y="1758" type="line"/>
    </contour>
    <component base="S"/>
  </outline>
</glyph>
<glyph name="percent" format="1">
  <advance width="2154"/>
  <unicode hex="0025"/>
  <outline>
    <contour>
      <point x="512" y="794" type="curve" smooth="yes"/>
      <point x="391" y="794"/>
      <point x="381" y="891"/>
      <point x="381" y="1022" type="curve" smooth="yes"/>
      <point x="381" y="1108" type="line" smooth="yes"/>
      <point x="381" y="1234"/>
      <point x="388" y="1320"/>
      <point x="512" y="1320" type="curve" smooth="yes"/>
      <point x="638" y="1320"/>
      <point x="645" y="1234"/>
      <point x="645" y="1106" type="curve" smooth="yes"/>
      <point x="645" y="1022" type="line" smooth="yes"/>
      <point x="645" y="891"/>
      <point x="632" y="794"/>
    </contour>
    <contour>
      <point x="512" y="656" type="curve" smooth="yes"/>
      <point x="742" y="656"/>
      <point x="818" y="806"/>
      <point x="818" y="1035" type="curve" smooth="yes"/>
      <point x="818" y="1089" type="line" smooth="yes"/>
      <point x="816" y="1322"/>
      <point x="742" y="1459"/>
      <point x="512" y="1459" type="curve" smooth="yes"/>
      <point x="281" y="1459"/>
      <point x="210" y="1321"/>
      <point x="210" y="1088" type="curve" smooth="yes"/>
      <point x="210" y="1035" type="line" smooth="yes"/>
      <point x="210" y="807"/>
      <point x="282" y="656"/>
    </contour>
    <contour>
      <point x="1638" y="119" type="curve" smooth="yes"/>
      <point x="1516" y="119"/>
      <point x="1505" y="216"/>
      <point x="1505" y="348" type="curve" smooth="yes"/>
      <point x="1505" y="433" type="line" smooth="yes"/>
      <point x="1505" y="560"/>
      <point x="1513" y="646"/>
      <point x="1638" y="646" type="curve" smooth="yes"/>
      <point x="1763" y="646"/>
      <point x="1769" y="560"/>
      <point x="1769" y="431" type="curve" smooth="yes"/>
      <point x="1769" y="348" type="line" smooth="yes"/>
      <point x="1769" y="216"/>
      <point x="1757" y="119"/>
    </contour>
    <contour>
      <point x="1638" y="-19" type="curve" smooth="yes"/>
      <point x="1868" y="-19"/>
      <point x="1943" y="131"/>
      <point x="1943" y="360" type="curve" smooth="yes"/>
      <point x="1943" y="414" type="line" smooth="yes"/>
      <point x="1941" y="647"/>
      <point x="1868" y="784"/>
      <point x="1638" y="784" type="curve" smooth="yes"/>
      <point x="1407" y="784"/>
      <point x="1335" y="646"/>
      <point x="1335" y="413" type="curve" smooth="yes"/>
      <point x="1335" y="360" type="line" smooth="yes"/>
      <point x="1335" y="132"/>
      <point x="1408" y="-19"/>
    </contour>
    <contour>
      <point x="710" y="0" type="line"/>
      <point x="902" y="0" type="line"/>
      <point x="1440" y="1446" type="line"/>
      <point x="1253" y="1446" type="line"/>
    </contour>
  </outline>
</glyph>
<glyph name="ampersand" format="1">
  <advance width="1542"/>
  <unicode hex="0026"/>
  <outline>
    <contour>
      <point x="742" y="-29" type="curve" smooth="yes"/>
      <point x="995" y="-29"/>
      <point x="1111" y="10"/>
      <point x="1186" y="96" type="curve"/>
      <point x="1306" y="-25" type="line"/>
      <point x="1499" y="184" type="line"/>
      <point x="1334" y="338" type="line"/>
      <point x="1352" y="388"/>
      <point x="1364" y="491"/>
      <point x="1364" y="578" type="curve" smooth="yes"/>
      <point x="1364" y="848" type="line"/>
      <point x="1093" y="848" type="line"/>
      <point x="1093" y="577" type="line" smooth="yes"/>
      <point x="1093" y="561"/>
      <point x="1093" y="568"/>
      <point x="1092" y="554" type="curve"/>
      <point x="674" y="977" type="line" smooth="yes"/>
      <point x="583" y="1072"/>
      <point x="561" y="1085"/>
      <point x="561" y="1163" type="curve" smooth="yes"/>
      <point x="561" y="1245"/>
      <point x="593" y="1289"/>
      <point x="792" y="1289" type="curve" smooth="yes"/>
      <point x="980" y="1289"/>
      <point x="1025" y="1283"/>
      <point x="1025" y="1145" type="curve" smooth="yes"/>
      <point x="1025" y="1114" type="line"/>
      <point x="1306" y="1114" type="line"/>
      <point x="1306" y="1186" type="line" smooth="yes"/>
      <point x="1306" y="1422"/>
      <point x="1176" y="1520"/>
      <point x="788" y="1520" type="curve" smooth="yes"/>
      <point x="411" y="1520"/>
      <point x="253" y="1438"/>
      <point x="253" y="1179" type="curve" smooth="yes"/>
      <point x="253" y="1025"/>
      <point x="323" y="927"/>
      <point x="428" y="830" type="curve"/>
      <point x="232" y="772"/>
      <point x="131" y="674"/>
      <point x="131" y="473" type="curve" smooth="yes"/>
      <point x="131" y="54"/>
      <point x="299" y="-29"/>
    </contour>
    <contour>
      <point x="742" y="236" type="curve" smooth="yes"/>
      <point x="486" y="236"/>
      <point x="445" y="273"/>
      <point x="445" y="479" type="curve" smooth="yes"/>
      <point x="445" y="601"/>
      <point x="444" y="661"/>
      <point x="572" y="693" type="curve"/>
      <point x="951" y="308" type="line"/>
      <point x="924" y="235"/>
      <point x="805" y="236"/>
    </contour>
  </outline>
</glyph>
<glyph name="quotesingle" format="1">
  <advance width="693"/>
  <unicode hex="0027"/>
  <outline>
    <contour>
      <point x="405" y="837" type="line"/>
      <point x="529" y="837" type="line"/>
      <point x="587" y="1522" type="line"/>
      <point x="305" y="1522" type="line"/>
    </contour>
  </outline>
</glyph>
<glyph name="parenleft" format="1">
  <advance width="1053"/>
  <unicode hex="0028"/>
  <outline>
    <contour>
      <point x="865" y="-164" type="curve"/>
      <point x="865" y="90" type="line"/>
      <point x="699" y="90"/>
      <point x="561" y="102"/>
      <point x="561" y="379" type="curve" smooth="yes"/>
      <point x="561" y="1034" type="line" smooth="yes"/>
      <point x="561" y="1314"/>
      <point x="702" y="1325"/>
      <point x="865" y="1325" type="curve"/>
      <point x="865" y="1580" type="line"/>
      <point x="446" y="1581"/>
      <point x="230" y="1388"/>
      <point x="230" y="1002" type="curve" smooth="yes"/>
      <point x="230" y="408" type="line" smooth="yes"/>
      <point x="230" y="24"/>
      <point x="448" y="-166"/>
    </contour>
  </outline>
</glyph>
<glyph name="parenright" format="1">
  <advance width="1053"/>
  <unicode hex="0029"/>
  <outline>
    <contour>
      <point x="215" y="-164" type="line"/>
      <point x="634" y="-166"/>
      <point x="849" y="27"/>
      <point x="849" y="413" type="curve" smooth="yes"/>
      <point x="849" y="1007" type="line" smooth="yes"/>
      <point x="849" y="1392"/>
      <point x="632" y="1581"/>
      <point x="215" y="1580" type="curve"/>
      <point x="215" y="1324" type="line"/>
      <point x="381" y="1324"/>
      <point x="519" y="1314"/>
      <point x="519" y="1035" type="curve" smooth="yes"/>
      <point x="519" y="379" type="line" smooth="yes"/>
      <point x="519" y="102"/>
      <point x="378" y="91"/>
      <point x="215" y="91" type="curve"/>
    </contour>
  </outline>
</glyph>
<glyph name="asterisk" format="1">
  <advance width="982"/>
  <unicode hex="002A"/>
  <outline>
    <contour>
      <point x="402" y="599" type="line"/>
      <point x="580" y="599" type="line"/>
      <point x="551" y="912" type="line"/>
      <point x="798" y="722" type="line"/>
      <point x="893" y="875" type="line"/>
      <point x="613" y="1017" type="line"/>
      <point x="904" y="1134" type="line"/>
      <point x="823" y="1295" type="line"/>
      <point x="550" y="1121" type="line"/>
      <point x="580" y="1446" type="line"/>
      <point x="402" y="1446" type="line"/>
      <point x="430" y="1133" type="line"/>
      <point x="183" y="1323" type="line"/>
      <point x="88" y="1170" type="line"/>
      <point x="368" y="1028" type="line"/>
      <point x="78" y="911" type="line"/>
      <point x="158" y="750" type="line"/>
      <point x="431" y="924" type="line"/>
    </contour>
  </outline>
</glyph>
<glyph name="plus" format="1">
  <advance width="931"/>
  <unicode hex="002B"/>
  <outline>
    <contour>
      <point x="379" y="156" type="line"/>
      <point x="551" y="156" type="line"/>
      <point x="551" y="483" type="line"/>
      <point x="817" y="483" type="line"/>
      <point x="817" y="653" type="line"/>
      <point x="551" y="653" type="line"/>
      <point x="551" y="968" type="line"/>
      <point x="379" y="968" type="line"/>
      <point x="379" y="653" type="line"/>
      <point x="114" y="653" type="line"/>
      <point x="114" y="483" type="line"/>
      <point x="379" y="483" type="line"/>
    </contour>
  </outline>
</glyph>
<glyph name="comma" format="1">
  <advance width="844"/>
  <unicode hex="002C"/>
  <outline>
    <contour>
      <point x="392" y="-420" type="line"/>
      <point x="457" y="-362"/>
      <point x="603" y="-152"/>
      <point x="603" y="55" type="curve" smooth="yes"/>
      <point x="603" y="302" type="line"/>
      <point x="242" y="302" type="line"/>
      <point x="242" y="0" type="line"/>
      <point x="421" y="0" type="line"/>
      <point x="421" y="-142"/>
      <point x="323" y="-313"/>
      <point x="270" y="-372" type="curve"/>
    </contour>
  </outline>
</glyph>
<glyph name="hyphen" format="1">
  <advance width="934"/>
  <unicode hex="002D"/>
  <outline>
    <contour>
      <point x="457" y="570" type="move" name="_mid"/>
    </contour>
    <contour>
      <point x="108" y="491" type="line"/>
      <point x="838" y="491" type="line"/>
      <point x="838" y="642" type="line"/>
      <point x="108" y="642" type="line"/>
    </contour>
  </outline>
</glyph>
<glyph name="period" format="1">
  <advance width="638"/>
  <unicode hex="002E"/>
  <outline>
    <contour>
      <point x="151" y="0" type="line"/>
      <point x="474" y="0" type="line"/>
      <point x="474" y="309" type="line"/>
      <point x="151" y="309" type="line"/>
    </contour>
  </outline>
</glyph>
<glyph name="slash" format="1">
  <advance width="1178"/>
  <unicode hex="002F"/>
  <outline>
    <contour>
      <point x="131" y="0" type="line"/>
      <point x="408" y="0" type="line"/>
      <point x="1046" y="1522" type="line"/>
      <point x="767" y="1522" type="line"/>
    </contour>
  </outline>
</glyph>
<glyph name="zero" format="1">
  <advance width="1522"/>
  <unicode hex="0030"/>
  <outline>
    <contour>
      <point x="770" y="244" type="curve" smooth="yes"/>
      <point x="604" y="244"/>
      <point x="520" y="376"/>
      <point x="520" y="429" type="curve" smooth="yes"/>
      <point x="520" y="1066" type="line" smooth="yes"/>
      <point x="520" y="1119"/>
      <point x="588" y="1248"/>
      <point x="770" y="1248" type="curve" smooth="yes"/>
      <point x="948" y="1248"/>
      <point x="1011" y="1119"/>
      <point x="1011" y="1066" type="curve" smooth="yes"/>
      <point x="1011" y="429" type="line" smooth="yes"/>
      <point x="1011" y="376"/>
      <point x="938" y="244"/>
    </contour>
    <contour>
      <point x="770" y="-19" type="curve" smooth="yes"/>
      <point x="1107" y="-19"/>
      <point x="1350" y="191"/>
      <point x="1350" y="433" type="curve" smooth="yes"/>
      <point x="1350" y="1062" type="line" smooth="yes"/>
      <point x="1350" y="1314"/>
      <point x="1119" y="1513"/>
      <point x="770" y="1513" type="curve" smooth="yes"/>
      <point x="410" y="1513"/>
      <point x="161" y="1320"/>
      <point x="161" y="1068" type="curve" smooth="yes"/>
      <point x="161" y="426" type="line" smooth="yes"/>
      <point x="161" y="180"/>
      <point x="418" y="-19"/>
    </contour>
  </outline>
</glyph>
<glyph name="one" format="1">
  <advance width="1456"/>
  <unicode hex="0031"/>
  <outline>
    <contour>
      <point x="275" y="0" type="line"/>
      <point x="1276" y="0" type="line"/>
      <point x="1276" y="241" type="line"/>
      <point x="966" y="241" type="line"/>
      <point x="966" y="1494" type="line"/>
      <point x="737" y="1494" type="line"/>
      <point x="263" y="1409" type="line"/>
      <point x="294" y="1157" type="line"/>
      <point x="612" y="1219" type="line"/>
      <point x="612" y="241" type="line"/>
      <point x="275" y="241" type="line"/>
    </contour>
  </outline>
</glyph>
<glyph name="two" format="1">
  <advance width="1456"/>
  <unicode hex="0032"/>
  <outline>
    <contour>
      <point x="305" y="0" type="line"/>
      <point x="1212" y="0" type="line"/>
      <point x="1212" y="282" type="line"/>
      <point x="702" y="282" type="line"/>
      <point x="954" y="493" type="line" smooth="yes"/>
      <point x="1161" y="679"/>
      <point x="1229" y="848"/>
      <point x="1229" y="1061" type="curve" smooth="yes"/>
      <point x="1229" y="1327"/>
      <point x="1089" y="1513"/>
      <point x="751" y="1513" type="curve" smooth="yes"/>
      <point x="301" y="1513"/>
      <point x="225" y="1334"/>
      <point x="225" y="973" type="curve"/>
      <point x="584" y="973" type="line"/>
      <point x="584" y="1165"/>
      <point x="629" y="1244"/>
      <point x="755" y="1244" type="curve" smooth="yes"/>
      <point x="819" y="1244"/>
      <point x="884" y="1167"/>
      <point x="884" y="1059" type="curve" smooth="yes"/>
      <point x="884" y="968"/>
      <point x="872" y="874"/>
      <point x="761" y="766" type="curve" smooth="yes"/>
      <point x="258" y="267" type="line"/>
    </contour>
  </outline>
</glyph>
<glyph name="three" format="1">
  <advance width="1456"/>
  <unicode hex="0033"/>
  <outline>
    <contour>
      <point x="721" y="-19" type="curve" smooth="yes"/>
      <point x="1075" y="-19"/>
      <point x="1270" y="149"/>
      <point x="1270" y="443" type="curve" smooth="yes"/>
      <point x="1270" y="592"/>
      <point x="1193" y="739"/>
      <point x="1051" y="787" type="curve"/>
      <point x="1179" y="821"/>
      <point x="1267" y="941"/>
      <point x="1267" y="1107" type="curve" smooth="yes"/>
      <point x="1267" y="1356"/>
      <point x="1087" y="1513"/>
      <point x="726" y="1513" type="curve" smooth="yes"/>
      <point x="384" y="1513"/>
      <point x="226" y="1294"/>
      <point x="223" y="1038" type="curve"/>
      <point x="554" y="1038" type="line"/>
      <point x="552" y="1135"/>
      <point x="620" y="1252"/>
      <point x="732" y="1252" type="curve" smooth="yes"/>
      <point x="840" y="1252"/>
      <point x="920" y="1195"/>
      <point x="920" y="1086" type="curve" smooth="yes"/>
      <point x="920" y="969"/>
      <point x="832" y="899"/>
      <point x="667" y="899" type="curve"/>
      <point x="667" y="670" type="line"/>
      <point x="845" y="670"/>
      <point x="916" y="576"/>
      <point x="916" y="463" type="curve" smooth="yes"/>
      <point x="916" y="304"/>
      <point x="836" y="238"/>
      <point x="719" y="238" type="curve" smooth="yes"/>
      <point x="605" y="238"/>
      <point x="544" y="343"/>
      <point x="550" y="439" type="curve"/>
      <point x="219" y="439" type="line"/>
      <point x="210" y="174"/>
      <point x="405" y="-19"/>
    </contour>
  </outline>
</glyph>
<glyph name="four" format="1">
  <advance width="1456"/>
  <unicode hex="0034"/>
  <outline>
    <contour>
      <point x="873" y="0" type="line"/>
      <point x="1152" y="0" type="line"/>
      <point x="1152" y="241" type="line"/>
      <point x="1376" y="241" type="line"/>
      <point x="1376" y="541" type="line"/>
      <point x="1152" y="541" type="line"/>
      <point x="1152" y="877" type="line"/>
      <point x="873" y="877" type="line"/>
      <point x="873" y="541" type="line"/>
      <point x="570" y="541" type="line"/>
      <point x="950" y="1494" type="line"/>
      <point x="587" y="1494" type="line"/>
      <point x="186" y="545" type="line"/>
      <point x="186" y="241" type="line"/>
      <point x="873" y="241" type="line"/>
    </contour>
  </outline>
</glyph>
<glyph name="five" format="1">
  <advance width="1456"/>
  <unicode hex="0035"/>
  <outline>
    <contour>
      <point x="768" y="-19" type="curve" smooth="yes"/>
      <point x="1142" y="-19"/>
      <point x="1368" y="185"/>
      <point x="1368" y="489" type="curve" smooth="yes"/>
      <point x="1368" y="748"/>
      <point x="1168" y="985"/>
      <point x="871" y="985" type="curve" smooth="yes"/>
      <point x="773" y="985"/>
      <point x="626" y="970"/>
      <point x="560" y="896" type="curve"/>
      <point x="600" y="1199" type="line"/>
      <point x="1243" y="1199" type="line"/>
      <point x="1243" y="1494" type="line"/>
      <point x="338" y="1494" type="line"/>
      <point x="239" y="710" type="line"/>
      <point x="494" y="575" type="line"/>
      <point x="581" y="671"/>
      <point x="732" y="674"/>
      <point x="800" y="674" type="curve" smooth="yes"/>
      <point x="899" y="674"/>
      <point x="1018" y="609"/>
      <point x="1018" y="493" type="curve" smooth="yes"/>
      <point x="1018" y="291"/>
      <point x="896" y="241"/>
      <point x="747" y="241" type="curve" smooth="yes"/>
      <point x="692" y="241"/>
      <point x="488" y="249"/>
      <point x="288" y="364" type="curve"/>
      <point x="194" y="137" type="line"/>
      <point x="267" y="75"/>
      <point x="539" y="-19"/>
    </contour>
  </outline>
</glyph>
<glyph name="six" format="1">
  <advance width="1456"/>
  <unicode hex="0036"/>
  <outline>
    <contour>
      <point x="749" y="-19" type="curve" smooth="yes"/>
      <point x="1115" y="-19"/>
      <point x="1324" y="190"/>
      <point x="1324" y="460" type="curve" smooth="yes"/>
      <point x="1324" y="835"/>
      <point x="1160" y="961"/>
      <point x="835" y="961" type="curve" smooth="yes"/>
      <point x="823" y="961"/>
      <point x="724" y="948"/>
      <point x="692" y="942" type="curve"/>
      <point x="993" y="1496" type="line"/>
      <point x="601" y="1496" type="line"/>
      <point x="325" y="1006" type="line" smooth="yes"/>
      <point x="257" y="869"/>
      <point x="194" y="699"/>
      <point x="194" y="479" type="curve" smooth="yes"/>
      <point x="194" y="197"/>
      <point x="401" y="-19"/>
    </contour>
    <contour>
      <point x="770" y="234" type="curve" smooth="yes"/>
      <point x="631" y="234"/>
      <point x="536" y="360"/>
      <point x="536" y="478" type="curve" smooth="yes"/>
      <point x="536" y="619"/>
      <point x="592" y="733"/>
      <point x="764" y="733" type="curve" smooth="yes"/>
      <point x="963" y="733"/>
      <point x="999" y="596"/>
      <point x="999" y="483" type="curve" smooth="yes"/>
      <point x="999" y="362"/>
      <point x="912" y="234"/>
    </contour>
  </outline>
</glyph>
<glyph name="seven" format="1">
  <advance width="1456"/>
  <unicode hex="0037"/>
  <outline>
    <contour>
      <point x="345" y="0" type="line"/>
      <point x="721" y="0" type="line"/>
      <point x="1313" y="1259" type="line"/>
      <point x="1313" y="1494" type="line"/>
      <point x="245" y="1494" type="line"/>
      <point x="245" y="1216" type="line"/>
      <point x="915" y="1216" type="line"/>
    </contour>
  </outline>
</glyph>
<glyph name="eight" format="1">
  <advance width="1456"/>
  <unicode hex="0038"/>
  <outline>
    <contour>
      <point x="727" y="-19" type="curve" smooth="yes"/>
      <point x="1111" y="-19"/>
      <point x="1307" y="129"/>
      <point x="1307" y="378" type="curve" smooth="yes"/>
      <point x="1307" y="534"/>
      <point x="1243" y="693"/>
      <point x="960" y="789" type="curve"/>
      <point x="1199" y="852"/>
      <point x="1264" y="1018"/>
      <point x="1264" y="1140" type="curve" smooth="yes"/>
      <point x="1264" y="1308"/>
      <point x="1171" y="1513"/>
      <point x="727" y="1513" type="curve" smooth="yes"/>
      <point x="289" y="1513"/>
      <point x="178" y="1311"/>
      <point x="178" y="1150" type="curve" smooth="yes"/>
      <point x="178" y="1007"/>
      <point x="242" y="850"/>
      <point x="468" y="789" type="curve"/>
      <point x="250" y="693"/>
      <point x="151" y="566"/>
      <point x="151" y="375" type="curve" smooth="yes"/>
      <point x="151" y="140"/>
      <point x="356" y="-19"/>
    </contour>
    <contour>
      <point x="727" y="225" type="curve" smooth="yes"/>
      <point x="510" y="225"/>
      <point x="473" y="332"/>
      <point x="473" y="402" type="curve" smooth="yes"/>
      <point x="473" y="486"/>
      <point x="529" y="581"/>
      <point x="726" y="662" type="curve"/>
      <point x="925" y="581"/>
      <point x="978" y="486"/>
      <point x="978" y="402" type="curve" smooth="yes"/>
      <point x="978" y="333"/>
      <point x="944" y="225"/>
    </contour>
    <contour>
      <point x="726" y="883" type="curve"/>
      <point x="543" y="970"/>
      <point x="509" y="1030"/>
      <point x="509" y="1126" type="curve" smooth="yes"/>
      <point x="509" y="1209"/>
      <point x="553" y="1279"/>
      <point x="727" y="1279" type="curve" smooth="yes"/>
      <point x="903" y="1279"/>
      <point x="941" y="1203"/>
      <point x="941" y="1126" type="curve" smooth="yes"/>
      <point x="941" y="1038"/>
      <point x="897" y="970"/>
    </contour>
  </outline>
</glyph>
<glyph name="nine" format="1">
  <advance width="1456"/>
  <unicode hex="0039"/>
  <outline>
    <contour>
      <point x="507" y="0" type="line"/>
      <point x="899" y="0" type="line"/>
      <point x="1175" y="515" type="line" smooth="yes"/>
      <point x="1243" y="652"/>
      <point x="1306" y="806"/>
      <point x="1306" y="1026" type="curve" smooth="yes"/>
      <point x="1306" y="1319"/>
      <point x="1123" y="1513"/>
      <point x="751" y="1513" type="curve" smooth="yes"/>
      <point x="359" y="1513"/>
      <point x="177" y="1326"/>
      <point x="177" y="1045" type="curve" smooth="yes"/>
      <point x="177" y="670"/>
      <point x="347" y="570"/>
      <point x="672" y="570" type="curve" smooth="yes"/>
      <point x="684" y="570"/>
      <point x="776" y="573"/>
      <point x="808" y="579" type="curve"/>
    </contour>
    <contour>
      <point x="751" y="813" type="curve" smooth="yes"/>
      <point x="551" y="813"/>
      <point x="520" y="884"/>
      <point x="520" y="1045" type="curve" smooth="yes"/>
      <point x="520" y="1161"/>
      <point x="595" y="1268"/>
      <point x="746" y="1268" type="curve" smooth="yes"/>
      <point x="879" y="1268"/>
      <point x="951" y="1163"/>
      <point x="951" y="1050" type="curve" smooth="yes"/>
      <point x="951" y="877"/>
      <point x="922" y="813"/>
    </contour>
  </outline>
</glyph>
<glyph name="less" format="1">
  <advance width="888"/>
  <unicode hex="003C"/>
  <outline>
    <contour>
      <point x="744" y="50" type="line"/>
      <point x="744" y="294" type="line"/>
      <point x="282" y="546" type="line"/>
      <point x="744" y="795" type="line"/>
      <point x="744" y="1043" type="line"/>
      <point x="86" y="659" type="line"/>
      <point x="86" y="429" type="line"/>
    </contour>
  </outline>
</glyph>
<glyph name="equal" format="1">
  <advance width="658"/>
  <unicode hex="003D"/>
  <outline>
    <contour>
      <point x="45" y="313" type="line"/>
      <point x="613" y="313" type="line"/>
      <point x="613" y="501" type="line"/>
      <point x="45" y="501" type="line"/>
    </contour>
    <contour>
      <point x="45" y="701" type="line"/>
      <point x="613" y="701" type="line"/>
      <point x="613" y="889" type="line"/>
      <point x="45" y="889" type="line"/>
    </contour>
  </outline>
</glyph>
<glyph name="greater" format="1">
  <advance width="888"/>
  <unicode hex="003E"/>
  <outline>
    <contour>
      <point x="118" y="50" type="line"/>
      <point x="777" y="430" type="line"/>
      <point x="777" y="660" type="line"/>
      <point x="118" y="1043" type="line"/>
      <point x="118" y="796" type="line"/>
      <point x="581" y="547" type="line"/>
      <point x="118" y="294" type="line"/>
    </contour>
  </outline>
</glyph>
<glyph name="question" format="1">
  <advance width="1246"/>
  <unicode hex="003F"/>
  <outline>
    <contour>
      <point x="432" y="431" type="line"/>
      <point x="703" y="431" type="line"/>
      <point x="869" y="541" type="line" smooth="yes"/>
      <point x="1067" y="684"/>
      <point x="1131" y="821"/>
      <point x="1131" y="1039" type="curve" smooth="yes"/>
      <point x="1131" y="1296"/>
      <point x="1072" y="1521"/>
      <point x="596" y="1521" type="curve" smooth="yes"/>
      <point x="108" y="1521"/>
      <point x="101" y="1270"/>
      <point x="101" y="1015" type="curve" smooth="yes"/>
      <point x="101" y="916" type="line"/>
      <point x="421" y="916" type="line"/>
      <point x="421" y="1020" type="line" smooth="yes"/>
      <point x="421" y="1166"/>
      <point x="403" y="1263"/>
      <point x="596" y="1263" type="curve" smooth="yes"/>
      <point x="786" y="1263"/>
      <point x="792" y="1132"/>
      <point x="792" y="1028" type="curve" smooth="yes"/>
      <point x="792" y="906"/>
      <point x="767" y="831"/>
      <point x="665" y="707" type="curve" smooth="yes"/>
    </contour>
    <contour>
      <point x="422" y="0" type="line"/>
      <point x="698" y="0" type="line"/>
      <point x="698" y="268" type="line"/>
      <point x="422" y="268" type="line"/>
    </contour>
  </outline>
</glyph>
<glyph name="at" format="1">
  <advance width="2048"/>
  <unicode hex="0040"/>
  <outline>
    <contour>
      <point x="1072" y="-608" type="curve" smooth="yes"/>
      <point x="1329" y="-608"/>
      <point x="1598" y="-553"/>
      <point x="1821" y="-505" type="curve"/>
      <point x="1759" y="-265" type="line"/>
      <point x="1560" y="-293"/>
      <point x="1325" y="-343"/>
      <point x="1112" y="-343" type="curve" smooth="yes"/>
      <point x="763" y="-343"/>
      <point x="461" y="-208"/>
      <point x="461" y="402" type="curve" smooth="yes"/>
      <point x="461" y="624" type="line" smooth="yes"/>
      <point x="461" y="1260"/>
      <point x="662" y="1313"/>
      <point x="1059" y="1313" type="curve" smooth="yes"/>
      <point x="1413" y="1313"/>
      <point x="1487" y="1190"/>
      <point x="1487" y="859" type="curve"/>
      <point x="1488" y="859"/>
      <point x="1092" y="761"/>
      <point x="1107" y="765" type="curve" smooth="yes"/>
      <point x="757" y="667"/>
      <point x="720" y="519"/>
      <point x="720" y="365" type="curve" smooth="yes"/>
      <point x="720" y="85"/>
      <point x="942" y="-32"/>
      <point x="1145" y="-32" type="curve" smooth="yes"/>
      <point x="1268" y="-32"/>
      <point x="1442" y="13"/>
      <point x="1513" y="107" type="curve"/>
      <point x="1557" y="27"/>
      <point x="1594" y="-33"/>
      <point x="1748" y="-33" type="curve" smooth="yes"/>
      <point x="1894" y="-33" type="line"/>
      <point x="1914" y="198" type="line"/>
      <point x="1826" y="198"/>
      <point x="1812" y="237"/>
      <point x="1812" y="343" type="curve" smooth="yes"/>
      <point x="1812" y="336"/>
      <point x="1809" y="1079"/>
      <point x="1809" y="798" type="curve" smooth="yes"/>
      <point x="1809" y="1411"/>
      <point x="1548" y="1547"/>
      <point x="985" y="1547" type="curve" smooth="yes"/>
      <point x="422" y="1547"/>
      <point x="167" y="1274"/>
      <point x="167" y="695" type="curve" smooth="yes"/>
      <point x="167" y="358" type="line" smooth="yes"/>
      <point x="167" y="-433"/>
      <point x="616" y="-608"/>
    </contour>
    <contour>
      <point x="1206" y="221" type="curve" smooth="yes"/>
      <point x="1108" y="221"/>
      <point x="1008" y="255"/>
      <point x="1005" y="378" type="curve" smooth="yes"/>
      <point x="1002" y="497"/>
      <point x="1042" y="571"/>
      <point x="1207" y="616" type="curve" smooth="yes"/>
      <point x="1191" y="612"/>
      <point x="1492" y="696"/>
      <point x="1489" y="695" type="curve"/>
      <point x="1489" y="290" type="line"/>
      <point x="1493" y="273"/>
      <point x="1325" y="221"/>
    </contour>
  </outline>
</glyph>
<glyph name="A" format="1">
  <advance width="1607"/>
  <unicode hex="0041"/>
  <outline>
    <contour>
      <point x="820" y="1494" type="move" name="top"/>
    </contour>
    <contour>
      <point x="1290" y="0" type="move" name="ogonek"/>
    </contour>
    <contour>
      <point x="83" y="0" type="line"/>
      <point x="449" y="0" type="line"/>
      <point x="527" y="280" type="line"/>
      <point x="1074" y="280" type="line"/>
      <point x="1148" y="0" type="line"/>
      <point x="1524" y="0" type="line"/>
      <point x="1061" y="1494" type="line"/>
      <point x="537" y="1494" type="line"/>
    </contour>
    <contour>
      <point x="592" y="511" type="line"/>
      <point x="807" y="1262" type="line"/>
      <point x="1011" y="511" type="line"/>
    </contour>
  </outline>
</glyph>
<glyph name="B" format="1">
  <advance width="1536"/>
  <unicode hex="0042"/>
  <outline>
    <contour>
      <point x="781" y="1494" type="move" name="top"/>
    </contour>
    <contour>
      <point x="208" y="0" type="line"/>
      <point x="892" y="0" type="line" smooth="yes"/>
      <point x="1266" y="0"/>
      <point x="1422" y="148"/>
      <point x="1410" y="470" type="curve" smooth="yes"/>
      <point x="1410" y="669"/>
      <point x="1385" y="801"/>
      <point x="1158" y="823" type="curve"/>
      <point x="1324" y="857"/>
      <point x="1352" y="948"/>
      <point x="1352" y="1111" type="curve" smooth="yes"/>
      <point x="1352" y="1384"/>
      <point x="1223" y="1494"/>
      <point x="803" y="1494" type="curve" smooth="yes"/>
      <point x="208" y="1494" type="line"/>
    </contour>
    <contour>
      <point x="562" y="243" type="line"/>
      <point x="562" y="707" type="line"/>
      <point x="831" y="707" type="line" smooth="yes"/>
      <point x="1054" y="707"/>
      <point x="1056" y="624"/>
      <point x="1056" y="468" type="curve" smooth="yes"/>
      <point x="1056" y="282"/>
      <point x="1048" y="243"/>
      <point x="813" y="243" type="curve" smooth="yes"/>
    </contour>
    <contour>
      <point x="562" y="911" type="line"/>
      <point x="562" y="1260" type="line"/>
      <point x="791" y="1260" type="line" smooth="yes"/>
      <point x="966" y="1260"/>
      <point x="987" y="1230"/>
      <point x="987" y="1108" type="curve" smooth="yes"/>
      <point x="987" y="973"/>
      <point x="999" y="911"/>
      <point x="831" y="911" type="curve" smooth="yes"/>
    </contour>
  </outline>
</glyph>
<glyph name="C" format="1">
  <advance width="1541"/>
  <unicode hex="0043"/>
  <outline>
    <contour>
      <point x="802" y="1494" type="move" name="top"/>
    </contour>
    <contour>
      <point x="765" y="0" type="move" name="bot"/>
    </contour>
    <contour>
      <point x="804" y="-28" type="curve" smooth="yes"/>
      <point x="1347" y="-28"/>
      <point x="1413" y="216"/>
      <point x="1412" y="505" type="curve" smooth="yes"/>
      <point x="1412" y="503"/>
      <point x="1412" y="544"/>
      <point x="1412" y="542" type="curve"/>
      <point x="1061" y="542" type="line"/>
      <point x="1061" y="547"/>
      <point x="1061" y="477"/>
      <point x="1061" y="482" type="curve" smooth="yes"/>
      <point x="1064" y="301"/>
      <point x="1013" y="247"/>
      <point x="803" y="247" type="curve" smooth="yes"/>
      <point x="602" y="247"/>
      <point x="514" y="284"/>
      <point x="514" y="453" type="curve" smooth="yes"/>
      <point x="514" y="1033" type="line" smooth="yes"/>
      <point x="514" y="1204"/>
      <point x="606" y="1245"/>
      <point x="805" y="1245" type="curve" smooth="yes"/>
      <point x="1011" y="1245"/>
      <point x="1065" y="1179"/>
      <point x="1061" y="1005" type="curve" smooth="yes"/>
      <point x="1061" y="1011"/>
      <point x="1061" y="896"/>
      <point x="1061" y="902" type="curve"/>
      <point x="1412" y="946" type="line"/>
      <point x="1412" y="943"/>
      <point x="1412" y="969"/>
      <point x="1412" y="967" type="curve" smooth="yes"/>
      <point x="1414" y="1265"/>
      <point x="1349" y="1521"/>
      <point x="805" y="1521" type="curve" smooth="yes"/>
      <point x="250" y="1521"/>
      <point x="160" y="1292"/>
      <point x="160" y="999" type="curve" smooth="yes"/>
      <point x="160" y="483" type="line" smooth="yes"/>
      <point x="160" y="198"/>
      <point x="252" y="-28"/>
    </contour>
  </outline>
</glyph>
<glyph name="D" format="1">
  <advance width="1589"/>
  <unicode hex="0044"/>
  <outline>
    <contour>
      <point x="817" y="1494" type="move" name="top"/>
    </contour>
    <contour>
      <point x="386" y="792" type="move" name="mid"/>
    </contour>
    <contour>
      <point x="562" y="280" type="line"/>
      <point x="562" y="1215" type="line"/>
      <point x="859" y="1215" type="line" smooth="yes"/>
      <point x="1065" y="1215"/>
      <point x="1075" y="1113"/>
      <point x="1075" y="1017" type="curve" smooth="yes"/>
      <point x="1075" y="475" type="line" smooth="yes"/>
      <point x="1075" y="372"/>
      <point x="1068" y="280"/>
      <point x="859" y="280" type="curve" smooth="yes"/>
    </contour>
    <contour>
      <point x="208" y="0" type="line"/>
      <point x="888" y="0" type="line" smooth="yes"/>
      <point x="1332" y="0"/>
      <point x="1430" y="239"/>
      <point x="1430" y="524" type="curve" smooth="yes"/>
      <point x="1430" y="962" type="line" smooth="yes"/>
      <point x="1430" y="1259"/>
      <point x="1332" y="1494"/>
      <point x="888" y="1494" type="curve" smooth="yes"/>
      <point x="208" y="1494" type="line"/>
    </contour>
  </outline>
</glyph>
<glyph name="E" format="1">
  <advance width="1353"/>
  <unicode hex="0045"/>
  <outline>
    <contour>
      <point x="783" y="1494" type="move" name="top"/>
    </contour>
    <contour>
      <point x="921" y="0" type="move" name="ogonek"/>
    </contour>
    <contour>
      <point x="786" y="0" type="move" name="bot"/>
    </contour>
    <contour>
      <point x="208" y="0" type="line"/>
      <point x="1224" y="0" type="line"/>
      <point x="1224" y="268" type="line"/>
      <point x="561" y="268" type="line"/>
      <point x="561" y="632" type="line"/>
      <point x="1141" y="632" type="line"/>
      <point x="1141" y="884" type="line"/>
      <point x="561" y="884" type="line"/>
      <point x="561" y="1226" type="line"/>
      <point x="1214" y="1226" type="line"/>
      <point x="1214" y="1494" type="line"/>
      <point x="208" y="1494" type="line"/>
    </contour>
  </outline>
</glyph>
<glyph name="F" format="1">
  <advance width="1217"/>
  <unicode hex="0046"/>
  <outline>
    <contour>
      <point x="723" y="1494" type="move" name="top"/>
    </contour>
    <contour>
      <point x="208" y="0" type="line"/>
      <point x="563" y="0" type="line"/>
      <point x="563" y="616" type="line"/>
      <point x="1101" y="616" type="line"/>
      <point x="1101" y="867" type="line"/>
      <point x="563" y="867" type="line"/>
      <point x="563" y="1221" type="line"/>
      <point x="1145" y="1221" type="line"/>
      <point x="1145" y="1494" type="line"/>
      <point x="208" y="1494" type="line"/>
    </contour>
  </outline>
</glyph>
<glyph name="G" format="1">
  <advance width="1663"/>
  <unicode hex="0047"/>
  <outline>
    <contour>
      <point x="851" y="1494" type="move" name="top"/>
    </contour>
    <contour>
      <point x="762" y="0" type="move" name="bot"/>
    </contour>
    <contour>
      <point x="841" y="-28" type="curve" smooth="yes"/>
      <point x="1180" y="-28"/>
      <point x="1212" y="143"/>
      <point x="1222" y="124" type="curve"/>
      <point x="1282" y="0" type="line"/>
      <point x="1467" y="0" type="line"/>
      <point x="1467" y="770" type="line"/>
      <point x="889" y="770" type="line"/>
      <point x="889" y="546" type="line"/>
      <point x="1160" y="546" type="line"/>
      <point x="1160" y="453" type="line" smooth="yes"/>
      <point x="1160" y="284"/>
      <point x="1046" y="247"/>
      <point x="841" y="247" type="curve" smooth="yes"/>
      <point x="639" y="247"/>
      <point x="513" y="284"/>
      <point x="513" y="453" type="curve" smooth="yes"/>
      <point x="513" y="1033" type="line" smooth="yes"/>
      <point x="513" y="1204"/>
      <point x="641" y="1245"/>
      <point x="841" y="1245" type="curve" smooth="yes"/>
      <point x="1036" y="1245"/>
      <point x="1124" y="1183"/>
      <point x="1119" y="1011" type="curve" smooth="yes"/>
      <point x="1119" y="1018"/>
      <point x="1118" y="931"/>
      <point x="1118" y="939" type="curve"/>
      <point x="1475" y="965" type="line"/>
      <point x="1475" y="959"/>
      <point x="1475" y="991"/>
      <point x="1475" y="985" type="curve" smooth="yes"/>
      <point x="1479" y="1285"/>
      <point x="1384" y="1521"/>
      <point x="841" y="1521" type="curve" smooth="yes"/>
      <point x="285" y="1521"/>
      <point x="157" y="1292"/>
      <point x="157" y="999" type="curve" smooth="yes"/>
      <point x="157" y="483" type="line" smooth="yes"/>
      <point x="157" y="198"/>
      <point x="289" y="-28"/>
    </contour>
  </outline>
</glyph>
<glyph name="H" format="1">
  <advance width="1752"/>
  <unicode hex="0048"/>
  <outline>
    <contour>
      <point x="903" y="1494" type="move" name="top"/>
    </contour>
    <contour>
      <point x="212" y="0" type="line"/>
      <point x="568" y="0" type="line"/>
      <point x="568" y="589" type="line"/>
      <point x="1184" y="589" type="line"/>
      <point x="1184" y="0" type="line"/>
      <point x="1540" y="0" type="line"/>
      <point x="1540" y="1494" type="line"/>
      <point x="1184" y="1494" type="line"/>
      <point x="1184" y="873" type="line"/>
      <point x="568" y="873" type="line"/>
      <point x="568" y="1494" type="line"/>
      <point x="212" y="1494" type="line"/>
    </contour>
  </outline>
</glyph>
<glyph name="I" format="1">
  <advance width="1158"/>
  <unicode hex="0049"/>
  <outline>
    <contour>
      <point x="613" y="1494" type="move" name="top"/>
    </contour>
    <contour>
      <point x="548" y="0" type="move" name="ogonek"/>
    </contour>
    <contour>
      <point x="139" y="0" type="line"/>
      <point x="1019" y="0" type="line"/>
      <point x="1019" y="265" type="line"/>
      <point x="757" y="265" type="line"/>
      <point x="757" y="1230" type="line"/>
      <point x="1019" y="1230" type="line"/>
      <point x="1019" y="1494" type="line"/>
      <point x="139" y="1494" type="line"/>
      <point x="139" y="1230" type="line"/>
      <point x="404" y="1230" type="line"/>
      <point x="404" y="265" type="line"/>
      <point x="139" y="265" type="line"/>
    </contour>
  </outline>
</glyph>
<glyph name="J" format="1">
  <advance width="1232"/>
  <unicode hex="004A"/>
  <outline>
    <contour>
      <point x="632" y="1494" type="move" name="top"/>
    </contour>
    <contour>
      <point x="493" y="-30" type="curve" smooth="yes"/>
      <point x="828" y="-30"/>
      <point x="1065" y="127"/>
      <point x="1065" y="417" type="curve" smooth="yes"/>
      <point x="1065" y="1494" type="line"/>
      <point x="229" y="1494" type="line"/>
      <point x="229" y="1231" type="line"/>
      <point x="710" y="1231" type="line"/>
      <point x="710" y="445" type="line" smooth="yes"/>
      <point x="710" y="352"/>
      <point x="649" y="246"/>
      <point x="466" y="246" type="curve" smooth="yes"/>
      <point x="388" y="246"/>
      <point x="255" y="265"/>
      <point x="128" y="324" type="curve"/>
      <point x="51" y="65" type="line"/>
      <point x="220" y="-12"/>
      <point x="364" y="-30"/>
    </contour>
  </outline>
</glyph>
<glyph name="K" format="1">
  <advance width="1501"/>
  <unicode hex="004B"/>
  <outline>
    <contour>
      <point x="770" y="1494" type="move" name="top"/>
    </contour>
    <contour>
      <point x="826" y="0" type="move" name="bot"/>
    </contour>
    <contour>
      <point x="208" y="0" type="line"/>
      <point x="563" y="0" type="line"/>
      <point x="563" y="585" type="line"/>
      <point x="655" y="672" type="line"/>
      <point x="1105" y="0" type="line"/>
      <point x="1507" y="0" type="line"/>
      <point x="964" y="808" type="line"/>
      <point x="1465" y="1494" type="line"/>
      <point x="1071" y="1494" type="line"/>
      <point x="1208" y="1652"/>
      <point x="430" y="660"/>
      <point x="563" y="822" type="curve"/>
      <point x="563" y="1494" type="line"/>
      <point x="208" y="1494" type="line"/>
    </contour>
  </outline>
</glyph>
<glyph name="L" format="1">
  <advance width="1223"/>
  <unicode hex="004C"/>
  <outline>
    <contour>
      <point x="353" y="1494" type="move" name="top"/>
    </contour>
    <contour>
      <point x="677" y="0" type="move" name="bot"/>
    </contour>
    <contour>
      <point x="496" y="863" type="move" name="mid"/>
    </contour>
    <contour>
      <point x="208" y="0" type="line"/>
      <point x="1161" y="0" type="line"/>
      <point x="1161" y="278" type="line"/>
      <point x="563" y="278" type="line"/>
      <point x="563" y="1494" type="line"/>
      <point x="208" y="1494" type="line"/>
    </contour>
  </outline>
</glyph>
<glyph name="M" format="1">
  <advance width="2002"/>
  <unicode hex="004D"/>
  <outline>
    <contour>
      <point x="1043" y="1494" type="move" name="top"/>
    </contour>
    <contour>
      <point x="208" y="0" type="line"/>
      <point x="538" y="0" type="line"/>
      <point x="538" y="1069" type="line"/>
      <point x="886" y="412" type="line"/>
      <point x="1115" y="412" type="line"/>
      <point x="1463" y="1073" type="line"/>
      <point x="1463" y="0" type="line"/>
      <point x="1794" y="0" type="line"/>
      <point x="1794" y="1494" type="line"/>
      <point x="1368" y="1494" type="line"/>
      <point x="1000" y="835" type="line"/>
      <point x="621" y="1494" type="line"/>
      <point x="208" y="1494" type="line"/>
    </contour>
  </outline>
</glyph>
<glyph name="N" format="1">
  <advance width="1728"/>
  <unicode hex="004E"/>
  <outline>
    <contour>
      <point x="904" y="1494" type="move" name="top"/>
    </contour>
    <contour>
      <point x="965" y="0" type="move" name="bot"/>
    </contour>
    <contour>
      <point x="208" y="0" type="line"/>
      <point x="529" y="0" type="line"/>
      <point x="529" y="931" type="line"/>
      <point x="1271" y="0" type="line"/>
      <point x="1520" y="0" type="line"/>
      <point x="1520" y="1494" type="line"/>
      <point x="1204" y="1494" type="line"/>
      <point x="1204" y="568" type="line"/>
      <point x="473" y="1494" type="line"/>
      <point x="208" y="1494" type="line"/>
    </contour>
  </outline>
</glyph>
<glyph name="O" format="1">
  <advance width="1668"/>
  <unicode hex="004F"/>
  <outline>
    <contour>
      <point x="846" y="1494" type="move" name="top"/>
    </contour>
    <contour>
      <point x="922" y="0" type="move" name="ogonek"/>
    </contour>
    <contour>
      <point x="846" y="247" type="curve" smooth="yes"/>
      <point x="644" y="247"/>
      <point x="513" y="305"/>
      <point x="513" y="476" type="curve" smooth="yes"/>
      <point x="513" y="1018" type="line" smooth="yes"/>
      <point x="513" y="1187"/>
      <point x="646" y="1245"/>
      <point x="846" y="1245" type="curve" smooth="yes"/>
      <point x="1048" y="1245"/>
      <point x="1154" y="1181"/>
      <point x="1154" y="1018" type="curve" smooth="yes"/>
      <point x="1154" y="476" type="line" smooth="yes"/>
      <point x="1154" y="306"/>
      <point x="1050" y="247"/>
    </contour>
    <contour>
      <point x="846" y="-28" type="curve" smooth="yes"/>
      <point x="1380" y="-28"/>
      <point x="1510" y="241"/>
      <point x="1510" y="527" type="curve" smooth="yes"/>
      <point x="1510" y="960" type="line" smooth="yes"/>
      <point x="1510" y="1255"/>
      <point x="1382" y="1521"/>
      <point x="846" y="1521" type="curve" smooth="yes"/>
      <point x="284" y="1521"/>
      <point x="157" y="1271"/>
      <point x="157" y="976" type="curve" smooth="yes"/>
      <point x="157" y="510" type="line" smooth="yes"/>
      <point x="157" y="223"/>
      <point x="286" y="-28"/>
    </contour>
  </outline>
</glyph>
<glyph name="P" format="1">
  <advance width="1457"/>
  <unicode hex="0050"/>
  <outline>
    <contour>
      <point x="735" y="1494" type="move" name="top"/>
    </contour>
    <contour>
      <point x="208" y="0" type="line"/>
      <point x="562" y="0" type="line"/>
      <point x="562" y="497" type="line"/>
      <point x="743" y="497" type="line" smooth="yes"/>
      <point x="1213" y="497"/>
      <point x="1316" y="674"/>
      <point x="1316" y="1013" type="curve" smooth="yes"/>
      <point x="1316" y="1347"/>
      <point x="1164" y="1494"/>
      <point x="788" y="1494" type="curve" smooth="yes"/>
      <point x="208" y="1494" type="line"/>
    </contour>
    <contour>
      <point x="562" y="752" type="line"/>
      <point x="562" y="1248" type="line"/>
      <point x="829" y="1248" type="line" smooth="yes"/>
      <point x="945" y="1248"/>
      <point x="993" y="1161"/>
      <point x="993" y="998" type="curve" smooth="yes"/>
      <point x="993" y="804"/>
      <point x="951" y="752"/>
      <point x="816" y="752" type="curve" smooth="yes"/>
    </contour>
  </outline>
</glyph>
<glyph name="Q" format="1">
  <advance width="1670"/>
  <unicode hex="0051"/>
  <outline>
    <contour>
      <point x="1062" y="-624" type="line"/>
      <point x="1280" y="-497" type="line"/>
      <point x="1002" y="-20" type="line"/>
      <point x="1405" y="29"/>
      <point x="1510" y="272"/>
      <point x="1510" y="527" type="curve" smooth="yes"/>
      <point x="1510" y="960" type="line" smooth="yes"/>
      <point x="1510" y="1255"/>
      <point x="1382" y="1521"/>
      <point x="846" y="1521" type="curve" smooth="yes"/>
      <point x="284" y="1521"/>
      <point x="157" y="1271"/>
      <point x="157" y="976" type="curve" smooth="yes"/>
      <point x="157" y="510" type="line" smooth="yes"/>
      <point x="157" y="255"/>
      <point x="261" y="24"/>
      <point x="685" y="-21" type="curve"/>
    </contour>
    <contour>
      <point x="846" y="247" type="curve" smooth="yes"/>
      <point x="644" y="247"/>
      <point x="513" y="305"/>
      <point x="513" y="476" type="curve" smooth="yes"/>
      <point x="513" y="1018" type="line" smooth="yes"/>
      <point x="513" y="1187"/>
      <point x="646" y="1245"/>
      <point x="846" y="1245" type="curve" smooth="yes"/>
      <point x="1048" y="1245"/>
      <point x="1154" y="1181"/>
      <point x="1154" y="1018" type="curve" smooth="yes"/>
      <point x="1154" y="476" type="line" smooth="yes"/>
      <point x="1154" y="306"/>
      <point x="1050" y="247"/>
    </contour>
  </outline>
</glyph>
<glyph name="R" format="1">
  <advance width="1560"/>
  <unicode hex="0052"/>
  <outline>
    <contour>
      <point x="719" y="1494" type="move" name="top"/>
    </contour>
    <contour>
      <point x="846" y="0" type="move" name="bot"/>
    </contour>
    <contour>
      <point x="208" y="0" type="line"/>
      <point x="562" y="0" type="line"/>
      <point x="562" y="573" type="line"/>
      <point x="562" y="573"/>
      <point x="830" y="573"/>
      <point x="823" y="573" type="curve"/>
      <point x="1065" y="0" type="line"/>
      <point x="1434" y="0" type="line"/>
      <point x="1162" y="620" type="line"/>
      <point x="1378" y="706"/>
      <point x="1387" y="894"/>
      <point x="1387" y="1045" type="curve" smooth="yes"/>
      <point x="1387" y="1277"/>
      <point x="1322" y="1494"/>
      <point x="841" y="1494" type="curve" smooth="yes"/>
      <point x="208" y="1494" type="line"/>
    </contour>
    <contour>
      <point x="562" y="821" type="line"/>
      <point x="562" y="1248" type="line"/>
      <point x="896" y="1248" type="line" smooth="yes"/>
      <point x="1023" y="1248"/>
      <point x="1054" y="1144"/>
      <point x="1054" y="1035" type="curve" smooth="yes"/>
      <point x="1054" y="917"/>
      <point x="1029" y="821"/>
      <point x="891" y="821" type="curve" smooth="yes"/>
    </contour>
  </outline>
</glyph>
<glyph name="S" format="1">
  <advance width="1267"/>
  <unicode hex="0053"/>
  <outline>
    <contour>
      <point x="666" y="1494" type="move" name="top"/>
    </contour>
    <contour>
      <point x="726" y="0" type="move" name="bot"/>
    </contour>
    <contour>
      <point x="686" y="-28" type="curve" smooth="yes"/>
      <point x="1024" y="-28"/>
      <point x="1172" y="192"/>
      <point x="1172" y="432" type="curve" smooth="yes"/>
      <point x="1172" y="671"/>
      <point x="1065" y="813"/>
      <point x="865" y="869" type="curve" smooth="yes"/>
      <point x="681" y="915" type="line" smooth="yes"/>
      <point x="517" y="961"/>
      <point x="461" y="1002"/>
      <point x="464" y="1111" type="curve" smooth="yes"/>
      <point x="467" y="1207"/>
      <point x="542" y="1245"/>
      <point x="665" y="1245" type="curve" smooth="yes"/>
      <point x="783" y="1245"/>
      <point x="915" y="1212"/>
      <point x="1039" y="1157" type="curve"/>
      <point x="1144" y="1397" type="line"/>
      <point x="982" y="1489"/>
      <point x="809" y="1521"/>
      <point x="645" y="1521" type="curve" smooth="yes"/>
      <point x="345" y="1521"/>
      <point x="115" y="1371"/>
      <point x="115" y="1097" type="curve" smooth="yes"/>
      <point x="115" y="913"/>
      <point x="170" y="722"/>
      <point x="435" y="648" type="curve" smooth="yes"/>
      <point x="629" y="599" type="line" smooth="yes"/>
      <point x="850" y="536"/>
      <point x="855" y="460"/>
      <point x="848" y="362" type="curve" smooth="yes"/>
      <point x="840" y="312"/>
      <point x="808" y="247"/>
      <point x="677" y="247" type="curve" smooth="yes"/>
      <point x="491" y="247"/>
      <point x="341" y="303"/>
      <point x="226" y="360" type="curve"/>
      <point x="106" y="105" type="line"/>
      <point x="251" y="25"/>
      <point x="494" y="-28"/>
    </contour>
  </outline>
</glyph>
<glyph name="T" format="1">
  <advance width="1188"/>
  <unicode hex="0054"/>
  <outline>
    <contour>
      <point x="593" y="1494" type="move" name="top"/>
    </contour>
    <contour>
      <point x="559" y="0" type="move" name="bot"/>
    </contour>
    <contour>
      <point x="603" y="767" type="move" name="mid"/>
    </contour>
    <contour>
      <point x="418" y="0" type="line"/>
      <point x="771" y="0" type="line"/>
      <point x="771" y="1231" type="line"/>
      <point x="1178" y="1231" type="line"/>
      <point x="1178" y="1494" type="line"/>
      <point x="10" y="1494" type="line"/>
      <point x="10" y="1231" type="line"/>
      <point x="418" y="1231" type="line"/>
    </contour>
  </outline>
</glyph>
<glyph name="U" format="1">
  <advance width="1647"/>
  <unicode hex="0055"/>
  <outline>
    <contour>
      <point x="853" y="1494" type="move" name="top"/>
    </contour>
    <contour>
      <point x="918" y="0" type="move" name="ogonek"/>
    </contour>
    <contour>
      <point x="832" y="-28" type="curve" smooth="yes"/>
      <point x="1357" y="-28"/>
      <point x="1460" y="195"/>
      <point x="1460" y="484" type="curve" smooth="yes"/>
      <point x="1460" y="1496" type="line"/>
      <point x="1106" y="1496" type="line"/>
      <point x="1106" y="457" type="line" smooth="yes"/>
      <point x="1106" y="309"/>
      <point x="1043" y="247"/>
      <point x="832" y="247" type="curve" smooth="yes"/>
      <point x="624" y="247"/>
      <point x="541" y="304"/>
      <point x="541" y="457" type="curve" smooth="yes"/>
      <point x="541" y="1496" type="line"/>
      <point x="187" y="1496" type="line"/>
      <point x="187" y="465" type="line" smooth="yes"/>
      <point x="187" y="176"/>
      <point x="308" y="-28"/>
    </contour>
  </outline>
</glyph>
<glyph name="V" format="1">
  <advance width="1543"/>
  <unicode hex="0056"/>
  <outline>
    <contour>
      <point x="541" y="0" type="line"/>
      <point x="1011" y="0" type="line"/>
      <point x="1530" y="1494" type="line"/>
      <point x="1152" y="1494" type="line"/>
      <point x="782" y="283" type="line"/>
      <point x="391" y="1494" type="line"/>
      <point x="12" y="1494" type="line"/>
    </contour>
  </outline>
</glyph>
<glyph name="W" format="1">
  <advance width="1994"/>
  <unicode hex="0057"/>
  <outline>
    <contour>
      <point x="971" y="1494" type="move" name="top"/>
    </contour>
    <contour>
      <point x="402" y="0" type="line"/>
      <point x="736" y="0" type="line"/>
      <point x="983" y="946" type="line"/>
      <point x="1276" y="0" type="line"/>
      <point x="1584" y="0" type="line"/>
      <point x="1949" y="1494" type="line"/>
      <point x="1607" y="1494" type="line"/>
      <point x="1417" y="538" type="line"/>
      <point x="1114" y="1494" type="line"/>
      <point x="844" y="1494" type="line"/>
      <point x="598" y="520" type="line"/>
      <point x="384" y="1494" type="line"/>
      <point x="45" y="1494" type="line"/>
    </contour>
  </outline>
</glyph>
<glyph name="X" format="1">
  <advance width="1362"/>
  <unicode hex="0058"/>
  <outline>
    <contour>
      <point x="4" y="0" type="line"/>
      <point x="373" y="0" type="line"/>
      <point x="670" y="461" type="line"/>
      <point x="965" y="0" type="line"/>
      <point x="1357" y="0" type="line"/>
      <point x="864" y="758" type="line"/>
      <point x="1339" y="1494" type="line"/>
      <point x="944" y="1494" type="line"/>
      <point x="669" y="1056" type="line"/>
      <point x="383" y="1494" type="line"/>
      <point x="10" y="1494" type="line"/>
      <point x="482" y="758" type="line"/>
    </contour>
  </outline>
</glyph>
<glyph name="Y" format="1">
  <advance width="1353"/>
  <unicode hex="0059"/>
  <outline>
    <contour>
      <point x="703" y="1494" type="move" name="top"/>
    </contour>
    <contour>
      <point x="507" y="0" type="line"/>
      <point x="860" y="0" type="line"/>
      <point x="860" y="566" type="line"/>
      <point x="1353" y="1494" type="line"/>
      <point x="997" y="1494" type="line"/>
      <point x="687" y="928" type="line"/>
      <point x="373" y="1494" type="line"/>
      <point x="0" y="1494" type="line"/>
      <point x="507" y="566" type="line"/>
    </contour>
  </outline>
</glyph>
<glyph name="bracketleft" format="1">
  <advance width="886"/>
  <unicode hex="005B"/>
  <outline>
    <contour>
      <point x="186" y="-97" type="line"/>
      <point x="730" y="-97" type="line"/>
      <point x="730" y="80" type="line"/>
      <point x="510" y="80" type="line"/>
      <point x="510" y="1452" type="line"/>
      <point x="730" y="1452" type="line"/>
      <point x="730" y="1630" type="line"/>
      <point x="186" y="1630" type="line"/>
    </contour>
  </outline>
</glyph>
<glyph name="backslash" format="1">
  <advance width="1178"/>
  <unicode hex="005C"/>
  <outline>
    <contour>
      <point x="767" y="0" type="line"/>
      <point x="1046" y="0" type="line"/>
      <point x="408" y="1522" type="line"/>
      <point x="131" y="1522" type="line"/>
    </contour>
  </outline>
</glyph>
<glyph name="bracketright" format="1">
  <advance width="886"/>
  <unicode hex="005D"/>
  <outline>
    <contour>
      <point x="117" y="-97" type="line"/>
      <point x="661" y="-97" type="line"/>
      <point x="661" y="1630" type="line"/>
      <point x="117" y="1630" type="line"/>
      <point x="117" y="1453" type="line"/>
      <point x="339" y="1453" type="line"/>
      <point x="339" y="81" type="line"/>
      <point x="117" y="81" type="line"/>
    </contour>
  </outline>
</glyph>
<glyph name="asciicircum" format="1">
  <advance width="1257"/>
  <unicode hex="005E"/>
  <outline>
    <contour>
      <point x="36" y="442" type="line"/>
      <point x="298" y="442" type="line"/>
      <point x="618" y="1083" type="line"/>
      <point x="936" y="442" type="line"/>
      <point x="1183" y="442" type="line"/>
      <point x="751" y="1283" type="line"/>
      <point x="470" y="1283" type="line"/>
    </contour>
  </outline>
</glyph>
<glyph name="underscore" format="1">
  <advance width="889"/>
  <unicode hex="005F"/>
  <outline>
    <contour>
      <point x="4" y="11" type="line"/>
      <point x="877" y="11" type="line"/>
      <point x="877" y="201" type="line"/>
      <point x="4" y="201" type="line"/>
    </contour>
  </outline>
</glyph>
<glyph name="grave" format="1">
  <advance width="520"/>
  <unicode hex="0060"/>
  <outline>
    <contour>
      <point x="432" y="1082" type="move" name="_top"/>
    </contour>
    <contour>
      <point x="107" y="1582" type="line"/>
      <point x="338" y="1226" type="line"/>
      <point x="500" y="1226" type="line"/>
      <point x="400" y="1582" type="line"/>
    </contour>
  </outline>
</glyph>
<glyph name="a" format="1">
  <advance width="1176"/>
  <unicode hex="0061"/>
  <outline>
    <contour>
      <point x="600" y="1082" type="move" name="top"/>
    </contour>
    <contour>
      <point x="978" y="-6" type="move" name="ogonek"/>
    </contour>
    <contour>
      <point x="407" y="-24" type="curve" smooth="yes"/>
      <point x="541" y="-24"/>
      <point x="659" y="9"/>
      <point x="734" y="118" type="curve"/>
      <point x="766" y="39"/>
      <point x="839" y="-8"/>
      <point x="1009" y="-8" type="curve" smooth="yes"/>
      <point x="1133" y="-8" type="line"/>
      <point x="1138" y="222" type="line"/>
      <point x="1035" y="222"/>
      <point x="1024" y="242"/>
      <point x="1024" y="332" type="curve" smooth="yes"/>
      <point x="1024" y="741" type="line" smooth="yes"/>
      <point x="1024" y="965"/>
      <point x="906" y="1107"/>
      <point x="561" y="1107" type="curve" smooth="yes"/>
      <point x="257" y="1107"/>
      <point x="127" y="948"/>
      <point x="127" y="741" type="curve" smooth="yes"/>
      <point x="127" y="718" type="line"/>
      <point x="426" y="718" type="line"/>
      <point x="426" y="757" type="line" smooth="yes"/>
      <point x="426" y="839"/>
      <point x="465" y="890"/>
      <point x="555" y="890" type="curve" smooth="yes"/>
      <point x="649" y="890"/>
      <point x="707" y="883"/>
      <point x="707" y="797" type="curve"/>
      <point x="707" y="707"/>
      <point x="667" y="700"/>
      <point x="604" y="677" type="curve" smooth="yes"/>
      <point x="420" y="612" type="line" smooth="yes"/>
      <point x="192" y="532"/>
      <point x="96" y="420"/>
      <point x="93" y="293" type="curve" smooth="yes"/>
      <point x="89" y="96"/>
      <point x="238" y="-24"/>
    </contour>
    <contour>
      <point x="498" y="187" type="curve" smooth="yes"/>
      <point x="474" y="187"/>
      <point x="411" y="211"/>
      <point x="403" y="288" type="curve" smooth="yes"/>
      <point x="398" y="341"/>
      <point x="424" y="406"/>
      <point x="507" y="439" type="curve" smooth="yes"/>
      <point x="707" y="519" type="line"/>
      <point x="707" y="284" type="line"/>
      <point x="641" y="212"/>
      <point x="533" y="187"/>
    </contour>
  </outline>
</glyph>
<glyph name="b" format="1">
  <advance width="1249"/>
  <unicode hex="0062"/>
  <outline>
    <contour>
      <point x="725" y="1082" type="move" name="top"/>
    </contour>
    <contour>
      <point x="688" y="-24" type="curve" smooth="yes"/>
      <point x="940" y="-24"/>
      <point x="1114" y="109"/>
      <point x="1114" y="315" type="curve" smooth="yes"/>
      <point x="1114" y="763" type="line" smooth="yes"/>
      <point x="1114" y="930"/>
      <point x="1022" y="1107"/>
      <point x="701" y="1107" type="curve" smooth="yes"/>
      <point x="617" y="1107"/>
      <point x="546" y="1089"/>
      <point x="483" y="1058" type="curve"/>
      <point x="483" y="1522" type="line"/>
      <point x="160" y="1522" type="line"/>
      <point x="160" y="0" type="line"/>
      <point x="376" y="0" type="line"/>
      <point x="405" y="61" type="line"/>
      <point x="482" y="9"/>
      <point x="577" y="-24"/>
    </contour>
    <contour>
      <point x="633" y="193" type="curve" smooth="yes"/>
      <point x="570" y="193"/>
      <point x="515" y="202"/>
      <point x="483" y="233" type="curve"/>
      <point x="483" y="849" type="line"/>
      <point x="474" y="846"/>
      <point x="524" y="890"/>
      <point x="628" y="890" type="curve" smooth="yes"/>
      <point x="739" y="890"/>
      <point x="791" y="858"/>
      <point x="791" y="763" type="curve" smooth="yes"/>
      <point x="791" y="318" type="line" smooth="yes"/>
      <point x="791" y="223"/>
      <point x="732" y="193"/>
    </contour>
  </outline>
</glyph>
<glyph name="c" format="1">
  <advance width="1189"/>
  <unicode hex="0063"/>
  <outline>
    <contour>
      <point x="623" y="1082" type="move" name="top"/>
    </contour>
    <contour>
      <point x="610" y="0" type="move" name="bot"/>
    </contour>
    <contour>
      <point x="595" y="-24" type="curve" smooth="yes"/>
      <point x="974" y="-24"/>
      <point x="1052" y="84"/>
      <point x="1049" y="422" type="curve"/>
      <point x="747" y="422" type="line"/>
      <point x="756" y="225"/>
      <point x="725" y="196"/>
      <point x="605" y="196" type="curve" smooth="yes"/>
      <point x="497" y="196"/>
      <point x="458" y="226"/>
      <point x="458" y="318" type="curve" smooth="yes"/>
      <point x="458" y="764" type="line" smooth="yes"/>
      <point x="458" y="857"/>
      <point x="516" y="890"/>
      <point x="605" y="890" type="curve" smooth="yes"/>
      <point x="728" y="890"/>
      <point x="746" y="858"/>
      <point x="747" y="662" type="curve"/>
      <point x="1050" y="684" type="line"/>
      <point x="1050" y="1006"/>
      <point x="906" y="1107"/>
      <point x="592" y="1107" type="curve" smooth="yes"/>
      <point x="300" y="1107"/>
      <point x="135" y="986"/>
      <point x="135" y="762" type="curve" smooth="yes"/>
      <point x="135" y="317" type="line" smooth="yes"/>
      <point x="135" y="135"/>
      <point x="197" y="-24"/>
    </contour>
  </outline>
</glyph>
<glyph name="d" format="1">
  <advance width="1245"/>
  <unicode hex="0064"/>
  <outline>
    <contour>
      <point x="526" y="1082" type="move" name="top"/>
    </contour>
    <contour>
      <point x="1039" y="1082" type="move" name="caron.alt"/>
    </contour>
    <contour>
      <point x="931" y="1336" type="move" name="mid"/>
    </contour>
    <contour>
      <point x="566" y="-24" type="curve" smooth="yes"/>
      <point x="677" y="-24"/>
      <point x="764" y="9"/>
      <point x="839" y="59" type="curve"/>
      <point x="867" y="0" type="line"/>
      <point x="1084" y="0" type="line"/>
      <point x="1084" y="1522" type="line"/>
      <point x="762" y="1522" type="line"/>
      <point x="762" y="1070" type="line"/>
      <point x="701" y="1093"/>
      <point x="640" y="1107"/>
      <point x="583" y="1107" type="curve" smooth="yes"/>
      <point x="267" y="1107"/>
      <point x="135" y="953"/>
      <point x="135" y="764" type="curve" smooth="yes"/>
      <point x="135" y="317" type="line" smooth="yes"/>
      <point x="135" y="94"/>
      <point x="284" y="-24"/>
    </contour>
    <contour>
      <point x="610" y="193" type="curve" smooth="yes"/>
      <point x="501" y="193"/>
      <point x="458" y="224"/>
      <point x="458" y="319" type="curve" smooth="yes"/>
      <point x="458" y="761" type="line" smooth="yes"/>
      <point x="458" y="857"/>
      <point x="509" y="890"/>
      <point x="619" y="890" type="curve" smooth="yes"/>
      <point x="687" y="890"/>
      <point x="738" y="868"/>
      <point x="762" y="857" type="curve"/>
      <point x="762" y="224" type="line"/>
      <point x="721" y="200"/>
      <point x="666" y="193"/>
    </contour>
  </outline>
</glyph>
<glyph name="e" format="1">
  <advance width="1207"/>
  <unicode hex="0065"/>
  <outline>
    <contour>
      <point x="638" y="1082" type="move" name="top"/>
    </contour>
    <contour>
      <point x="708" y="0" type="move" name="ogonek"/>
    </contour>
    <contour>
      <point x="610" y="0" type="move" name="bot"/>
    </contour>
    <contour>
      <point x="610" y="-24" type="curve" smooth="yes"/>
      <point x="881" y="-24"/>
      <point x="1087" y="32"/>
      <point x="1084" y="359" type="curve"/>
      <point x="780" y="359" type="line"/>
      <point x="782" y="196"/>
      <point x="712" y="192"/>
      <point x="618" y="192" type="curve" smooth="yes"/>
      <point x="530" y="192"/>
      <point x="458" y="182"/>
      <point x="458" y="282" type="curve" smooth="yes"/>
      <point x="458" y="472" type="line"/>
      <point x="1084" y="472" type="line"/>
      <point x="1084" y="737" type="line" smooth="yes"/>
      <point x="1084" y="962"/>
      <point x="963" y="1107"/>
      <point x="608" y="1107" type="curve" smooth="yes"/>
      <point x="344" y="1107"/>
      <point x="135" y="993"/>
      <point x="135" y="762" type="curve" smooth="yes"/>
      <point x="135" y="313" type="line" smooth="yes"/>
      <point x="135" y="30"/>
      <point x="379" y="-24"/>
    </contour>
    <contour>
      <point x="458" y="662" type="line"/>
      <point x="458" y="779" type="line" smooth="yes"/>
      <point x="458" y="883"/>
      <point x="534" y="890"/>
      <point x="619" y="890" type="curve" smooth="yes"/>
      <point x="706" y="890"/>
      <point x="782" y="890"/>
      <point x="782" y="776" type="curve" smooth="yes"/>
      <point x="782" y="662" type="line"/>
    </contour>
  </outline>
</glyph>
<glyph name="f" format="1">
  <advance width="776"/>
  <unicode hex="0066"/>
  <outline>
    <contour>
      <point x="442" y="1494" type="move" name="top"/>
    </contour>
    <contour>
      <point x="199" y="0" type="line"/>
      <point x="521" y="0" type="line"/>
      <point x="521" y="891" type="line"/>
      <point x="710" y="891" type="line"/>
      <point x="710" y="1082" type="line"/>
      <point x="521" y="1082" type="line"/>
      <point x="521" y="1154" type="line" smooth="yes"/>
      <point x="521" y="1224"/>
      <point x="532" y="1300"/>
      <point x="652" y="1300" type="curve" smooth="yes"/>
      <point x="717" y="1300" type="line"/>
      <point x="713" y="1523" type="line"/>
      <point x="583" y="1523" type="line" smooth="yes"/>
      <point x="305" y="1523"/>
      <point x="199" y="1357"/>
      <point x="199" y="1067" type="curve" smooth="yes"/>
      <point x="199" y="1082" type="line"/>
      <point x="76" y="1082" type="line"/>
      <point x="76" y="891" type="line"/>
      <point x="199" y="891" type="line"/>
    </contour>
  </outline>
</glyph>
<glyph name="g" format="1">
  <advance width="1280"/>
  <unicode hex="0067"/>
  <outline>
    <contour>
      <point x="586" y="1082" type="move" name="top"/>
    </contour>
    <contour>
      <point x="582" y="-461" type="curve" smooth="yes"/>
      <point x="966" y="-461"/>
      <point x="1114" y="-309"/>
      <point x="1114" y="-34" type="curve" smooth="yes"/>
      <point x="1114" y="1084" type="line"/>
      <point x="904" y="1084" type="line"/>
      <point x="867" y="1010" type="line"/>
      <point x="778" y="1068"/>
      <point x="672" y="1107"/>
      <point x="548" y="1107" type="curve" smooth="yes"/>
      <point x="229" y="1107"/>
      <point x="135" y="931"/>
      <point x="135" y="765" type="curve" smooth="yes"/>
      <point x="135" y="358" type="line" smooth="yes"/>
      <point x="135" y="153"/>
      <point x="313" y="27"/>
      <point x="564" y="27" type="curve" smooth="yes"/>
      <point x="652" y="27"/>
      <point x="725" y="44"/>
      <point x="792" y="71" type="curve"/>
      <point x="792" y="-29" type="line" smooth="yes"/>
      <point x="792" y="-172"/>
      <point x="728" y="-228"/>
      <point x="589" y="-228" type="curve" smooth="yes"/>
      <point x="517" y="-228"/>
      <point x="416" y="-216"/>
      <point x="289" y="-184" type="curve"/>
      <point x="224" y="-395" type="line"/>
      <point x="297" y="-435"/>
      <point x="455" y="-461"/>
    </contour>
    <contour>
      <point x="619" y="230" type="curve" smooth="yes"/>
      <point x="521" y="230"/>
      <point x="458" y="263"/>
      <point x="458" y="360" type="curve" smooth="yes"/>
      <point x="458" y="762" type="line" smooth="yes"/>
      <point x="458" y="857"/>
      <point x="510" y="890"/>
      <point x="620" y="890" type="curve" smooth="yes"/>
      <point x="716" y="890"/>
      <point x="792" y="847"/>
      <point x="792" y="857" type="curve" smooth="yes"/>
      <point x="792" y="259" type="line"/>
      <point x="750" y="230"/>
      <point x="682" y="230"/>
    </contour>
  </outline>
</glyph>
<glyph name="h" format="1">
  <advance width="1301"/>
  <unicode hex="0068"/>
  <outline>
    <contour>
      <point x="898" y="1452" type="move" name="top"/>
    </contour>
    <contour>
      <point x="160" y="0" type="line"/>
      <point x="483" y="0" type="line"/>
      <point x="483" y="726" type="line" smooth="yes"/>
      <point x="483" y="831"/>
      <point x="616" y="869"/>
      <point x="663" y="869" type="curve" smooth="yes"/>
      <point x="720" y="869"/>
      <point x="824" y="858"/>
      <point x="824" y="740" type="curve" smooth="yes"/>
      <point x="824" y="0" type="line"/>
      <point x="1146" y="0" type="line"/>
      <point x="1146" y="808" type="line" smooth="yes"/>
      <point x="1146" y="997"/>
      <point x="1004" y="1107"/>
      <point x="831" y="1107" type="curve" smooth="yes"/>
      <point x="685" y="1107"/>
      <point x="519" y="1053"/>
      <point x="483" y="976" type="curve"/>
      <point x="483" y="1521" type="line"/>
      <point x="160" y="1521" type="line"/>
    </contour>
  </outline>
</glyph>
<glyph name="k" format="1">
  <advance width="1251"/>
  <unicode hex="006B"/>
  <outline>
    <contour>
      <point x="894" y="1452" type="move" name="top"/>
    </contour>
    <contour>
      <point x="687" y="0" type="move" name="bot"/>
    </contour>
    <contour>
      <point x="160" y="0" type="line"/>
      <point x="483" y="0" type="line"/>
      <point x="483" y="398" type="line"/>
      <point x="579" y="500" type="line"/>
      <point x="889" y="0" type="line"/>
      <point x="1234" y="0" type="line"/>
      <point x="843" y="621" type="line"/>
      <point x="1231" y="1082" type="line"/>
      <point x="859" y="1082" type="line"/>
      <point x="483" y="649" type="line"/>
      <point x="483" y="1522" type="line"/>
      <point x="160" y="1522" type="line"/>
    </contour>
  </outline>
</glyph>
<glyph name="l" format="1">
  <advance width="759"/>
  <unicode hex="006C"/>
  <outline>
    <contour>
      <point x="355" y="1517" type="move" name="top"/>
    </contour>
    <contour>
      <point x="380" y="1082" type="move" name="caron.alt"/>
    </contour>
    <contour>
      <point x="527" y="0" type="move" name="bot"/>
    </contour>
    <contour>
      <point x="535" y="-14" type="curve" smooth="yes"/>
      <point x="685" y="-14" type="line"/>
      <point x="705" y="214" type="line"/>
      <point x="671" y="214" type="line" smooth="yes"/>
      <point x="531" y="214"/>
      <point x="480" y="273"/>
      <point x="480" y="358" type="curve" smooth="yes"/>
      <point x="480" y="1521" type="line"/>
      <point x="158" y="1521" type="line"/>
      <point x="158" y="350" type="line" smooth="yes"/>
      <point x="158" y="103"/>
      <point x="292" y="-14"/>
    </contour>
  </outline>
</glyph>
<glyph name="m" format="1">
  <advance width="1943"/>
  <unicode hex="006D"/>
  <outline>
    <contour>
      <point x="1103" y="1082" type="move" name="top"/>
    </contour>
    <contour>
      <point x="157" y="0" type="line"/>
      <point x="480" y="0" type="line"/>
      <point x="480" y="729" type="line" smooth="yes"/>
      <point x="480" y="836"/>
      <point x="640" y="874"/>
      <point x="686" y="874" type="curve" smooth="yes"/>
      <point x="743" y="874"/>
      <point x="814" y="868"/>
      <point x="814" y="751" type="curve" smooth="yes"/>
      <point x="814" y="0" type="line"/>
      <point x="1136" y="0" type="line"/>
      <point x="1136" y="747" type="line"/>
      <point x="1149" y="839"/>
      <point x="1302" y="874"/>
      <point x="1347" y="874" type="curve" smooth="yes"/>
      <point x="1403" y="874"/>
      <point x="1467" y="868"/>
      <point x="1467" y="751" type="curve" smooth="yes"/>
      <point x="1467" y="0" type="line"/>
      <point x="1790" y="0" type="line"/>
      <point x="1790" y="808" type="line" smooth="yes"/>
      <point x="1790" y="997"/>
      <point x="1626" y="1107"/>
      <point x="1453" y="1107" type="curve" smooth="yes"/>
      <point x="1273" y="1107"/>
      <point x="1159" y="1049"/>
      <point x="1090" y="978" type="curve"/>
      <point x="1032" y="1075"/>
      <point x="927" y="1107"/>
      <point x="804" y="1107" type="curve" smooth="yes"/>
      <point x="610" y="1107"/>
      <point x="492" y="1000"/>
      <point x="480" y="991" type="curve"/>
      <point x="480" y="1082" type="line"/>
      <point x="157" y="1082" type="line"/>
    </contour>
  </outline>
</glyph>
<glyph name="n" format="1">
  <advance width="1301"/>
  <unicode hex="006E"/>
  <outline>
    <contour>
      <point x="676" y="1082" type="move" name="top"/>
    </contour>
    <contour>
      <point x="695" y="0" type="move" name="bot"/>
    </contour>
    <contour>
      <point x="157" y="0" type="line"/>
      <point x="480" y="0" type="line"/>
      <point x="480" y="723" type="line" smooth="yes"/>
      <point x="480" y="830"/>
      <point x="608" y="869"/>
      <point x="654" y="869" type="curve" smooth="yes"/>
      <point x="712" y="869"/>
      <point x="824" y="857"/>
      <point x="824" y="739" type="curve" smooth="yes"/>
      <point x="824" y="0" type="line"/>
      <point x="1146" y="0" type="line"/>
      <point x="1146" y="770" type="line" smooth="yes"/>
      <point x="1146" y="959"/>
      <point x="1039" y="1096"/>
      <point x="866" y="1109" type="curve" smooth="yes"/>
      <point x="608" y="1123"/>
      <point x="479" y="981"/>
      <point x="480" y="992" type="curve"/>
      <point x="480" y="1082" type="line"/>
      <point x="157" y="1082" type="line"/>
    </contour>
  </outline>
</glyph>
<glyph name="o" format="1">
  <advance width="1235"/>
  <unicode hex="006F"/>
  <outline>
    <contour>
      <point x="622" y="1082" type="move" name="top"/>
    </contour>
    <contour>
      <point x="696" y="0" type="move" name="ogonek"/>
    </contour>
    <contour>
      <point x="616" y="0" type="move" name="bot"/>
    </contour>
    <contour>
      <point x="617" y="192" type="curve" smooth="yes"/>
      <point x="507" y="192"/>
      <point x="458" y="226"/>
      <point x="458" y="321" type="curve" smooth="yes"/>
      <point x="458" y="761" type="line" smooth="yes"/>
      <point x="458" y="857"/>
      <point x="519" y="890"/>
      <point x="617" y="890" type="curve" smooth="yes"/>
      <point x="726" y="890"/>
      <point x="777" y="857"/>
      <point x="777" y="761" type="curve" smooth="yes"/>
      <point x="777" y="321" type="line" smooth="yes"/>
      <point x="777" y="226"/>
      <point x="715" y="192"/>
    </contour>
    <contour>
      <point x="617" y="-24" type="curve" smooth="yes"/>
      <point x="986" y="-24"/>
      <point x="1100" y="108"/>
      <point x="1100" y="331" type="curve" smooth="yes"/>
      <point x="1100" y="752" type="line" smooth="yes"/>
      <point x="1100" y="984"/>
      <point x="897" y="1107"/>
      <point x="617" y="1107" type="curve" smooth="yes"/>
      <point x="337" y="1107"/>
      <point x="135" y="984"/>
      <point x="135" y="752" type="curve" smooth="yes"/>
      <point x="135" y="331" type="line" smooth="yes"/>
      <point x="135" y="106"/>
      <point x="266" y="-24"/>
    </contour>
  </outline>
</glyph>
<glyph name="p" format="1">
  <advance width="1217"/>
  <unicode hex="0070"/>
  <outline>
    <contour>
      <point x="731" y="1082" type="move" name="top"/>
    </contour>
    <contour>
      <point x="157" y="-411" type="line"/>
      <point x="480" y="-411" type="line"/>
      <point x="480" y="7" type="line"/>
      <point x="532" y="-14"/>
      <point x="593" y="-24"/>
      <point x="658" y="-24" type="curve" smooth="yes"/>
      <point x="977" y="-24"/>
      <point x="1108" y="149"/>
      <point x="1108" y="315" type="curve" smooth="yes"/>
      <point x="1108" y="764" type="line" smooth="yes"/>
      <point x="1108" y="971"/>
      <point x="948" y="1107"/>
      <point x="694" y="1107" type="curve" smooth="yes"/>
      <point x="580" y="1107"/>
      <point x="482" y="1072"/>
      <point x="402" y="1018" type="curve"/>
      <point x="372" y="1082" type="line"/>
      <point x="157" y="1082" type="line"/>
    </contour>
    <contour>
      <point x="628" y="192" type="curve" smooth="yes"/>
      <point x="525" y="192"/>
      <point x="475" y="237"/>
      <point x="480" y="233" type="curve"/>
      <point x="480" y="851" type="line"/>
      <point x="519" y="885"/>
      <point x="579" y="890"/>
      <point x="638" y="890" type="curve" smooth="yes"/>
      <point x="738" y="890"/>
      <point x="785" y="858"/>
      <point x="785" y="762" type="curve" smooth="yes"/>
      <point x="785" y="318" type="line" smooth="yes"/>
      <point x="785" y="221"/>
      <point x="738" y="192"/>
    </contour>
  </outline>
</glyph>
<glyph name="q" format="1">
  <advance width="1216"/>
  <unicode hex="0071"/>
  <outline>
    <contour>
      <point x="736" y="-411" type="line"/>
      <point x="1059" y="-411" type="line"/>
      <point x="1059" y="1082" type="line"/>
      <point x="847" y="1082" type="line"/>
      <point x="816" y="1023" type="line"/>
      <point x="737" y="1075"/>
      <point x="647" y="1107"/>
      <point x="533" y="1107" type="curve" smooth="yes"/>
      <point x="281" y="1107"/>
      <point x="110" y="971"/>
      <point x="110" y="763" type="curve" smooth="yes"/>
      <point x="110" y="319" type="line" smooth="yes"/>
      <point x="110" y="152"/>
      <point x="195" y="-24"/>
      <point x="515" y="-24" type="curve" smooth="yes"/>
      <point x="603" y="-24"/>
      <point x="671" y="-5"/>
      <point x="736" y="25" type="curve"/>
    </contour>
    <contour>
      <point x="590" y="192" type="curve" smooth="yes"/>
      <point x="479" y="192"/>
      <point x="432" y="226"/>
      <point x="432" y="322" type="curve" smooth="yes"/>
      <point x="432" y="761" type="line" smooth="yes"/>
      <point x="432" y="857"/>
      <point x="491" y="890"/>
      <point x="588" y="890" type="curve" smooth="yes"/>
      <point x="643" y="890"/>
      <point x="696" y="883"/>
      <point x="736" y="856" type="curve"/>
      <point x="736" y="231" type="line"/>
      <point x="738" y="233"/>
      <point x="688" y="192"/>
    </contour>
  </outline>
</glyph>
<glyph name="r" format="1">
  <advance width="889"/>
  <unicode hex="0072"/>
  <outline>
    <contour>
      <point x="581" y="1082" type="move" name="top"/>
    </contour>
    <contour>
      <point x="310" y="0" type="move" name="bot"/>
    </contour>
    <contour>
      <point x="144" y="0" type="line"/>
      <point x="467" y="0" type="line"/>
      <point x="467" y="719" type="line"/>
      <point x="500" y="793"/>
      <point x="734" y="815"/>
      <point x="846" y="826" type="curve"/>
      <point x="852" y="1099" type="line"/>
      <point x="792" y="1115"/>
      <point x="518" y="1056"/>
      <point x="467" y="980" type="curve"/>
      <point x="467" y="1082" type="line"/>
      <point x="144" y="1082" type="line"/>
    </contour>
  </outline>
</glyph>
<glyph name="s" format="1">
  <advance width="1088"/>
  <unicode hex="0073"/>
  <outline>
    <contour>
      <point x="606" y="1082" type="move" name="top"/>
    </contour>
    <contour>
      <point x="545" y="0" type="move" name="bot"/>
    </contour>
    <contour>
      <point x="556" y="-19" type="curve" smooth="yes"/>
      <point x="760" y="-19"/>
      <point x="981" y="44"/>
      <point x="981" y="315" type="curve" smooth="yes"/>
      <point x="981" y="485"/>
      <point x="904" y="601"/>
      <point x="721" y="651" type="curve" smooth="yes"/>
      <point x="515" y="704" type="line" smooth="yes"/>
      <point x="479" y="712"/>
      <point x="451" y="751"/>
      <point x="451" y="788" type="curve" smooth="yes"/>
      <point x="451" y="841"/>
      <point x="475" y="890"/>
      <point x="570" y="890" type="curve" smooth="yes"/>
      <point x="680" y="890"/>
      <point x="817" y="850"/>
      <point x="881" y="812" type="curve"/>
      <point x="958" y="996" type="line"/>
      <point x="832" y="1064"/>
      <point x="683" y="1102"/>
      <point x="559" y="1102" type="curve" smooth="yes"/>
      <point x="387" y="1102"/>
      <point x="143" y="1039"/>
      <point x="140" y="800" type="curve" smooth="yes"/>
      <point x="135" y="648"/>
      <point x="194" y="513"/>
      <point x="371" y="461" type="curve" smooth="yes"/>
      <point x="598" y="398" type="line" smooth="yes"/>
      <point x="648" y="385"/>
      <point x="678" y="349"/>
      <point x="678" y="323" type="curve" smooth="yes"/>
      <point x="678" y="288"/>
      <point x="677" y="192"/>
      <point x="573" y="192" type="curve" smooth="yes"/>
      <point x="489" y="192"/>
      <point x="351" y="210"/>
      <point x="195" y="272" type="curve"/>
      <point x="135" y="59" type="line"/>
      <point x="324" y="-5"/>
      <point x="470" y="-19"/>
    </contour>
  </outline>
</glyph>
<glyph name="t" format="1">
  <advance width="877"/>
  <unicode hex="0074"/>
  <outline>
    <contour>
      <point x="369" y="1485" type="move" name="top"/>
    </contour>
    <contour>
      <point x="494" y="1082" type="move" name="caron.alt"/>
    </contour>
    <contour>
      <point x="482" y="19" type="move" name="bot"/>
    </contour>
    <contour>
      <point x="378" y="634" type="move" name="mid"/>
    </contour>
    <contour>
      <point x="630" y="-14" type="curve" smooth="yes"/>
      <point x="768" y="-14" type="line"/>
      <point x="772" y="214" type="line"/>
      <point x="685" y="214" type="line" smooth="yes"/>
      <point x="505" y="214"/>
      <point x="520" y="258"/>
      <point x="520" y="387" type="curve" smooth="yes"/>
      <point x="520" y="891" type="line"/>
      <point x="769" y="891" type="line"/>
      <point x="769" y="1082" type="line"/>
      <point x="520" y="1082" type="line"/>
      <point x="520" y="1438" type="line"/>
      <point x="233" y="1438" type="line"/>
      <point x="206" y="1082" type="line"/>
      <point x="32" y="1082" type="line"/>
      <point x="32" y="891" type="line"/>
      <point x="198" y="891" type="line"/>
      <point x="198" y="364" type="line" smooth="yes"/>
      <point x="198" y="62"/>
      <point x="285" y="-14"/>
    </contour>
  </outline>
</glyph>
<glyph name="u" format="1">
  <advance width="1297"/>
  <unicode hex="0075"/>
  <outline>
    <contour>
      <point x="656" y="1082" type="move" name="top"/>
    </contour>
    <contour>
      <point x="978" y="0" type="move" name="ogonek"/>
    </contour>
    <contour>
      <point x="469" y="-24" type="curve" smooth="yes"/>
      <point x="615" y="-35"/>
      <point x="794" y="24"/>
      <point x="830" y="109" type="curve"/>
      <point x="831" y="0" type="line"/>
      <point x="1140" y="0" type="line"/>
      <point x="1140" y="1082" type="line"/>
      <point x="818" y="1082" type="line"/>
      <point x="818" y="375" type="line" smooth="yes"/>
      <point x="818" y="236"/>
      <point x="688" y="218"/>
      <point x="640" y="218" type="curve" smooth="yes"/>
      <point x="584" y="218"/>
      <point x="477" y="246"/>
      <point x="477" y="363" type="curve" smooth="yes"/>
      <point x="477" y="1082" type="line"/>
      <point x="155" y="1082" type="line"/>
      <point x="155" y="292" type="line" smooth="yes"/>
      <point x="155" y="103"/>
      <point x="296" y="-8"/>
    </contour>
  </outline>
</glyph>
<glyph name="v" format="1">
  <advance width="1211"/>
  <unicode hex="0076"/>
  <outline>
    <contour>
      <point x="435" y="0" type="line"/>
      <point x="783" y="0" type="line"/>
      <point x="1141" y="1082" type="line"/>
      <point x="840" y="1082" type="line"/>
      <point x="609" y="306" type="line"/>
      <point x="391" y="1082" type="line"/>
      <point x="70" y="1082" type="line"/>
    </contour>
  </outline>
</glyph>
<glyph name="w" format="1">
  <advance width="1739"/>
  <unicode hex="0077"/>
  <outline>
    <contour>
      <point x="882" y="1082" type="move" name="top"/>
    </contour>
    <contour>
      <point x="370" y="0" type="line"/>
      <point x="676" y="0" type="line"/>
      <point x="880" y="679" type="line"/>
      <point x="1069" y="0" type="line"/>
      <point x="1390" y="0" type="line"/>
      <point x="1661" y="1082" type="line"/>
      <point x="1361" y="1082" type="line"/>
      <point x="1211" y="335" type="line"/>
      <point x="999" y="1082" type="line"/>
      <point x="754" y="1082" type="line"/>
      <point x="547" y="350" type="line"/>
      <point x="381" y="1082" type="line"/>
      <point x="78" y="1082" type="line"/>
    </contour>
  </outline>
</glyph>
<glyph name="x" format="1">
  <advance width="1155"/>
  <unicode hex="0078"/>
  <outline>
    <contour>
      <point x="48" y="0" type="line"/>
      <point x="398" y="0" type="line"/>
      <point x="587" y="299" type="line"/>
      <point x="779" y="0" type="line"/>
      <point x="1102" y="0" type="line"/>
      <point x="748" y="537" type="line"/>
      <point x="1102" y="1082" type="line"/>
      <point x="768" y="1082" type="line"/>
      <point x="578" y="781" type="line"/>
      <point x="387" y="1082" type="line"/>
      <point x="46" y="1082" type="line"/>
      <point x="414" y="544" type="line"/>
    </contour>
  </outline>
</glyph>
<glyph name="y" format="1">
  <advance width="1121"/>
  <unicode hex="0079"/>
  <outline>
    <contour>
      <point x="575" y="1082" type="move" name="top"/>
    </contour>
    <contour>
      <point x="152" y="-500" type="line"/>
      <point x="508" y="-452"/>
      <point x="575" y="-400"/>
      <point x="786" y="197" type="curve" smooth="yes"/>
      <point x="1098" y="1082" type="line"/>
      <point x="780" y="1082" type="line"/>
      <point x="586" y="435" type="line"/>
      <point x="334" y="1082" type="line"/>
      <point x="34" y="1082" type="line"/>
      <point x="419" y="55" type="line"/>
      <point x="351" y="-203"/>
      <point x="337" y="-227"/>
      <point x="120" y="-261" type="curve"/>
    </contour>
  </outline>
</glyph>
<glyph name="z" format="1">
  <advance width="1021"/>
  <unicode hex="007A"/>
  <outline>
    <contour>
      <point x="540" y="1082" type="move" name="top"/>
    </contour>
    <contour>
      <point x="477" y="0" type="move" name="bot"/>
    </contour>
    <contour>
      <point x="112" y="0" type="line"/>
      <point x="898" y="0" type="line"/>
      <point x="898" y="225" type="line"/>
      <point x="465" y="225" type="line"/>
      <point x="887" y="895" type="line"/>
      <point x="887" y="1082" type="line"/>
      <point x="106" y="1082" type="line"/>
      <point x="106" y="866" type="line"/>
      <point x="531" y="866" type="line"/>
      <point x="112" y="192" type="line"/>
    </contour>
  </outline>
</glyph>
<glyph name="braceleft" format="1">
  <advance width="1016"/>
  <unicode hex="007B"/>
  <outline>
    <contour>
      <point x="833" y="-81" type="curve"/>
      <point x="833" y="-81"/>
      <point x="835" y="107"/>
      <point x="833" y="107" type="curve" smooth="yes"/>
      <point x="726" y="107"/>
      <point x="707" y="160"/>
      <point x="707" y="262" type="curve" smooth="yes"/>
      <point x="707" y="412" type="line" smooth="yes"/>
      <point x="707" y="629"/>
      <point x="656" y="720"/>
      <point x="512" y="766" type="curve"/>
      <point x="648" y="801"/>
      <point x="705" y="936"/>
      <point x="705" y="1127" type="curve" smooth="yes"/>
      <point x="705" y="1298" type="line" smooth="yes"/>
      <point x="705" y="1380"/>
      <point x="723" y="1398"/>
      <point x="833" y="1398" type="curve" smooth="yes"/>
      <point x="835" y="1398"/>
      <point x="833" y="1586"/>
      <point x="833" y="1586" type="curve"/>
      <point x="547" y="1586"/>
      <point x="374" y="1619"/>
      <point x="374" y="1195" type="curve" smooth="yes"/>
      <point x="374" y="1055" type="line" smooth="yes"/>
      <point x="374" y="982"/>
      <point x="347" y="898"/>
      <point x="205" y="898" type="curve"/>
      <point x="205" y="608" type="line"/>
      <point x="345" y="608"/>
      <point x="374" y="550"/>
      <point x="374" y="478" type="curve" smooth="yes"/>
      <point x="374" y="363" type="line" smooth="yes"/>
      <point x="374" y="8"/>
      <point x="518" y="-81"/>
    </contour>
  </outline>
</glyph>
<glyph name="bar" format="1">
  <advance width="815"/>
  <unicode hex="007C"/>
  <outline>
    <contour>
      <point x="266" y="-101" type="line"/>
      <point x="549" y="-101" type="line"/>
      <point x="549" y="1640" type="line"/>
      <point x="266" y="1640" type="line"/>
    </contour>
  </outline>
</glyph>
<glyph name="braceright" format="1">
  <advance width="1014"/>
  <unicode hex="007D"/>
  <outline>
    <contour>
      <point x="206" y="-81" type="curve"/>
      <point x="521" y="-81"/>
      <point x="666" y="8"/>
      <point x="666" y="364" type="curve" smooth="yes"/>
      <point x="666" y="478" type="line" smooth="yes"/>
      <point x="666" y="551"/>
      <point x="694" y="608"/>
      <point x="834" y="608" type="curve"/>
      <point x="834" y="898" type="line"/>
      <point x="693" y="898"/>
      <point x="666" y="982"/>
      <point x="666" y="1055" type="curve" smooth="yes"/>
      <point x="666" y="1195" type="line" smooth="yes"/>
      <point x="666" y="1619"/>
      <point x="492" y="1586"/>
      <point x="206" y="1586" type="curve"/>
      <point x="206" y="1586"/>
      <point x="205" y="1398"/>
      <point x="206" y="1398" type="curve" smooth="yes"/>
      <point x="317" y="1398"/>
      <point x="334" y="1380"/>
      <point x="334" y="1297" type="curve" smooth="yes"/>
      <point x="334" y="1127" type="line" smooth="yes"/>
      <point x="334" y="936"/>
      <point x="392" y="801"/>
      <point x="528" y="766" type="curve"/>
      <point x="384" y="720"/>
      <point x="333" y="629"/>
      <point x="333" y="412" type="curve" smooth="yes"/>
      <point x="333" y="262" type="line" smooth="yes"/>
      <point x="333" y="160"/>
      <point x="314" y="107"/>
      <point x="206" y="107" type="curve" smooth="yes"/>
      <point x="205" y="107"/>
      <point x="206" y="-81"/>
    </contour>
  </outline>
</glyph>
<glyph name="asciitilde" format="1">
  <advance width="1110"/>
  <unicode hex="007E"/>
  <outline>
    <contour>
      <point x="745" y="1106" type="curve" smooth="yes"/>
      <point x="889" y="1106"/>
      <point x="1004" y="1247"/>
      <point x="1004" y="1449" type="curve"/>
      <point x="888" y="1449" type="line"/>
      <point x="888" y="1372"/>
      <point x="853" y="1285"/>
      <point x="757" y="1285" type="curve" smooth="yes"/>
      <point x="672" y="1285"/>
      <point x="526" y="1466"/>
      <point x="363" y="1466" type="curve" smooth="yes"/>
      <point x="219" y="1466"/>
      <point x="106" y="1326"/>
      <point x="106" y="1123" type="curve"/>
      <point x="220" y="1123" type="line"/>
      <point x="220" y="1199"/>
      <point x="256" y="1288"/>
      <point x="353" y="1288" type="curve" smooth="yes"/>
      <point x="436" y="1288"/>
      <point x="581" y="1106"/>
    </contour>
  </outline>
</glyph>
<glyph name="cent" format="1">
  <advance width="1105"/>
  <unicode hex="00A2"/>
  <outline>
    <contour>
      <point x="537" y="1002" type="line"/>
      <point x="624" y="1002" type="line"/>
      <point x="624" y="1299" type="line"/>
      <point x="537" y="1299" type="line"/>
    </contour>
    <contour>
      <point x="537" y="-219" type="line"/>
      <point x="624" y="-219" type="line"/>
      <point x="624" y="78" type="line"/>
      <point x="537" y="78" type="line"/>
    </contour>
    <component base="c"/>
  </outline>
</glyph>
<glyph name="sterling" format="1">
  <advance width="1292"/>
  <unicode hex="00A3"/>
  <outline>
    <contour>
      <point x="173" y="0" type="line"/>
      <point x="1177" y="0" type="line"/>
      <point x="1177" y="264" type="line"/>
      <point x="548" y="264" type="line"/>
      <point x="572" y="593" type="line"/>
      <point x="1062" y="593" type="line"/>
      <point x="1062" y="814" type="line"/>
      <point x="590" y="814" type="line"/>
      <point x="602" y="1008" type="line" smooth="yes"/>
      <point x="607" y="1123"/>
      <point x="623" y="1253"/>
      <point x="810" y="1253" type="curve" smooth="yes"/>
      <point x="863" y="1253"/>
      <point x="934" y="1251"/>
      <point x="1081" y="1187" type="curve"/>
      <point x="1162" y="1425" type="line"/>
      <point x="1113" y="1472"/>
      <point x="958" y="1534"/>
      <point x="785" y="1534" type="curve" smooth="yes"/>
      <point x="396" y="1534"/>
      <point x="260" y="1359"/>
      <point x="245" y="1023" type="curve" smooth="yes"/>
      <point x="232" y="814" type="line"/>
      <point x="115" y="814" type="line"/>
      <point x="115" y="593" type="line"/>
      <point x="216" y="593" type="line"/>
    </contour>
  </outline>
</glyph>
<glyph name="currency" format="1">
  <advance width="1112"/>
  <unicode hex="00A4"/>
  <outline>
    <contour>
      <point x="558" y="394" type="curve" smooth="yes"/>
      <point x="671" y="394"/>
      <point x="751" y="433"/>
      <point x="807" y="484" type="curve"/>
      <point x="931" y="389" type="line"/>
      <point x="983" y="470" type="line"/>
      <point x="865" y="558" type="line"/>
      <point x="895" y="613"/>
      <point x="909" y="678"/>
      <point x="909" y="743" type="curve" smooth="yes"/>
      <point x="909" y="796"/>
      <point x="900" y="852"/>
      <point x="876" y="902" type="curve"/>
      <point x="985" y="982" type="line"/>
      <point x="939" y="1062" type="line"/>
      <point x="826" y="981" type="line"/>
      <point x="769" y="1046"/>
      <point x="682" y="1092"/>
      <point x="558" y="1092" type="curve" smooth="yes"/>
      <point x="434" y="1092"/>
      <point x="345" y="1047"/>
      <point x="288" y="987" type="curve"/>
      <point x="181" y="1071" type="line"/>
      <point x="129" y="992" type="line"/>
      <point x="235" y="910" type="line"/>
      <point x="211" y="857"/>
      <point x="199" y="800"/>
      <point x="199" y="743" type="curve" smooth="yes"/>
      <point x="199" y="680"/>
      <point x="213" y="618"/>
      <point x="242" y="565" type="curve"/>
      <point x="126" y="481" type="line"/>
      <point x="172" y="397" type="line"/>
      <point x="300" y="487" type="line"/>
      <point x="355" y="433"/>
      <point x="440" y="394"/>
    </contour>
    <contour>
      <point x="557" y="578" type="curve" smooth="yes"/>
      <point x="425" y="578"/>
      <point x="385" y="662"/>
      <point x="385" y="743" type="curve" smooth="yes"/>
      <point x="385" y="823"/>
      <point x="425" y="907"/>
      <point x="557" y="907" type="curve" smooth="yes"/>
      <point x="686" y="907"/>
      <point x="723" y="823"/>
      <point x="723" y="743" type="curve" smooth="yes"/>
      <point x="723" y="662"/>
      <point x="686" y="578"/>
    </contour>
  </outline>
</glyph>
<glyph name="yen" format="1">
  <advance width="1296"/>
  <unicode hex="00A5"/>
  <outline>
    <contour>
      <point x="994" y="517" type="line"/>
      <point x="994" y="642" type="line"/>
      <point x="289" y="642" type="line"/>
      <point x="289" y="517" type="line"/>
    </contour>
    <contour>
      <point x="994" y="218" type="line"/>
      <point x="994" y="344" type="line"/>
      <point x="289" y="344" type="line"/>
      <point x="289" y="218" type="line"/>
    </contour>
    <component base="Y"/>
  </outline>
</glyph>
<glyph name="brokenbar" format="1">
  <advance width="826"/>
  <unicode hex="00A6"/>
  <outline>
    <contour>
      <point x="296" y="-92" type="line"/>
      <point x="523" y="-92" type="line"/>
      <point x="523" y="636" type="line"/>
      <point x="296" y="636" type="line"/>
    </contour>
    <contour>
      <point x="296" y="771" type="line"/>
      <point x="523" y="771" type="line"/>
      <point x="523" y="1429" type="line"/>
      <point x="296" y="1429" type="line"/>
    </contour>
  </outline>
</glyph>
<glyph name="section" format="1">
  <advance width="1135"/>
  <unicode hex="00A7"/>
  <outline>
    <contour>
      <point x="112" y="141" type="line"/>
      <point x="239" y="29"/>
      <point x="396" y="-22"/>
      <point x="564" y="-22" type="curve" smooth="yes"/>
      <point x="820" y="-22"/>
      <point x="966" y="127"/>
      <point x="966" y="317" type="curve" smooth="yes"/>
      <point x="966" y="419"/>
      <point x="926" y="468"/>
      <point x="864" y="516" type="curve"/>
      <point x="950" y="585"/>
      <point x="1001" y="666"/>
      <point x="1001" y="743" type="curve" smooth="yes"/>
      <point x="1001" y="801"/>
      <point x="915" y="916"/>
      <point x="788" y="986" type="curve" smooth="yes"/>
      <point x="524" y="1124" type="line" smooth="yes"/>
      <point x="485" y="1147"/>
      <point x="447" y="1169"/>
      <point x="447" y="1219" type="curve" smooth="yes"/>
      <point x="447" y="1267"/>
      <point x="525" y="1298"/>
      <point x="556" y="1298" type="curve" smooth="yes"/>
      <point x="631" y="1298"/>
      <point x="718" y="1272"/>
      <point x="847" y="1189" type="curve"/>
      <point x="954" y="1357" type="line"/>
      <point x="891" y="1425"/>
      <point x="745" y="1514"/>
      <point x="543" y="1514" type="curve" smooth="yes"/>
      <point x="338" y="1514"/>
      <point x="149" y="1430"/>
      <point x="149" y="1200" type="curve" smooth="yes"/>
      <point x="149" y="1108"/>
      <point x="187" y="1052"/>
      <point x="253" y="1000" type="curve"/>
      <point x="178" y="951"/>
      <point x="122" y="867"/>
      <point x="122" y="792" type="curve" smooth="yes"/>
      <point x="122" y="725"/>
      <point x="178" y="611"/>
      <point x="303" y="538" type="curve" smooth="yes"/>
      <point x="565" y="392" type="line" smooth="yes"/>
      <point x="628" y="353"/>
      <point x="661" y="325"/>
      <point x="661" y="289" type="curve" smooth="yes"/>
      <point x="661" y="237"/>
      <point x="586" y="208"/>
      <point x="529" y="208" type="curve" smooth="yes"/>
      <point x="483" y="208"/>
      <point x="387" y="226"/>
      <point x="234" y="328" type="curve"/>
    </contour>
    <contour>
      <point x="751" y="584" type="curve"/>
      <point x="390" y="763" type="line" smooth="yes"/>
      <point x="330" y="793"/>
      <point x="308" y="830"/>
      <point x="310" y="880" type="curve" smooth="yes"/>
      <point x="310" y="908"/>
      <point x="338" y="934"/>
      <point x="357" y="951" type="curve"/>
      <point x="683" y="777" type="line"/>
      <point x="765" y="736"/>
      <point x="774" y="677"/>
      <point x="774" y="642" type="curve" smooth="yes"/>
      <point x="774" y="623"/>
      <point x="767" y="600"/>
    </contour>
  </outline>
</glyph>
<glyph name="dieresis" format="1">
  <advance width="932"/>
  <unicode hex="00A8"/>
  <outline>
    <contour>
      <point x="484" y="1082" type="move" name="_top"/>
    </contour>
    <contour>
      <point x="89" y="1185" type="line"/>
      <point x="388" y="1185" type="line"/>
      <point x="388" y="1449" type="line"/>
      <point x="89" y="1449" type="line"/>
    </contour>
    <contour>
      <point x="602" y="1185" type="line"/>
      <point x="902" y="1185" type="line"/>
      <point x="902" y="1449" type="line"/>
      <point x="602" y="1449" type="line"/>
    </contour>
  </outline>
</glyph>
<glyph name="copyright" format="1">
  <advance width="1771"/>
  <unicode hex="00A9"/>
  <outline>
    <contour>
      <point x="897" y="287" type="curve" smooth="yes"/>
      <point x="1173" y="287"/>
      <point x="1222" y="422"/>
      <point x="1222" y="598" type="curve" smooth="yes"/>
      <point x="1222" y="632" type="line"/>
      <point x="1106" y="632" type="line"/>
      <point x="1106" y="571" type="line" smooth="yes"/>
      <point x="1106" y="419"/>
      <point x="1050" y="376"/>
      <point x="897" y="376" type="curve" smooth="yes"/>
      <point x="745" y="376"/>
      <point x="665" y="419"/>
      <point x="665" y="571" type="curve" smooth="yes"/>
      <point x="665" y="890" type="line" smooth="yes"/>
      <point x="665" y="1042"/>
      <point x="745" y="1091"/>
      <point x="896" y="1091" type="curve" smooth="yes"/>
      <point x="1048" y="1091"/>
      <point x="1106" y="1042"/>
      <point x="1106" y="890" type="curve" smooth="yes"/>
      <point x="1106" y="826" type="line"/>
      <point x="1222" y="836" type="line"/>
      <point x="1222" y="861" type="line" smooth="yes"/>
      <point x="1222" y="1043"/>
      <point x="1173" y="1182"/>
      <point x="896" y="1182" type="curve" smooth="yes"/>
      <point x="608" y="1182"/>
      <point x="545" y="1050"/>
      <point x="545" y="868" type="curve" smooth="yes"/>
      <point x="545" y="590" type="line" smooth="yes"/>
      <point x="545" y="411"/>
      <point x="610" y="287"/>
    </contour>
    <contour>
      <point x="888" y="82" type="curve" smooth="yes"/>
      <point x="524" y="82"/>
      <point x="259" y="357"/>
      <point x="259" y="722" type="curve" smooth="yes"/>
      <point x="259" y="1086"/>
      <point x="524" y="1361"/>
      <point x="888" y="1361" type="curve" smooth="yes"/>
      <point x="1254" y="1361"/>
      <point x="1516" y="1086"/>
      <point x="1516" y="722" type="curve" smooth="yes"/>
      <point x="1516" y="357"/>
      <point x="1254" y="82"/>
    </contour>
    <contour>
      <point x="886" y="-14" type="curve" smooth="yes"/>
      <point x="1302" y="-14"/>
      <point x="1622" y="303"/>
      <point x="1622" y="722" type="curve" smooth="yes"/>
      <point x="1622" y="1139"/>
      <point x="1302" y="1456"/>
      <point x="886" y="1456" type="curve" smooth="yes"/>
      <point x="473" y="1456"/>
      <point x="150" y="1139"/>
      <point x="150" y="722" type="curve" smooth="yes"/>
      <point x="150" y="303"/>
      <point x="473" y="-14"/>
    </contour>
  </outline>
</glyph>
<glyph name="guillemotleft" format="1">
  <advance width="1006"/>
  <unicode hex="00AB"/>
  <outline>
    <contour>
      <point x="330" y="80" type="line"/>
      <point x="470" y="150" type="line"/>
      <point x="263" y="530" type="line"/>
      <point x="470" y="910" type="line"/>
      <point x="323" y="980" type="line"/>
      <point x="50" y="530" type="line"/>
    </contour>
    <contour>
      <point x="744" y="80" type="line"/>
      <point x="882" y="150" type="line"/>
      <point x="677" y="530" type="line"/>
      <point x="882" y="910" type="line"/>
      <point x="737" y="980" type="line"/>
      <point x="464" y="530" type="line"/>
    </contour>
  </outline>
</glyph>
<glyph name="logicalnot" format="1">
  <advance width="1120"/>
  <unicode hex="00AC"/>
  <outline>
    <contour>
      <point x="775" y="162" type="line"/>
      <point x="932" y="162" type="line"/>
      <point x="932" y="796" type="line"/>
      <point x="148" y="796" type="line"/>
      <point x="148" y="606" type="line"/>
      <point x="775" y="606" type="line"/>
    </contour>
  </outline>
</glyph>
<glyph name="registered" format="1">
  <advance width="1771"/>
  <unicode hex="00AE"/>
  <outline>
    <contour>
      <point x="590" y="319" type="line"/>
      <point x="721" y="319" type="line"/>
      <point x="721" y="652" type="line"/>
      <point x="980" y="652" type="line"/>
      <point x="1160" y="319" type="line"/>
      <point x="1288" y="319" type="line"/>
      <point x="1104" y="666" type="line"/>
      <point x="1196" y="691"/>
      <point x="1256" y="760"/>
      <point x="1256" y="894" type="curve" smooth="yes"/>
      <point x="1256" y="908" type="line" smooth="yes"/>
      <point x="1252" y="1082"/>
      <point x="1150" y="1153"/>
      <point x="993" y="1153" type="curve" smooth="yes"/>
      <point x="590" y="1153" type="line"/>
    </contour>
    <contour>
      <point x="721" y="742" type="line"/>
      <point x="721" y="1062" type="line"/>
      <point x="997" y="1062" type="line" smooth="yes"/>
      <point x="1115" y="1062"/>
      <point x="1124" y="960"/>
      <point x="1124" y="901" type="curve" smooth="yes"/>
      <point x="1124" y="877" type="line"/>
      <point x="1123" y="814"/>
      <point x="1102" y="742"/>
      <point x="988" y="742" type="curve" smooth="yes"/>
    </contour>
    <contour>
      <point x="888" y="82" type="curve" smooth="yes"/>
      <point x="524" y="82"/>
      <point x="259" y="357"/>
      <point x="259" y="722" type="curve" smooth="yes"/>
      <point x="259" y="1086"/>
      <point x="524" y="1361"/>
      <point x="888" y="1361" type="curve" smooth="yes"/>
      <point x="1254" y="1361"/>
      <point x="1516" y="1086"/>
      <point x="1516" y="722" type="curve" smooth="yes"/>
      <point x="1516" y="357"/>
      <point x="1254" y="82"/>
    </contour>
    <contour>
      <point x="886" y="-14" type="curve" smooth="yes"/>
      <point x="1302" y="-14"/>
      <point x="1622" y="303"/>
      <point x="1622" y="722" type="curve" smooth="yes"/>
      <point x="1622" y="1139"/>
      <point x="1302" y="1456"/>
      <point x="886" y="1456" type="curve" smooth="yes"/>
      <point x="473" y="1456"/>
      <point x="150" y="1139"/>
      <point x="150" y="722" type="curve" smooth="yes"/>
      <point x="150" y="303"/>
      <point x="473" y="-14"/>
    </contour>
  </outline>
</glyph>
<glyph name="macron" format="1">
  <advance width="510"/>
  <unicode hex="00AF"/>
  <outline>
    <contour>
      <point x="257" y="1082" type="move" name="_top"/>
    </contour>
    <contour>
      <point x="259" y="1290" type="move" name="_mid"/>
    </contour>
    <contour>
      <point x="-70" y="1209" type="line"/>
      <point x="579" y="1209" type="line"/>
      <point x="579" y="1372" type="line"/>
      <point x="-70" y="1372" type="line"/>
    </contour>
  </outline>
</glyph>
<glyph name="degree" format="1">
  <advance width="937"/>
  <unicode hex="00B0"/>
  <outline>
    <contour>
      <point x="471" y="1056" type="curve" smooth="yes"/>
      <point x="329" y="1056"/>
      <point x="286" y="1136"/>
      <point x="286" y="1216" type="curve" smooth="yes"/>
      <point x="286" y="1292"/>
      <point x="329" y="1375"/>
      <point x="471" y="1375" type="curve" smooth="yes"/>
      <point x="610" y="1375"/>
      <point x="653" y="1292"/>
      <point x="653" y="1216" type="curve" smooth="yes"/>
      <point x="653" y="1136"/>
      <point x="608" y="1056"/>
    </contour>
    <contour>
      <point x="472" y="881" type="curve" smooth="yes"/>
      <point x="742" y="881"/>
      <point x="848" y="1050"/>
      <point x="848" y="1215" type="curve" smooth="yes"/>
      <point x="848" y="1382"/>
      <point x="742" y="1550"/>
      <point x="472" y="1550" type="curve" smooth="yes"/>
      <point x="196" y="1550"/>
      <point x="88" y="1382"/>
      <point x="88" y="1215" type="curve" smooth="yes"/>
      <point x="88" y="1050"/>
      <point x="194" y="881"/>
    </contour>
  </outline>
</glyph>
<glyph name="plusminus" format="1">
  <advance width="1014"/>
  <unicode hex="00B1"/>
  <outline>
    <contour>
      <point x="410" y="321" type="line"/>
      <point x="603" y="321" type="line"/>
      <point x="603" y="579" type="line"/>
      <point x="864" y="579" type="line"/>
      <point x="864" y="772" type="line"/>
      <point x="603" y="772" type="line"/>
      <point x="603" y="1034" type="line"/>
      <point x="410" y="1034" type="line"/>
      <point x="410" y="772" type="line"/>
      <point x="149" y="772" type="line"/>
      <point x="149" y="579" type="line"/>
      <point x="410" y="579" type="line"/>
    </contour>
    <contour>
      <point x="149" y="0" type="line"/>
      <point x="864" y="0" type="line"/>
      <point x="864" y="192" type="line"/>
      <point x="149" y="192" type="line"/>
    </contour>
  </outline>
</glyph>
<glyph name="twosuperior" format="1">
  <advance width="978"/>
  <unicode hex="00B2"/>
  <outline>
    <contour>
      <point x="157" y="582" type="line"/>
      <point x="831" y="582" type="line"/>
      <point x="831" y="754" type="line"/>
      <point x="397" y="754" type="line"/>
      <point x="658" y="969" type="line" smooth="yes"/>
      <point x="798" y="1077"/>
      <point x="858" y="1162"/>
      <point x="858" y="1281" type="curve" smooth="yes"/>
      <point x="858" y="1438"/>
      <point x="766" y="1581"/>
      <point x="480" y="1581" type="curve" smooth="yes"/>
      <point x="173" y="1581"/>
      <point x="94" y="1480"/>
      <point x="93" y="1248" type="curve"/>
      <point x="329" y="1248" type="line"/>
      <point x="330" y="1372"/>
      <point x="362" y="1409"/>
      <point x="488" y="1409" type="curve" smooth="yes"/>
      <point x="603" y="1409"/>
      <point x="633" y="1356"/>
      <point x="633" y="1279" type="curve" smooth="yes"/>
      <point x="633" y="1226"/>
      <point x="615" y="1184"/>
      <point x="516" y="1100" type="curve" smooth="yes"/>
      <point x="125" y="750" type="line"/>
    </contour>
  </outline>
</glyph>
<glyph name="threesuperior" format="1">
  <advance width="853"/>
  <unicode hex="00B3"/>
  <outline>
    <contour>
      <point x="415" y="573" type="curve" smooth="yes"/>
      <point x="631" y="572"/>
      <point x="767" y="652"/>
      <point x="767" y="843" type="curve" smooth="yes"/>
      <point x="767" y="965"/>
      <point x="721" y="1046"/>
      <point x="605" y="1080" type="curve"/>
      <point x="718" y="1098"/>
      <point x="765" y="1207"/>
      <point x="757" y="1327" type="curve" smooth="yes"/>
      <point x="744" y="1519"/>
      <point x="611" y="1581"/>
      <point x="411" y="1581" type="curve" smooth="yes"/>
      <point x="185" y="1581"/>
      <point x="98" y="1457"/>
      <point x="96" y="1268" type="curve"/>
      <point x="321" y="1268" type="line"/>
      <point x="324" y="1352"/>
      <point x="325" y="1406"/>
      <point x="413" y="1406" type="curve" smooth="yes"/>
      <point x="508" y="1406"/>
      <point x="522" y="1359"/>
      <point x="522" y="1290" type="curve" smooth="yes"/>
      <point x="522" y="1185"/>
      <point x="470" y="1163"/>
      <point x="338" y="1162" type="curve"/>
      <point x="338" y="1001" type="line"/>
      <point x="486" y="1000"/>
      <point x="523" y="965"/>
      <point x="523" y="856" type="curve" smooth="yes"/>
      <point x="523" y="781"/>
      <point x="501" y="752"/>
      <point x="408" y="752" type="curve" smooth="yes"/>
      <point x="322" y="752"/>
      <point x="325" y="813"/>
      <point x="321" y="886" type="curve"/>
      <point x="95" y="886" type="line"/>
      <point x="96" y="695"/>
      <point x="213" y="575"/>
    </contour>
  </outline>
</glyph>
<glyph name="acute" format="1">
  <advance width="517"/>
  <unicode hex="00B4"/>
  <outline>
    <contour>
      <point x="115" y="1082" type="move" name="_top"/>
    </contour>
    <contour>
      <point x="47" y="1226" type="line"/>
      <point x="209" y="1226" type="line"/>
      <point x="441" y="1582" type="line"/>
      <point x="147" y="1582" type="line"/>
    </contour>
  </outline>
</glyph>
<glyph name="paragraph" format="1">
  <advance width="1205"/>
  <unicode hex="00B6"/>
  <outline>
    <contour>
      <point x="394" y="126" type="line"/>
      <point x="579" y="126" type="line"/>
      <point x="579" y="1332" type="line"/>
      <point x="865" y="1332" type="line"/>
      <point x="865" y="126" type="line"/>
      <point x="1059" y="126" type="line"/>
      <point x="1059" y="1494" type="line"/>
      <point x="396" y="1494" type="line" smooth="yes"/>
      <point x="202" y="1494"/>
      <point x="51" y="1399"/>
      <point x="51" y="1183" type="curve" smooth="yes"/>
      <point x="51" y="955"/>
      <point x="186" y="850"/>
      <point x="394" y="851" type="curve"/>
    </contour>
  </outline>
</glyph>
<glyph name="periodcentered" format="1">
  <advance width="379"/>
  <unicode hex="00B7"/>
  <outline>
    <contour>
      <point x="-61" y="1015" type="move" name="_mid"/>
    </contour>
    <contour>
      <point x="165" y="875" type="line"/>
      <point x="439" y="875" type="line"/>
      <point x="439" y="1143" type="line"/>
      <point x="165" y="1143" type="line"/>
    </contour>
  </outline>
</glyph>
<glyph name="cedilla" format="1">
  <advance width="512"/>
  <unicode hex="00B8"/>
  <outline>
    <contour>
      <point x="189" y="0" type="move" name="_bot"/>
    </contour>
    <contour>
      <point x="216" y="-483" type="curve" smooth="yes"/>
      <point x="380" y="-483"/>
      <point x="460" y="-394"/>
      <point x="460" y="-300" type="curve" smooth="yes"/>
      <point x="460" y="-209"/>
      <point x="434" y="-115"/>
      <point x="287" y="-89" type="curve"/>
      <point x="281" y="16" type="line"/>
      <point x="149" y="16" type="line"/>
      <point x="149" y="-164" type="line"/>
      <point x="245" y="-167"/>
      <point x="285" y="-223"/>
      <point x="285" y="-272" type="curve" smooth="yes"/>
      <point x="285" y="-323"/>
      <point x="247" y="-351"/>
      <point x="181" y="-351" type="curve" smooth="yes"/>
      <point x="164" y="-351"/>
      <point x="143" y="-349"/>
      <point x="120" y="-344" type="curve"/>
      <point x="120" y="-473" type="line"/>
      <point x="156" y="-481"/>
      <point x="187" y="-483"/>
    </contour>
  </outline>
</glyph>
<glyph name="onesuperior" format="1">
  <advance width="1173"/>
  <unicode hex="00B9"/>
  <outline>
    <contour>
      <point x="217" y="582" type="line"/>
      <point x="1000" y="582" type="line"/>
      <point x="1000" y="741" type="line"/>
      <point x="740" y="741" type="line"/>
      <point x="740" y="1563" type="line"/>
      <point x="588" y="1563" type="line"/>
      <point x="208" y="1507" type="line"/>
      <point x="228" y="1341" type="line"/>
      <point x="507" y="1381" type="line"/>
      <point x="507" y="741" type="line"/>
      <point x="217" y="741" type="line"/>
    </contour>
  </outline>
</glyph>
<glyph name="guillemotright" format="1">
  <advance width="1006"/>
  <unicode hex="00BB"/>
  <outline>
    <contour>
      <point x="316" y="80" type="line"/>
      <point x="589" y="530" type="line"/>
      <point x="309" y="980" type="line"/>
      <point x="171" y="910" type="line"/>
      <point x="376" y="530" type="line"/>
      <point x="171" y="150" type="line"/>
    </contour>
    <contour>
      <point x="730" y="80" type="line"/>
      <point x="1003" y="530" type="line"/>
      <point x="723" y="980" type="line"/>
      <point x="583" y="910" type="line"/>
      <point x="790" y="530" type="line"/>
      <point x="583" y="150" type="line"/>
    </contour>
  </outline>
</glyph>
<glyph name="onequarter" format="1">
  <advance width="2665"/>
  <unicode hex="00BC"/>
  <outline>
    <contour>
      <point x="2172" y="0" type="line"/>
      <point x="2358" y="0" type="line"/>
      <point x="2358" y="212" type="line"/>
      <point x="2541" y="212" type="line"/>
      <point x="2541" y="418" type="line"/>
      <point x="2358" y="418" type="line"/>
      <point x="2358" y="664" type="line"/>
      <point x="2172" y="664" type="line"/>
      <point x="2172" y="418" type="line"/>
      <point x="1863" y="418" type="line"/>
      <point x="2084" y="1183" type="line"/>
      <point x="1863" y="1183" type="line"/>
      <point x="1631" y="411" type="line"/>
      <point x="1631" y="212" type="line"/>
      <point x="2172" y="212" type="line"/>
    </contour>
    <contour>
      <point x="111" y="283" type="line"/>
      <point x="890" y="283" type="line"/>
      <point x="890" y="457" type="line"/>
      <point x="635" y="457" type="line"/>
      <point x="635" y="1460" type="line"/>
      <point x="465" y="1460" type="line"/>
      <point x="103" y="1395" type="line"/>
      <point x="124" y="1226" type="line"/>
      <point x="374" y="1272" type="line"/>
      <point x="374" y="457" type="line"/>
      <point x="110" y="457" type="line"/>
    </contour>
    <contour>
      <point x="946" y="0" type="line"/>
      <point x="1145" y="0" type="line"/>
      <point x="1764" y="1540" type="line"/>
      <point x="1561" y="1540" type="line"/>
    </contour>
  </outline>
</glyph>
<glyph name="onehalf" format="1">
  <advance width="2898"/>
  <unicode hex="00BD"/>
  <outline>
    <contour>
      <point x="1934" y="-4" type="line"/>
      <point x="2662" y="-4" type="line"/>
      <point x="2662" y="195" type="line"/>
      <point x="2186" y="195" type="line"/>
      <point x="2431" y="414" type="line" smooth="yes"/>
      <point x="2570" y="543"/>
      <point x="2682" y="682"/>
      <point x="2682" y="852" type="curve" smooth="yes"/>
      <point x="2682" y="1049"/>
      <point x="2595" y="1193"/>
      <point x="2272" y="1193" type="curve" smooth="yes"/>
      <point x="1917" y="1193"/>
      <point x="1844" y="1059"/>
      <point x="1844" y="767" type="curve"/>
      <point x="2123" y="767" type="line"/>
      <point x="2123" y="931"/>
      <point x="2131" y="999"/>
      <point x="2274" y="999" type="curve" smooth="yes"/>
      <point x="2378" y="999"/>
      <point x="2412" y="949"/>
      <point x="2410" y="849" type="curve"/>
      <point x="2410" y="755"/>
      <point x="2356" y="668"/>
      <point x="2267" y="581" type="curve" smooth="yes"/>
      <point x="1869" y="198" type="line"/>
    </contour>
    <contour>
      <point x="111" y="283" type="line"/>
      <point x="890" y="283" type="line"/>
      <point x="890" y="457" type="line"/>
      <point x="635" y="457" type="line"/>
      <point x="635" y="1460" type="line"/>
      <point x="465" y="1460" type="line"/>
      <point x="103" y="1395" type="line"/>
      <point x="124" y="1226" type="line"/>
      <point x="374" y="1272" type="line"/>
      <point x="374" y="457" type="line"/>
      <point x="110" y="457" type="line"/>
    </contour>
    <contour>
      <point x="994" y="0" type="line"/>
      <point x="1193" y="0" type="line"/>
      <point x="1812" y="1540" type="line"/>
      <point x="1609" y="1540" type="line"/>
    </contour>
  </outline>
</glyph>
<glyph name="threequarters" format="1">
  <advance width="3383"/>
  <unicode hex="00BE"/>
  <outline>
    <contour>
      <point x="657" y="307" type="curve" smooth="yes"/>
      <point x="979" y="307"/>
      <point x="1039" y="490"/>
      <point x="1039" y="653" type="curve" smooth="yes"/>
      <point x="1039" y="759"/>
      <point x="1022" y="876"/>
      <point x="886" y="918" type="curve"/>
      <point x="1032" y="953"/>
      <point x="1037" y="1080"/>
      <point x="1037" y="1172" type="curve" smooth="yes"/>
      <point x="1037" y="1358"/>
      <point x="927" y="1485"/>
      <point x="671" y="1485" type="curve" smooth="yes"/>
      <point x="413" y="1485"/>
      <point x="270" y="1391"/>
      <point x="271" y="1098" type="curve"/>
      <point x="486" y="1098" type="line"/>
      <point x="485" y="1251"/>
      <point x="504" y="1298"/>
      <point x="658" y="1298" type="curve" smooth="yes"/>
      <point x="784" y="1298"/>
      <point x="820" y="1251"/>
      <point x="820" y="1157" type="curve" smooth="yes"/>
      <point x="820" y="1050"/>
      <point x="816" y="1004"/>
      <point x="618" y="1004" type="curve"/>
      <point x="618" y="828" type="line"/>
      <point x="786" y="828"/>
      <point x="819" y="782"/>
      <point x="819" y="667" type="curve" smooth="yes"/>
      <point x="819" y="562"/>
      <point x="805" y="498"/>
      <point x="673" y="498" type="curve" smooth="yes"/>
      <point x="538" y="498"/>
      <point x="486" y="515"/>
      <point x="488" y="678" type="curve"/>
      <point x="273" y="678" type="line"/>
      <point x="270" y="428"/>
      <point x="362" y="307"/>
    </contour>
    <contour>
      <point x="2236" y="0" type="line"/>
      <point x="2422" y="0" type="line"/>
      <point x="2422" y="212" type="line"/>
      <point x="2605" y="212" type="line"/>
      <point x="2605" y="418" type="line"/>
      <point x="2422" y="418" type="line"/>
      <point x="2422" y="664" type="line"/>
      <point x="2236" y="664" type="line"/>
      <point x="2236" y="418" type="line"/>
      <point x="1927" y="418" type="line"/>
      <point x="2148" y="1183" type="line"/>
      <point x="1927" y="1183" type="line"/>
      <point x="1695" y="411" type="line"/>
      <point x="1695" y="212" type="line"/>
      <point x="2236" y="212" type="line"/>
    </contour>
    <contour>
      <point x="1010" y="0" type="line"/>
      <point x="1209" y="0" type="line"/>
      <point x="1828" y="1540" type="line"/>
      <point x="1625" y="1540" type="line"/>
    </contour>
  </outline>
</glyph>
<glyph name="AE" format="1">
  <advance width="1923"/>
  <unicode hex="00C6"/>
  <outline>
    <contour>
      <point x="1143" y="1494" type="move" name="top"/>
    </contour>
    <contour>
      <point x="74" y="-2" type="line"/>
      <point x="448" y="0" type="line"/>
      <point x="530" y="280" type="line"/>
      <point x="904" y="280" type="line"/>
      <point x="904" y="0" type="line"/>
      <point x="1801" y="0" type="line"/>
      <point x="1801" y="273" type="line"/>
      <point x="1238" y="273" type="line"/>
      <point x="1238" y="634" type="line"/>
      <point x="1715" y="634" type="line"/>
      <point x="1715" y="884" type="line"/>
      <point x="1238" y="884" type="line"/>
      <point x="1238" y="1221" type="line"/>
      <point x="1790" y="1221" type="line"/>
      <point x="1790" y="1496" type="line"/>
      <point x="567" y="1496" type="line"/>
    </contour>
    <contour>
      <point x="597" y="513" type="line"/>
      <point x="832" y="1221" type="line"/>
      <point x="904" y="1221" type="line"/>
      <point x="904" y="513" type="line"/>
    </contour>
  </outline>
</glyph>
<glyph name="multiply" format="1">
  <advance width="1056"/>
  <unicode hex="00D7"/>
  <outline>
    <contour>
      <point x="281" y="216" type="line"/>
      <point x="529" y="458" type="line"/>
      <point x="777" y="216" type="line"/>
      <point x="887" y="344" type="line"/>
      <point x="650" y="576" type="line"/>
      <point x="887" y="806" type="line"/>
      <point x="777" y="937" type="line"/>
      <point x="529" y="694" type="line"/>
      <point x="281" y="937" type="line"/>
      <point x="169" y="806" type="line"/>
      <point x="408" y="576" type="line"/>
      <point x="169" y="344" type="line"/>
    </contour>
  </outline>
</glyph>
<glyph name="Oslash" format="1">
  <advance width="1642"/>
  <unicode hex="00D8"/>
  <outline>
    <contour>
      <point x="519" y="-230" type="line"/>
      <point x="1268" y="1697" type="line"/>
      <point x="1192" y="1711" type="line"/>
      <point x="442" y="-216" type="line"/>
    </contour>
    <component base="O"/>
  </outline>
</glyph>
<glyph name="Thorn" format="1">
  <advance width="1387"/>
  <unicode hex="00DE"/>
  <outline>
    <contour>
      <point x="218" y="0" type="line"/>
      <point x="572" y="0" type="line"/>
      <point x="572" y="371" type="line"/>
      <point x="773" y="371" type="line" smooth="yes"/>
      <point x="1243" y="371"/>
      <point x="1320" y="494"/>
      <point x="1320" y="834" type="curve" smooth="yes"/>
      <point x="1320" y="1168"/>
      <point x="1194" y="1259"/>
      <point x="817" y="1259" type="curve" smooth="yes"/>
      <point x="572" y="1259" type="line"/>
      <point x="572" y="1494" type="line"/>
      <point x="218" y="1494" type="line"/>
    </contour>
    <contour>
      <point x="572" y="617" type="line"/>
      <point x="572" y="1020" type="line"/>
      <point x="858" y="1020" type="line" smooth="yes"/>
      <point x="973" y="1020"/>
      <point x="1012" y="982"/>
      <point x="1012" y="820" type="curve" smooth="yes"/>
      <point x="1012" y="624"/>
      <point x="980" y="617"/>
      <point x="845" y="617" type="curve" smooth="yes"/>
    </contour>
  </outline>
</glyph>
<glyph name="germandbls" format="1">
  <advance width="1289"/>
  <unicode hex="00DF"/>
  <outline>
    <contour>
      <point x="110" y="0" type="line"/>
      <point x="493" y="0" type="line"/>
      <point x="493" y="1128" type="line" smooth="yes"/>
      <point x="493" y="1207"/>
      <point x="483" y="1310"/>
      <point x="627" y="1310" type="curve" smooth="yes"/>
      <point x="832" y="1310"/>
      <point x="816" y="1154"/>
      <point x="816" y="1105" type="curve" smooth="yes"/>
      <point x="816" y="1008"/>
      <point x="789" y="882"/>
      <point x="629" y="882" type="curve"/>
      <point x="629" y="663" type="line"/>
      <point x="812" y="631"/>
      <point x="882" y="593"/>
      <point x="882" y="384" type="curve" smooth="yes"/>
      <point x="882" y="313"/>
      <point x="895" y="170"/>
      <point x="656" y="182" type="curve"/>
      <point x="674" y="-32" type="line"/>
      <point x="1116" y="-32"/>
      <point x="1240" y="178"/>
      <point x="1240" y="347" type="curve" smooth="yes"/>
      <point x="1240" y="404"/>
      <point x="1254" y="717"/>
      <point x="865" y="784" type="curve"/>
      <point x="1063" y="838"/>
      <point x="1150" y="997"/>
      <point x="1150" y="1114" type="curve" smooth="yes"/>
      <point x="1150" y="1329"/>
      <point x="1018" y="1521"/>
      <point x="590" y="1521" type="curve" smooth="yes"/>
      <point x="233" y="1521"/>
      <point x="110" y="1319"/>
      <point x="110" y="1127" type="curve" smooth="yes"/>
    </contour>
  </outline>
</glyph>
<glyph name="ae" format="1">
  <advance width="1730"/>
  <unicode hex="00E6"/>
  <outline>
    <contour>
      <point x="886" y="1082" type="move" name="top"/>
    </contour>
    <contour>
      <point x="391" y="-24" type="curve" smooth="yes"/>
      <point x="570" y="-24"/>
      <point x="690" y="9"/>
      <point x="840" y="101" type="curve"/>
      <point x="902" y="1"/>
      <point x="1030" y="-24"/>
      <point x="1184" y="-24" type="curve" smooth="yes"/>
      <point x="1474" y="-24"/>
      <point x="1636" y="30"/>
      <point x="1633" y="374" type="curve"/>
      <point x="1332" y="374" type="line"/>
      <point x="1334" y="213"/>
      <point x="1288" y="193"/>
      <point x="1191" y="193" type="curve" smooth="yes"/>
      <point x="1098" y="193"/>
      <point x="1038" y="213"/>
      <point x="1038" y="317" type="curve" smooth="yes"/>
      <point x="1038" y="516" type="line"/>
      <point x="1633" y="516" type="line"/>
      <point x="1633" y="737" type="line" smooth="yes"/>
      <point x="1633" y="962"/>
      <point x="1537" y="1107"/>
      <point x="1181" y="1107" type="curve" smooth="yes"/>
      <point x="1058" y="1107"/>
      <point x="951" y="1066"/>
      <point x="873" y="984" type="curve"/>
      <point x="820" y="1069"/>
      <point x="694" y="1107"/>
      <point x="563" y="1107" type="curve" smooth="yes"/>
      <point x="258" y="1107"/>
      <point x="127" y="931"/>
      <point x="127" y="737" type="curve" smooth="yes"/>
      <point x="127" y="712" type="line"/>
      <point x="428" y="712" type="line"/>
      <point x="428" y="753" type="line" smooth="yes"/>
      <point x="428" y="827"/>
      <point x="468" y="891"/>
      <point x="560" y="891" type="curve" smooth="yes"/>
      <point x="649" y="891"/>
      <point x="713" y="853"/>
      <point x="713" y="768" type="curve" smooth="yes"/>
      <point x="713" y="609"/>
      <point x="599" y="648"/>
      <point x="399" y="593" type="curve" smooth="yes"/>
      <point x="102" y="512"/>
      <point x="93" y="418"/>
      <point x="101" y="259" type="curve" smooth="yes"/>
      <point x="109" y="72"/>
      <point x="231" y="-24"/>
    </contour>
    <contour>
      <point x="523" y="179" type="curve" smooth="yes"/>
      <point x="445" y="179"/>
      <point x="413" y="231"/>
      <point x="410" y="294" type="curve" smooth="yes"/>
      <point x="408" y="335"/>
      <point x="388" y="425"/>
      <point x="506" y="446" type="curve" smooth="yes"/>
      <point x="571" y="457"/>
      <point x="674" y="472"/>
      <point x="714" y="494" type="curve"/>
      <point x="714" y="247" type="line"/>
      <point x="652" y="184"/>
      <point x="561" y="179"/>
    </contour>
    <contour>
      <point x="1038" y="668" type="line"/>
      <point x="1038" y="760" type="line" smooth="yes"/>
      <point x="1038" y="864"/>
      <point x="1107" y="888"/>
      <point x="1191" y="888" type="curve" smooth="yes"/>
      <point x="1279" y="888"/>
      <point x="1331" y="871"/>
      <point x="1331" y="757" type="curve" smooth="yes"/>
      <point x="1331" y="668" type="line"/>
    </contour>
  </outline>
</glyph>
<glyph name="eth" format="1">
  <advance width="1404"/>
  <unicode hex="00F0"/>
  <outline>
    <contour>
      <point x="731" y="-25" type="curve" smooth="yes"/>
      <point x="1114" y="-25"/>
      <point x="1282" y="210"/>
      <point x="1282" y="517" type="curve" smooth="yes"/>
      <point x="1282" y="416" type="line" smooth="yes"/>
      <point x="1282" y="1184"/>
      <point x="938" y="1414"/>
      <point x="679" y="1461" type="curve"/>
      <point x="738" y="1618" type="line"/>
      <point x="603" y="1678" type="line"/>
      <point x="527" y="1494" type="line"/>
      <point x="439" y="1510"/>
      <point x="350" y="1518"/>
      <point x="268" y="1517" type="curve"/>
      <point x="247" y="1327" type="line"/>
      <point x="317" y="1321"/>
      <point x="385" y="1315"/>
      <point x="450" y="1304" type="curve"/>
      <point x="405" y="1176" type="line"/>
      <point x="538" y="1116" type="line"/>
      <point x="596" y="1272" type="line"/>
      <point x="712" y="1257"/>
      <point x="852" y="1154"/>
      <point x="889" y="927" type="curve"/>
      <point x="862" y="950"/>
      <point x="683" y="975"/>
      <point x="647" y="975" type="curve" smooth="yes"/>
      <point x="384" y="975"/>
      <point x="176" y="846"/>
      <point x="176" y="601" type="curve" smooth="yes"/>
      <point x="176" y="359" type="line" smooth="yes"/>
      <point x="176" y="118"/>
      <point x="359" y="-25"/>
    </contour>
    <contour>
      <point x="731" y="212" type="curve" smooth="yes"/>
      <point x="552" y="212"/>
      <point x="508" y="254"/>
      <point x="508" y="348" type="curve" smooth="yes"/>
      <point x="508" y="588" type="line" smooth="yes"/>
      <point x="508" y="719"/>
      <point x="585" y="769"/>
      <point x="731" y="769" type="curve" smooth="yes"/>
      <point x="791" y="769"/>
      <point x="884" y="738"/>
      <point x="924" y="708" type="curve"/>
      <point x="948" y="577"/>
      <point x="961" y="580"/>
      <point x="961" y="469" type="curve" smooth="yes"/>
      <point x="959" y="275"/>
      <point x="932" y="212"/>
    </contour>
  </outline>
</glyph>
<glyph name="divide" format="1">
  <advance width="991"/>
  <unicode hex="00F7"/>
  <outline>
    <contour>
      <point x="375" y="96" type="line"/>
      <point x="616" y="96" type="line"/>
      <point x="616" y="337" type="line"/>
      <point x="375" y="337" type="line"/>
    </contour>
    <contour>
      <point x="119" y="483" type="line"/>
      <point x="872" y="483" type="line"/>
      <point x="872" y="662" type="line"/>
      <point x="119" y="662" type="line"/>
    </contour>
    <contour>
      <point x="375" y="795" type="line"/>
      <point x="616" y="795" type="line"/>
      <point x="616" y="1036" type="line"/>
      <point x="375" y="1036" type="line"/>
    </contour>
  </outline>
</glyph>
<glyph name="oslash" format="1">
  <advance width="1184"/>
  <unicode hex="00F8"/>
  <outline>
    <contour>
      <point x="608" y="1082" type="move" name="top"/>
    </contour>
    <contour>
      <point x="369" y="-207" type="line"/>
      <point x="893" y="1284" type="line"/>
      <point x="832" y="1299" type="line"/>
      <point x="309" y="-193" type="line"/>
    </contour>
    <component base="o"/>
  </outline>
</glyph>
<glyph name="thorn" format="1">
  <advance width="1223"/>
  <unicode hex="00FE"/>
  <outline>
    <contour>
      <point x="147" y="-411" type="line"/>
      <point x="471" y="-411" type="line"/>
      <point x="471" y="7" type="line"/>
      <point x="525" y="-14"/>
      <point x="584" y="-24"/>
      <point x="649" y="-24" type="curve" smooth="yes"/>
      <point x="968" y="-24"/>
      <point x="1102" y="149"/>
      <point x="1102" y="315" type="curve" smooth="yes"/>
      <point x="1102" y="764" type="line" smooth="yes"/>
      <point x="1102" y="971"/>
      <point x="939" y="1106"/>
      <point x="685" y="1106" type="curve" smooth="yes"/>
      <point x="605" y="1106"/>
      <point x="535" y="1090"/>
      <point x="471" y="1061" type="curve"/>
      <point x="471" y="1522" type="line"/>
      <point x="145" y="1522" type="line"/>
    </contour>
    <contour>
      <point x="621" y="194" type="curve" smooth="yes"/>
      <point x="518" y="194"/>
      <point x="466" y="237"/>
      <point x="471" y="233" type="curve"/>
      <point x="471" y="851" type="line"/>
      <point x="512" y="885"/>
      <point x="570" y="889"/>
      <point x="631" y="889" type="curve" smooth="yes"/>
      <point x="729" y="889"/>
      <point x="778" y="858"/>
      <point x="778" y="763" type="curve" smooth="yes"/>
      <point x="778" y="318" type="line" smooth="yes"/>
      <point x="778" y="221"/>
      <point x="729" y="194"/>
    </contour>
  </outline>
</glyph>
<glyph name="Hbar" format="1">
  <advance width="1677"/>
  <unicode hex="0126"/>
  <outline>
    <contour>
      <point x="48" y="1175" type="line"/>
      <point x="1629" y="1175" type="line"/>
      <point x="1629" y="1267" type="line"/>
      <point x="48" y="1267" type="line"/>
    </contour>
    <component base="H"/>
  </outline>
</glyph>
<glyph name="hbar" format="1">
  <advance width="1272"/>
  <unicode hex="0127"/>
  <outline>
    <contour>
      <point x="-9" y="1204" type="line"/>
      <point x="670" y="1204" type="line"/>
      <point x="670" y="1359" type="line"/>
      <point x="-9" y="1359" type="line"/>
    </contour>
    <component base="h"/>
  </outline>
</glyph>
<glyph name="dotlessi" format="1">
  <advance width="578"/>
  <unicode hex="0131"/>
  <outline>
    <contour>
      <point x="308" y="1082" type="move" name="top"/>
    </contour>
    <contour>
      <point x="312" y="0" type="move" name="ogonek"/>
    </contour>
    <contour>
      <point x="157" y="0" type="line"/>
      <point x="446" y="0" type="line"/>
      <point x="446" y="1082" type="line"/>
      <point x="157" y="1082" type="line"/>
    </contour>
  </outline>
</glyph>
<glyph name="kgreenlandic" format="1">
  <advance width="1252"/>
  <unicode hex="0138"/>
  <outline>
    <contour>
      <point x="162" y="0" type="line"/>
      <point x="486" y="0" type="line"/>
      <point x="486" y="404" type="line"/>
      <point x="551" y="474" type="line"/>
      <point x="839" y="0" type="line"/>
      <point x="1231" y="0" type="line"/>
      <point x="835" y="618" type="line"/>
      <point x="1223" y="1082" type="line"/>
      <point x="829" y="1082" type="line"/>
      <point x="848" y="1103"/>
      <point x="467" y="636"/>
      <point x="486" y="657" type="curve"/>
      <point x="486" y="1082" type="line"/>
      <point x="162" y="1082" type="line"/>
    </contour>
  </outline>
</glyph>
<glyph name="Lslash" format="1">
  <advance width="1188"/>
  <unicode hex="0141"/>
  <outline>
    <contour>
      <point x="7" y="526" type="line"/>
      <point x="773" y="792" type="line"/>
      <point x="773" y="1075" type="line"/>
      <point x="7" y="809" type="line"/>
    </contour>
    <component base="L"/>
  </outline>
</glyph>
<glyph name="lslash" format="1">
  <advance width="708"/>
  <unicode hex="0142"/>
  <outline>
    <contour>
      <point x="9" y="718" type="line"/>
      <point x="596" y="932" type="line"/>
      <point x="596" y="1088" type="line"/>
      <point x="9" y="873" type="line"/>
    </contour>
    <component base="l"/>
  </outline>
</glyph>
<glyph name="Eng" format="1">
  <advance width="1675"/>
  <unicode hex="014A"/>
  <outline>
    <contour>
      <point x="949" y="-387" type="line"/>
      <point x="1458" y="-387"/>
      <point x="1498" y="-195"/>
      <point x="1498" y="186" type="curve" smooth="yes"/>
      <point x="1498" y="1496" type="line"/>
      <point x="1177" y="1496" type="line"/>
      <point x="1177" y="614" type="line"/>
      <point x="445" y="1496" type="line"/>
      <point x="177" y="1496" type="line"/>
      <point x="177" y="0" type="line"/>
      <point x="499" y="0" type="line"/>
      <point x="499" y="931" type="line"/>
      <point x="1174" y="131" type="line"/>
      <point x="1174" y="118" type="line" smooth="yes"/>
      <point x="1174" y="-136"/>
      <point x="1147" y="-148"/>
      <point x="921" y="-168" type="curve"/>
    </contour>
  </outline>
</glyph>
<glyph name="eng" format="1">
  <advance width="1271"/>
  <unicode hex="014B"/>
  <outline>
    <contour>
      <point x="500" y="-394" type="line"/>
      <point x="1000" y="-394"/>
      <point x="1133" y="-226"/>
      <point x="1133" y="155" type="curve" smooth="yes"/>
      <point x="1133" y="808" type="line" smooth="yes"/>
      <point x="1133" y="997"/>
      <point x="970" y="1107"/>
      <point x="797" y="1107" type="curve" smooth="yes"/>
      <point x="651" y="1107"/>
      <point x="505" y="1031"/>
      <point x="468" y="943" type="curve"/>
      <point x="468" y="1082" type="line"/>
      <point x="144" y="1082" type="line"/>
      <point x="144" y="0" type="line"/>
      <point x="468" y="0" type="line"/>
      <point x="468" y="760" type="line" smooth="yes"/>
      <point x="468" y="867"/>
      <point x="595" y="890"/>
      <point x="643" y="890" type="curve" smooth="yes"/>
      <point x="699" y="890"/>
      <point x="809" y="878"/>
      <point x="809" y="760" type="curve" smooth="yes"/>
      <point x="809" y="148" type="line" smooth="yes"/>
      <point x="809" y="-164"/>
      <point x="714" y="-140"/>
      <point x="472" y="-175" type="curve"/>
    </contour>
  </outline>
</glyph>
<glyph name="OE" format="1">
  <advance width="1679"/>
  <unicode hex="0152"/>
  <outline>
    <contour>
      <point x="682" y="0" type="curve" smooth="yes"/>
      <point x="1572" y="0" type="line"/>
      <point x="1572" y="214" type="line"/>
      <point x="1264" y="214" type="line"/>
      <point x="1264" y="666" type="line"/>
      <point x="1478" y="666" type="line"/>
      <point x="1478" y="884" type="line"/>
      <point x="1264" y="884" type="line"/>
      <point x="1264" y="1282" type="line"/>
      <point x="1574" y="1282" type="line"/>
      <point x="1574" y="1494" type="line"/>
      <point x="682" y="1494" type="line" smooth="yes"/>
      <point x="248" y="1492"/>
      <point x="146" y="1261"/>
      <point x="146" y="982" type="curve" smooth="yes"/>
      <point x="146" y="504" type="line" smooth="yes"/>
      <point x="146" y="212"/>
      <point x="250" y="0"/>
    </contour>
    <contour>
      <point x="683" y="216" type="line"/>
      <point x="481" y="216"/>
      <point x="457" y="348"/>
      <point x="457" y="423" type="curve" smooth="yes"/>
      <point x="457" y="1062" type="line" smooth="yes"/>
      <point x="457" y="1139"/>
      <point x="482" y="1269"/>
      <point x="682" y="1269" type="curve" smooth="yes"/>
      <point x="953" y="1269" type="line"/>
      <point x="953" y="216" type="line"/>
    </contour>
  </outline>
</glyph>
<glyph name="oe" format="1">
  <advance width="1808"/>
  <unicode hex="0153"/>
  <outline>
    <contour>
      <point x="593" y="-25" type="curve" smooth="yes"/>
      <point x="736" y="-25"/>
      <point x="843" y="15"/>
      <point x="918" y="71" type="curve"/>
      <point x="1008" y="8"/>
      <point x="1123" y="-25"/>
      <point x="1236" y="-25" type="curve" smooth="yes"/>
      <point x="1526" y="-25"/>
      <point x="1712" y="28"/>
      <point x="1710" y="373" type="curve"/>
      <point x="1406" y="373" type="line"/>
      <point x="1407" y="212"/>
      <point x="1340" y="193"/>
      <point x="1244" y="193" type="curve" smooth="yes"/>
      <point x="1150" y="193"/>
      <point x="1080" y="213"/>
      <point x="1080" y="317" type="curve" smooth="yes"/>
      <point x="1080" y="516" type="line"/>
      <point x="1710" y="516" type="line"/>
      <point x="1710" y="737" type="line" smooth="yes"/>
      <point x="1710" y="962"/>
      <point x="1589" y="1107"/>
      <point x="1233" y="1107" type="curve" smooth="yes"/>
      <point x="1111" y="1107"/>
      <point x="1000" y="1072"/>
      <point x="915" y="993" type="curve"/>
      <point x="832" y="1070"/>
      <point x="721" y="1107"/>
      <point x="593" y="1107" type="curve" smooth="yes"/>
      <point x="308" y="1107"/>
      <point x="108" y="984"/>
      <point x="108" y="750" type="curve" smooth="yes"/>
      <point x="108" y="331" type="line" smooth="yes"/>
      <point x="108" y="107"/>
      <point x="242" y="-25"/>
    </contour>
    <contour>
      <point x="593" y="193" type="curve" smooth="yes"/>
      <point x="484" y="193"/>
      <point x="432" y="226"/>
      <point x="432" y="322" type="curve" smooth="yes"/>
      <point x="432" y="761" type="line" smooth="yes"/>
      <point x="432" y="856"/>
      <point x="494" y="888"/>
      <point x="593" y="888" type="curve" smooth="yes"/>
      <point x="703" y="888"/>
      <point x="756" y="858"/>
      <point x="756" y="761" type="curve" smooth="yes"/>
      <point x="756" y="322" type="line" smooth="yes"/>
      <point x="756" y="225"/>
      <point x="692" y="193"/>
    </contour>
    <contour>
      <point x="1080" y="668" type="line"/>
      <point x="1080" y="760" type="line" smooth="yes"/>
      <point x="1080" y="864"/>
      <point x="1160" y="888"/>
      <point x="1244" y="888" type="curve" smooth="yes"/>
      <point x="1332" y="888"/>
      <point x="1408" y="871"/>
      <point x="1408" y="757" type="curve" smooth="yes"/>
      <point x="1408" y="668" type="line"/>
    </contour>
  </outline>
</glyph>
<glyph name="florin" format="1">
  <advance width="1104"/>
  <unicode hex="0192"/>
  <outline>
    <contour>
      <point x="435" y="-214" type="curve" smooth="yes"/>
      <point x="679" y="-214"/>
      <point x="671" y="-48"/>
      <point x="671" y="107" type="curve" smooth="yes"/>
      <point x="671" y="913" type="line"/>
      <point x="869" y="913" type="line"/>
      <point x="869" y="1024" type="line"/>
      <point x="671" y="1024" type="line"/>
      <point x="671" y="1225" type="line" smooth="yes"/>
      <point x="671" y="1292"/>
      <point x="678" y="1354"/>
      <point x="752" y="1354" type="curve" smooth="yes"/>
      <point x="768" y="1354"/>
      <point x="800" y="1346"/>
      <point x="827" y="1345" type="curve"/>
      <point x="827" y="1506" type="line"/>
      <point x="765" y="1513"/>
      <point x="735" y="1515"/>
      <point x="694" y="1515" type="curve" smooth="yes"/>
      <point x="449" y="1515"/>
      <point x="456" y="1350"/>
      <point x="456" y="1197" type="curve" smooth="yes"/>
      <point x="456" y="1024" type="line"/>
      <point x="291" y="1024" type="line"/>
      <point x="291" y="913" type="line"/>
      <point x="456" y="913" type="line"/>
      <point x="456" y="81" type="line" smooth="yes"/>
      <point x="456" y="12"/>
      <point x="454" y="-53"/>
      <point x="376" y="-53" type="curve" smooth="yes"/>
      <point x="361" y="-53"/>
      <point x="329" y="-48"/>
      <point x="301" y="-43" type="curve"/>
      <point x="301" y="-204" type="line"/>
      <point x="363" y="-212"/>
      <point x="394" y="-214"/>
    </contour>
  </outline>
</glyph>
<glyph name="dotlessj" format="1">
  <advance width="720"/>
  <unicode hex="0237"/>
  <outline>
    <contour>
      <point x="392" y="1082" type="move" name="top"/>
    </contour>
    <contour>
      <point x="9" y="-315" type="line"/>
      <point x="144" y="-315" type="line" smooth="yes"/>
      <point x="448" y="-315"/>
      <point x="549" y="-110"/>
      <point x="549" y="44" type="curve" smooth="yes"/>
      <point x="549" y="1082" type="line"/>
      <point x="225" y="1082" type="line"/>
      <point x="225" y="71" type="line" smooth="yes"/>
      <point x="225" y="42"/>
      <point x="210" y="-98"/>
      <point x="66" y="-98" type="curve" smooth="yes"/>
      <point x="11" y="-98" type="line"/>
    </contour>
  </outline>
</glyph>
<glyph name="circumflex" format="1">
  <advance width="512"/>
  <unicode hex="02C6"/>
  <outline>
    <contour>
      <point x="274" y="1082" type="move" name="_top"/>
    </contour>
    <contour>
      <point x="-92" y="1173" type="line"/>
      <point x="168" y="1173" type="line"/>
      <point x="270" y="1316" type="line"/>
      <point x="364" y="1173" type="line"/>
      <point x="619" y="1173" type="line"/>
      <point x="406" y="1491" type="line"/>
      <point x="136" y="1491" type="line"/>
    </contour>
  </outline>
</glyph>
<glyph name="breve" format="1">
  <advance width="512"/>
  <unicode hex="02D8"/>
  <outline>
    <contour>
      <point x="267" y="1082" type="move" name="_top"/>
    </contour>
    <contour>
      <point x="256" y="1171" type="curve" smooth="yes"/>
      <point x="377" y="1171"/>
      <point x="530" y="1207"/>
      <point x="530" y="1458" type="curve"/>
      <point x="375" y="1458" type="line"/>
      <point x="375" y="1372"/>
      <point x="316" y="1352"/>
      <point x="256" y="1352" type="curve" smooth="yes"/>
      <point x="196" y="1352"/>
      <point x="137" y="1372"/>
      <point x="137" y="1458" type="curve"/>
      <point x="-18" y="1458" type="line"/>
      <point x="-18" y="1207"/>
      <point x="135" y="1171"/>
    </contour>
  </outline>
</glyph>
<glyph name="dotaccent" format="1">
  <advance width="475"/>
  <unicode hex="02D9"/>
  <outline>
    <contour>
      <point x="258" y="1082" type="move" name="_top"/>
    </contour>
    <contour>
      <point x="98" y="1205" type="line"/>
      <point x="411" y="1205" type="line"/>
      <point x="411" y="1487" type="line"/>
      <point x="98" y="1487" type="line"/>
    </contour>
  </outline>
</glyph>
<glyph name="ring" format="1">
  <advance width="640"/>
  <unicode hex="02DA"/>
  <outline>
    <contour>
      <point x="322" y="1082" type="move" name="_top"/>
    </contour>
    <contour>
      <point x="320" y="1294" type="curve" smooth="yes"/>
      <point x="245" y="1294"/>
      <point x="197" y="1321"/>
      <point x="197" y="1424" type="curve" smooth="yes"/>
      <point x="197" y="1525"/>
      <point x="245" y="1553"/>
      <point x="318" y="1553" type="curve" smooth="yes"/>
      <point x="392" y="1553"/>
      <point x="443" y="1525"/>
      <point x="443" y="1422" type="curve" smooth="yes"/>
      <point x="443" y="1320"/>
      <point x="393" y="1294"/>
    </contour>
    <contour>
      <point x="320" y="1189" type="curve" smooth="yes"/>
      <point x="489" y="1189"/>
      <point x="572" y="1279"/>
      <point x="572" y="1423" type="curve" smooth="yes"/>
      <point x="572" y="1567"/>
      <point x="487" y="1655"/>
      <point x="320" y="1655" type="curve" smooth="yes"/>
      <point x="151" y="1655"/>
      <point x="68" y="1567"/>
      <point x="68" y="1423" type="curve" smooth="yes"/>
      <point x="68" y="1279"/>
      <point x="151" y="1189"/>
    </contour>
  </outline>
</glyph>
<glyph name="ogonek" format="1">
  <advance width="471"/>
  <unicode hex="02DB"/>
  <outline>
    <contour>
      <point x="231" y="0" type="move" name="_ogonek"/>
    </contour>
    <contour>
      <point x="410" y="-527" type="curve"/>
      <point x="431" y="-360" type="line"/>
      <point x="365" y="-360"/>
      <point x="251" y="-368"/>
      <point x="251" y="-245" type="curve" smooth="yes"/>
      <point x="251" y="-154"/>
      <point x="286" y="-80"/>
      <point x="312" y="8" type="curve"/>
      <point x="165" y="8" type="line"/>
      <point x="99" y="-62"/>
      <point x="29" y="-190"/>
      <point x="29" y="-302" type="curve" smooth="yes"/>
      <point x="29" y="-528"/>
      <point x="260" y="-530"/>
    </contour>
  </outline>
</glyph>
<glyph name="tilde" format="1">
  <advance width="907"/>
  <unicode hex="02DC"/>
  <outline>
    <contour>
      <point x="464" y="1082" type="move" name="_top"/>
    </contour>
    <contour>
      <point x="343" y="1248" type="curve" smooth="yes"/>
      <point x="506" y="1248"/>
      <point x="551" y="1348"/>
      <point x="595" y="1348" type="curve" smooth="yes"/>
      <point x="623" y="1348"/>
      <point x="642" y="1325"/>
      <point x="642" y="1265" type="curve"/>
      <point x="773" y="1265" type="line"/>
      <point x="773" y="1465"/>
      <point x="684" y="1544"/>
      <point x="564" y="1544" type="curve" smooth="yes"/>
      <point x="400" y="1544"/>
      <point x="362" y="1445"/>
      <point x="324" y="1445" type="curve" smooth="yes"/>
      <point x="293" y="1445"/>
      <point x="266" y="1463"/>
      <point x="266" y="1526" type="curve"/>
      <point x="135" y="1526" type="line"/>
      <point x="135" y="1326"/>
      <point x="223" y="1248"/>
    </contour>
  </outline>
</glyph>
<glyph name="hungarumlaut" format="1">
  <advance width="1024"/>
  <unicode hex="02DD"/>
  <outline>
    <contour>
      <point x="332" y="1082" type="move" name="_top"/>
    </contour>
    <contour>
      <point x="71" y="1075" type="line"/>
      <point x="233" y="1075" type="line"/>
      <point x="465" y="1431" type="line"/>
      <point x="171" y="1431" type="line"/>
    </contour>
    <contour>
      <point x="481" y="1075" type="line"/>
      <point x="643" y="1075" type="line"/>
      <point x="875" y="1431" type="line"/>
      <point x="581" y="1431" type="line"/>
    </contour>
  </outline>
</glyph>
<glyph name="uni030F" format="1">
  <advance width="1024"/>
  <unicode hex="030F"/>
  <outline>
    <contour>
      <point x="650" y="1082" type="move" name="_top"/>
    </contour>
    <contour>
      <point x="750" y="1075" type="line"/>
      <point x="911" y="1075" type="line"/>
      <point x="812" y="1431" type="line"/>
      <point x="518" y="1431" type="line"/>
    </contour>
    <contour>
      <point x="340" y="1075" type="line"/>
      <point x="501" y="1075" type="line"/>
      <point x="402" y="1431" type="line"/>
      <point x="108" y="1431" type="line"/>
    </contour>
  </outline>
</glyph>
<glyph name="uni0311" format="1">
  <advance width="613"/>
  <unicode hex="0311"/>
  <outline>
    <contour>
      <point x="321" y="1082" type="move" name="_top"/>
    </contour>
    <contour>
      <point x="36" y="1194" type="curve"/>
      <point x="191" y="1194" type="line"/>
      <point x="191" y="1279"/>
      <point x="251" y="1300"/>
      <point x="310" y="1300" type="curve" smooth="yes"/>
      <point x="370" y="1300"/>
      <point x="430" y="1279"/>
      <point x="430" y="1194" type="curve"/>
      <point x="584" y="1194" type="line"/>
      <point x="584" y="1445"/>
      <point x="432" y="1481"/>
      <point x="310" y="1481" type="curve" smooth="yes"/>
      <point x="189" y="1481"/>
      <point x="36" y="1445"/>
    </contour>
  </outline>
</glyph>
<glyph name="uni0312" format="1">
  <advance width="600"/>
  <unicode hex="0312"/>
  <outline>
    <contour>
      <point x="299" y="1082" type="move" name="_top"/>
    </contour>
    <component base="comma" xScale="-1.0" yScale="-1.0" xOffset="745" yOffset="1601"/>
  </outline>
</glyph>
<glyph name="Delta" format="1">
  <advance width="1414"/>
  <unicode hex="0394"/>
  <outline>
    <contour>
      <point x="76" y="0" type="line"/>
      <point x="1338" y="0" type="line"/>
      <point x="848" y="1494" type="line"/>
      <point x="607" y="1494" type="line"/>
    </contour>
    <contour>
      <point x="371" y="231" type="line"/>
      <point x="669" y="1108" type="line"/>
      <point x="922" y="231" type="line"/>
    </contour>
  </outline>
</glyph>
<glyph name="Sigma" format="1">
  <advance width="1220"/>
  <unicode hex="03A3"/>
  <outline>
    <contour>
      <point x="1098" y="0" type="line"/>
      <point x="1098" y="264" type="line"/>
      <point x="521" y="264" type="line"/>
      <point x="931" y="732" type="line"/>
      <point x="931" y="815" type="line"/>
      <point x="528" y="1232" type="line"/>
      <point x="1098" y="1232" type="line"/>
      <point x="1098" y="1494" type="line"/>
      <point x="80" y="1494" type="line"/>
      <point x="80" y="1287" type="line"/>
      <point x="559" y="760" type="line"/>
      <point x="80" y="213" type="line"/>
      <point x="80" y="0" type="line"/>
    </contour>
  </outline>
</glyph>
<glyph name="mu" format="1">
  <advance width="1259"/>
  <unicode hex="03BC"/>
  <outline>
    <contour>
      <point x="795" y="1082" type="line"/>
      <point x="795" y="322" type="line" smooth="yes"/>
      <point x="795" y="215"/>
      <point x="666" y="192"/>
      <point x="618" y="192" type="curve" smooth="yes"/>
      <point x="562" y="192"/>
      <point x="455" y="203"/>
      <point x="455" y="319" type="curve" smooth="yes"/>
      <point x="455" y="1082" type="line"/>
      <point x="132" y="1082" type="line"/>
      <point x="132" y="-148" type="line"/>
      <point x="423" y="-148" type="line"/>
      <point x="423" y="-1" type="line"/>
      <point x="483" y="-12"/>
      <point x="530" y="-17"/>
      <point x="560" y="-17" type="curve" smooth="yes"/>
      <point x="685" y="-17"/>
      <point x="767" y="43"/>
      <point x="795" y="136" type="curve"/>
      <point x="793" y="0" type="line"/>
      <point x="1119" y="0" type="line"/>
      <point x="1119" y="1082" type="line"/>
    </contour>
  </outline>
</glyph>
<glyph name="pi" format="1">
  <advance width="1303"/>
  <unicode hex="03C0"/>
  <outline>
    <contour>
      <point x="39" y="757" type="line"/>
      <point x="133" y="827"/>
      <point x="127" y="849"/>
      <point x="230" y="865" type="curve"/>
      <point x="230" y="0" type="line"/>
      <point x="521" y="0" type="line"/>
      <point x="521" y="868" type="line"/>
      <point x="761" y="868" type="line"/>
      <point x="761" y="315" type="line"/>
      <point x="761" y="33"/>
      <point x="898" y="-24"/>
      <point x="1150" y="-19" type="curve"/>
      <point x="1193" y="175" type="line"/>
      <point x="1070" y="197"/>
      <point x="1051" y="194"/>
      <point x="1051" y="349" type="curve"/>
      <point x="1051" y="868" type="line"/>
      <point x="1233" y="868" type="line"/>
      <point x="1233" y="1082" type="line"/>
      <point x="248" y="1082" type="line"/>
      <point x="156" y="1082"/>
      <point x="101" y="1051"/>
      <point x="39" y="978" type="curve"/>
    </contour>
  </outline>
</glyph>
<glyph name="endash" format="1">
  <advance width="822"/>
  <unicode hex="2013"/>
  <outline>
    <contour>
      <point x="204" y="350" type="line"/>
      <point x="620" y="350" type="line"/>
      <point x="620" y="540" type="line"/>
      <point x="204" y="540" type="line"/>
    </contour>
  </outline>
</glyph>
<glyph name="emdash" format="1">
  <advance width="877"/>
  <unicode hex="2014"/>
  <outline>
    <contour>
      <point x="4" y="372" type="line"/>
      <point x="872" y="372" type="line"/>
      <point x="872" y="561" type="line"/>
      <point x="4" y="561" type="line"/>
    </contour>
  </outline>
</glyph>
<glyph name="quoteleft" format="1">
  <advance width="937"/>
  <unicode hex="2018"/>
  <outline>
    <contour>
      <point x="492" y="1524" type="line"/>
      <point x="428" y="1467"/>
      <point x="282" y="1257"/>
      <point x="282" y="1050" type="curve" smooth="yes"/>
      <point x="282" y="803" type="line"/>
      <point x="643" y="803" type="line"/>
      <point x="643" y="1104" type="line"/>
      <point x="463" y="1104" type="line"/>
      <point x="463" y="1246"/>
      <point x="561" y="1417"/>
      <point x="615" y="1477" type="curve"/>
    </contour>
  </outline>
</glyph>
<glyph name="quoteright" format="1">
  <advance width="873"/>
  <unicode hex="2019"/>
  <outline>
    <contour>
      <point x="445" y="804" type="line"/>
      <point x="509" y="861"/>
      <point x="655" y="1072"/>
      <point x="655" y="1279" type="curve" smooth="yes"/>
      <point x="655" y="1526" type="line"/>
      <point x="294" y="1526" type="line"/>
      <point x="294" y="1224" type="line"/>
      <point x="474" y="1224" type="line"/>
      <point x="474" y="1082"/>
      <point x="376" y="911"/>
      <point x="322" y="851" type="curve"/>
    </contour>
  </outline>
</glyph>
<glyph name="quotesinglbase" format="1">
  <advance width="937"/>
  <unicode hex="201A"/>
  <outline>
    <contour>
      <point x="509" y="-420" type="line"/>
      <point x="573" y="-362"/>
      <point x="719" y="-152"/>
      <point x="719" y="55" type="curve" smooth="yes"/>
      <point x="719" y="302" type="line"/>
      <point x="358" y="302" type="line"/>
      <point x="358" y="0" type="line"/>
      <point x="538" y="0" type="line"/>
      <point x="538" y="-142"/>
      <point x="440" y="-313"/>
      <point x="386" y="-372" type="curve"/>
    </contour>
  </outline>
</glyph>
<glyph name="quotedblleft" format="1">
  <advance width="1387"/>
  <unicode hex="201C"/>
  <outline>
    <contour>
      <point x="428" y="1543" type="line"/>
      <point x="364" y="1486"/>
      <point x="218" y="1276"/>
      <point x="218" y="1069" type="curve" smooth="yes"/>
      <point x="218" y="822" type="line"/>
      <point x="579" y="822" type="line"/>
      <point x="579" y="1124" type="line"/>
      <point x="399" y="1124" type="line"/>
      <point x="399" y="1265"/>
      <point x="497" y="1436"/>
      <point x="551" y="1496" type="curve"/>
    </contour>
    <contour>
      <point x="942" y="1543" type="line"/>
      <point x="878" y="1486"/>
      <point x="732" y="1276"/>
      <point x="732" y="1069" type="curve" smooth="yes"/>
      <point x="732" y="822" type="line"/>
      <point x="1093" y="822" type="line"/>
      <point x="1093" y="1124" type="line"/>
      <point x="914" y="1124" type="line"/>
      <point x="914" y="1265"/>
      <point x="1012" y="1436"/>
      <point x="1065" y="1496" type="curve"/>
    </contour>
  </outline>
</glyph>
<glyph name="quotedblright" format="1">
  <advance width="1451"/>
  <unicode hex="201D"/>
  <outline>
    <contour>
      <point x="509" y="823" type="line"/>
      <point x="573" y="881"/>
      <point x="719" y="1091"/>
      <point x="719" y="1298" type="curve" smooth="yes"/>
      <point x="719" y="1545" type="line"/>
      <point x="358" y="1545" type="line"/>
      <point x="358" y="1243" type="line"/>
      <point x="538" y="1243" type="line"/>
      <point x="538" y="1101"/>
      <point x="440" y="930"/>
      <point x="386" y="871" type="curve"/>
    </contour>
    <contour>
      <point x="1023" y="823" type="line"/>
      <point x="1088" y="881"/>
      <point x="1234" y="1091"/>
      <point x="1234" y="1298" type="curve" smooth="yes"/>
      <point x="1234" y="1545" type="line"/>
      <point x="873" y="1545" type="line"/>
      <point x="873" y="1243" type="line"/>
      <point x="1052" y="1243" type="line"/>
      <point x="1052" y="1101"/>
      <point x="954" y="930"/>
      <point x="901" y="871" type="curve"/>
    </contour>
  </outline>
</glyph>
<glyph name="quotedblbase" format="1">
  <advance width="1488"/>
  <unicode hex="201E"/>
  <outline>
    <contour>
      <point x="1060" y="-420" type="line"/>
      <point x="1125" y="-362"/>
      <point x="1271" y="-152"/>
      <point x="1271" y="55" type="curve" smooth="yes"/>
      <point x="1271" y="302" type="line"/>
      <point x="910" y="302" type="line"/>
      <point x="910" y="0" type="line"/>
      <point x="1089" y="0" type="line"/>
      <point x="1089" y="-142"/>
      <point x="991" y="-313"/>
      <point x="938" y="-372" type="curve"/>
    </contour>
    <contour>
      <point x="509" y="-420" type="line"/>
      <point x="573" y="-362"/>
      <point x="719" y="-152"/>
      <point x="719" y="55" type="curve" smooth="yes"/>
      <point x="719" y="302" type="line"/>
      <point x="358" y="302" type="line"/>
      <point x="358" y="0" type="line"/>
      <point x="538" y="0" type="line"/>
      <point x="538" y="-142"/>
      <point x="440" y="-313"/>
      <point x="386" y="-372" type="curve"/>
    </contour>
  </outline>
</glyph>
<glyph name="dagger" format="1">
  <advance width="1104"/>
  <unicode hex="2020"/>
  <outline>
    <contour>
      <point x="446" y="0" type="line"/>
      <point x="661" y="0" type="line"/>
      <point x="661" y="813" type="line"/>
      <point x="903" y="813" type="line"/>
      <point x="903" y="985" type="line"/>
      <point x="661" y="985" type="line"/>
      <point x="661" y="1251" type="line"/>
      <point x="446" y="1251" type="line"/>
      <point x="446" y="985" type="line"/>
      <point x="202" y="985" type="line"/>
      <point x="202" y="813" type="line"/>
      <point x="446" y="813" type="line"/>
    </contour>
  </outline>
</glyph>
<glyph name="daggerdbl" format="1">
  <advance width="1077"/>
  <unicode hex="2021"/>
  <outline>
    <contour>
      <point x="431" y="0" type="line"/>
      <point x="646" y="0" type="line"/>
      <point x="646" y="367" type="line"/>
      <point x="794" y="367" type="line"/>
      <point x="794" y="588" type="line"/>
      <point x="646" y="588" type="line"/>
      <point x="646" y="838" type="line"/>
      <point x="794" y="838" type="line"/>
      <point x="794" y="1058" type="line"/>
      <point x="646" y="1058" type="line"/>
      <point x="646" y="1251" type="line"/>
      <point x="431" y="1251" type="line"/>
      <point x="431" y="1058" type="line"/>
      <point x="283" y="1058" type="line"/>
      <point x="283" y="838" type="line"/>
      <point x="431" y="838" type="line"/>
      <point x="431" y="588" type="line"/>
      <point x="283" y="588" type="line"/>
      <point x="283" y="367" type="line"/>
      <point x="431" y="367" type="line"/>
    </contour>
  </outline>
</glyph>
<glyph name="bullet" format="1">
  <advance width="1053"/>
  <unicode hex="2022"/>
  <outline>
    <contour>
      <point x="526" y="445" type="curve" smooth="yes"/>
      <point x="699" y="445"/>
      <point x="854" y="595"/>
      <point x="854" y="772" type="curve" smooth="yes"/>
      <point x="854" y="949"/>
      <point x="698" y="1099"/>
      <point x="527" y="1099" type="curve" smooth="yes"/>
      <point x="353" y="1099"/>
      <point x="199" y="949"/>
      <point x="199" y="772" type="curve" smooth="yes"/>
      <point x="199" y="594"/>
      <point x="354" y="445"/>
    </contour>
  </outline>
</glyph>
<glyph name="perthousand" format="1">
  <advance width="2699"/>
  <unicode hex="2030"/>
  <outline>
    <contour>
      <point x="382" y="796" type="curve" smooth="yes"/>
      <point x="260" y="796"/>
      <point x="250" y="893"/>
      <point x="250" y="1025" type="curve" smooth="yes"/>
      <point x="250" y="1110" type="line" smooth="yes"/>
      <point x="250" y="1237"/>
      <point x="257" y="1323"/>
      <point x="382" y="1323" type="curve" smooth="yes"/>
      <point x="507" y="1323"/>
      <point x="514" y="1237"/>
      <point x="514" y="1108" type="curve" smooth="yes"/>
      <point x="514" y="1025" type="line" smooth="yes"/>
      <point x="514" y="893"/>
      <point x="503" y="796"/>
    </contour>
    <contour>
      <point x="382" y="658" type="curve" smooth="yes"/>
      <point x="612" y="658"/>
      <point x="687" y="808"/>
      <point x="687" y="1037" type="curve" smooth="yes"/>
      <point x="687" y="1091" type="line" smooth="yes"/>
      <point x="685" y="1324"/>
      <point x="612" y="1461"/>
      <point x="382" y="1461" type="curve" smooth="yes"/>
      <point x="151" y="1461"/>
      <point x="79" y="1323"/>
      <point x="79" y="1090" type="curve" smooth="yes"/>
      <point x="79" y="1037" type="line" smooth="yes"/>
      <point x="79" y="809"/>
      <point x="152" y="658"/>
    </contour>
    <contour>
      <point x="1507" y="119" type="curve" smooth="yes"/>
      <point x="1385" y="119"/>
      <point x="1374" y="216"/>
      <point x="1374" y="348" type="curve" smooth="yes"/>
      <point x="1374" y="433" type="line" smooth="yes"/>
      <point x="1374" y="560"/>
      <point x="1382" y="646"/>
      <point x="1507" y="646" type="curve" smooth="yes"/>
      <point x="1632" y="646"/>
      <point x="1640" y="560"/>
      <point x="1640" y="431" type="curve" smooth="yes"/>
      <point x="1640" y="348" type="line" smooth="yes"/>
      <point x="1640" y="216"/>
      <point x="1627" y="119"/>
    </contour>
    <contour>
      <point x="1507" y="-19" type="curve" smooth="yes"/>
      <point x="1737" y="-19"/>
      <point x="1814" y="131"/>
      <point x="1814" y="360" type="curve" smooth="yes"/>
      <point x="1814" y="414" type="line" smooth="yes"/>
      <point x="1812" y="647"/>
      <point x="1737" y="784"/>
      <point x="1507" y="784" type="curve" smooth="yes"/>
      <point x="1276" y="784"/>
      <point x="1204" y="646"/>
      <point x="1204" y="413" type="curve" smooth="yes"/>
      <point x="1204" y="360" type="line" smooth="yes"/>
      <point x="1204" y="132"/>
      <point x="1277" y="-19"/>
    </contour>
    <contour>
      <point x="2246" y="119" type="curve" smooth="yes"/>
      <point x="2124" y="119"/>
      <point x="2113" y="216"/>
      <point x="2113" y="348" type="curve" smooth="yes"/>
      <point x="2113" y="433" type="line" smooth="yes"/>
      <point x="2113" y="560"/>
      <point x="2121" y="646"/>
      <point x="2246" y="646" type="curve" smooth="yes"/>
      <point x="2371" y="646"/>
      <point x="2379" y="560"/>
      <point x="2379" y="431" type="curve" smooth="yes"/>
      <point x="2379" y="348" type="line" smooth="yes"/>
      <point x="2379" y="216"/>
      <point x="2366" y="119"/>
    </contour>
    <contour>
      <point x="2246" y="-19" type="curve" smooth="yes"/>
      <point x="2476" y="-19"/>
      <point x="2553" y="131"/>
      <point x="2553" y="360" type="curve" smooth="yes"/>
      <point x="2553" y="414" type="line" smooth="yes"/>
      <point x="2551" y="647"/>
      <point x="2476" y="784"/>
      <point x="2246" y="784" type="curve" smooth="yes"/>
      <point x="2015" y="784"/>
      <point x="1943" y="646"/>
      <point x="1943" y="413" type="curve" smooth="yes"/>
      <point x="1943" y="360" type="line" smooth="yes"/>
      <point x="1943" y="132"/>
      <point x="2016" y="-19"/>
    </contour>
    <contour>
      <point x="579" y="0" type="line"/>
      <point x="771" y="0" type="line"/>
      <point x="1309" y="1446" type="line"/>
      <point x="1122" y="1446" type="line"/>
    </contour>
  </outline>
</glyph>
<glyph name="fraction" format="1">
  <advance width="1010"/>
  <unicode hex="2044"/>
  <outline>
    <contour>
      <point x="78" y="0" type="line"/>
      <point x="355" y="0" type="line"/>
      <point x="933" y="1522" type="line"/>
      <point x="654" y="1522" type="line"/>
    </contour>
  </outline>
</glyph>
<glyph name="foursuperior" format="1">
  <advance width="1156"/>
  <unicode hex="2074"/>
  <outline>
    <contour>
      <point x="636" y="569" type="line"/>
      <point x="813" y="569" type="line"/>
      <point x="813" y="775" type="line"/>
      <point x="968" y="775" type="line"/>
      <point x="968" y="969" type="line"/>
      <point x="813" y="969" type="line"/>
      <point x="813" y="1181" type="line"/>
      <point x="636" y="1181" type="line"/>
      <point x="636" y="969" type="line"/>
      <point x="450" y="969" type="line"/>
      <point x="620" y="1579" type="line"/>
      <point x="367" y="1579" type="line"/>
      <point x="175" y="977" type="line"/>
      <point x="175" y="775" type="line"/>
      <point x="636" y="775" type="line"/>
    </contour>
  </outline>
</glyph>
<glyph name="Euro" format="1">
  <advance width="1508"/>
  <unicode hex="20AC"/>
  <outline>
    <contour>
      <point x="815" y="849" type="line"/>
      <point x="815" y="983" type="line"/>
      <point x="73" y="983" type="line"/>
      <point x="73" y="849" type="line"/>
    </contour>
    <contour>
      <point x="815" y="555" type="line"/>
      <point x="815" y="689" type="line"/>
      <point x="73" y="689" type="line"/>
      <point x="73" y="555" type="line"/>
    </contour>
    <component base="C"/>
  </outline>
</glyph>
<glyph name="trademark" format="1">
  <advance width="1843"/>
  <unicode hex="2122"/>
  <outline>
    <contour>
      <point x="813" y="766" type="line"/>
      <point x="1002" y="766" type="line"/>
      <point x="1002" y="1185" type="line"/>
      <point x="1149" y="931" type="line"/>
      <point x="1310" y="931" type="line"/>
      <point x="1450" y="1185" type="line"/>
      <point x="1450" y="766" type="line"/>
      <point x="1641" y="766" type="line"/>
      <point x="1641" y="1446" type="line"/>
      <point x="1413" y="1446" type="line"/>
      <point x="1227" y="1145" type="line"/>
      <point x="1043" y="1446" type="line"/>
      <point x="813" y="1446" type="line"/>
    </contour>
    <contour>
      <point x="297" y="766" type="line"/>
      <point x="528" y="766" type="line"/>
      <point x="528" y="1284" type="line"/>
      <point x="692" y="1284" type="line"/>
      <point x="692" y="1446" type="line"/>
      <point x="133" y="1446" type="line"/>
      <point x="133" y="1284" type="line"/>
      <point x="297" y="1284" type="line"/>
    </contour>
  </outline>
</glyph>
<glyph name="Ohm" format="1">
  <advance width="1663"/>
  <unicode hex="2126"/>
  <outline>
    <contour>
      <point x="831" y="1502" type="curve"/>
      <point x="432" y="1502"/>
      <point x="122" y="1446"/>
      <point x="122" y="764" type="curve"/>
      <point x="122" y="514"/>
      <point x="270" y="342"/>
      <point x="402" y="245" type="curve"/>
      <point x="143" y="245" type="line"/>
      <point x="143" y="0" type="line"/>
      <point x="758" y="0" type="line"/>
      <point x="758" y="223" type="line"/>
      <point x="538" y="353"/>
      <point x="495" y="499"/>
      <point x="495" y="805" type="curve"/>
      <point x="495" y="1221"/>
      <point x="615" y="1251"/>
      <point x="831" y="1251" type="curve"/>
      <point x="1064" y="1251"/>
      <point x="1168" y="1221"/>
      <point x="1168" y="805" type="curve"/>
      <point x="1168" y="499"/>
      <point x="1124" y="353"/>
      <point x="905" y="223" type="curve"/>
      <point x="905" y="0" type="line"/>
      <point x="1520" y="0" type="line"/>
      <point x="1520" y="245" type="line"/>
      <point x="1260" y="245" type="line"/>
      <point x="1393" y="342"/>
      <point x="1541" y="514"/>
      <point x="1541" y="764" type="curve"/>
      <point x="1541" y="1446"/>
      <point x="1247" y="1502"/>
    </contour>
  </outline>
</glyph>
<glyph name="estimated" format="1">
  <advance width="1209"/>
  <unicode hex="212E"/>
  <outline>
    <contour>
      <point x="636" y="1151" type="curve" smooth="yes"/>
      <point x="730" y="1151"/>
      <point x="823" y="1117"/>
      <point x="875" y="1047" type="curve"/>
      <point x="875" y="819" type="line"/>
      <point x="389" y="819" type="line"/>
      <point x="389" y="1048" type="line"/>
      <point x="445" y="1116"/>
      <point x="541" y="1151"/>
    </contour>
    <contour>
      <point x="95" y="730" type="curve" smooth="yes"/>
      <point x="95" y="413"/>
      <point x="282" y="178"/>
      <point x="662" y="178" type="curve" smooth="yes"/>
      <point x="868" y="178"/>
      <point x="1002" y="267"/>
      <point x="1101" y="385" type="curve"/>
      <point x="997" y="481" type="line"/>
      <point x="913" y="388"/>
      <point x="823" y="328"/>
      <point x="663" y="328" type="curve" smooth="yes"/>
      <point x="531" y="328"/>
      <point x="465" y="363"/>
      <point x="400" y="436" type="curve"/>
      <point x="400" y="696" type="line"/>
      <point x="1109" y="696" type="line"/>
      <point x="1109" y="1063"/>
      <point x="955" y="1280"/>
      <point x="637" y="1280" type="curve" smooth="yes"/>
      <point x="317" y="1280"/>
      <point x="95" y="1041"/>
    </contour>
  </outline>
</glyph>
<glyph name="partialdiff" format="1">
  <advance width="1224"/>
  <unicode hex="2202"/>
  <outline>
    <contour>
      <point x="477" y="-20" type="curve"/>
      <point x="895" y="-20"/>
      <point x="1138" y="388"/>
      <point x="1138" y="895" type="curve"/>
      <point x="1138" y="1290"/>
      <point x="896" y="1489"/>
      <point x="588" y="1489" type="curve"/>
      <point x="449" y="1489"/>
      <point x="289" y="1441"/>
      <point x="182" y="1373" type="curve"/>
      <point x="233" y="1248" type="line"/>
      <point x="353" y="1315"/>
      <point x="424" y="1338"/>
      <point x="504" y="1338" type="curve"/>
      <point x="654" y="1338"/>
      <point x="797" y="1222"/>
      <point x="797" y="951" type="curve"/>
      <point x="797" y="946"/>
      <point x="797" y="941"/>
      <point x="798" y="936" type="curve"/>
      <point x="336" y="895"/>
      <point x="86" y="576"/>
      <point x="86" y="320" type="curve"/>
      <point x="86" y="145"/>
      <point x="204" y="-20"/>
    </contour>
    <contour>
      <point x="491" y="149" type="curve"/>
      <point x="481" y="149"/>
      <point x="454" y="196"/>
      <point x="454" y="292" type="curve"/>
      <point x="454" y="478"/>
      <point x="583" y="706"/>
      <point x="787" y="774" type="curve"/>
      <point x="761" y="521"/>
      <point x="645" y="149"/>
    </contour>
  </outline>
</glyph>
<glyph name="emptyset" format="1">
  <advance width="1552"/>
  <unicode hex="2205"/>
  <outline>
    <contour>
      <point x="778" y="229" type="curve" smooth="yes"/>
      <point x="520" y="229"/>
      <point x="333" y="423"/>
      <point x="333" y="682" type="curve" smooth="yes"/>
      <point x="333" y="939"/>
      <point x="520" y="1134"/>
      <point x="778" y="1134" type="curve" smooth="yes"/>
      <point x="1037" y="1134"/>
      <point x="1221" y="939"/>
      <point x="1221" y="682" type="curve" smooth="yes"/>
      <point x="1221" y="423"/>
      <point x="1037" y="229"/>
    </contour>
    <contour>
      <point x="776" y="66" type="curve" smooth="yes"/>
      <point x="1124" y="66"/>
      <point x="1392" y="331"/>
      <point x="1392" y="682" type="curve" smooth="yes"/>
      <point x="1392" y="1031"/>
      <point x="1124" y="1296"/>
      <point x="776" y="1296" type="curve" smooth="yes"/>
      <point x="430" y="1296"/>
      <point x="160" y="1031"/>
      <point x="160" y="682" type="curve" smooth="yes"/>
      <point x="160" y="331"/>
      <point x="430" y="66"/>
    </contour>
    <contour>
      <point x="194" y="80" type="line"/>
      <point x="293" y="-8" type="line"/>
      <point x="1370" y="1275" type="line"/>
      <point x="1271" y="1363" type="line"/>
    </contour>
  </outline>
</glyph>
<glyph name="product" format="1">
  <advance width="1766"/>
  <unicode hex="220F"/>
  <outline>
    <contour>
      <point x="647" y="319" type="line"/>
      <point x="778" y="319" type="line"/>
      <point x="778" y="652" type="line"/>
      <point x="956" y="652" type="line" smooth="yes"/>
      <point x="1176" y="652"/>
      <point x="1232" y="760"/>
      <point x="1232" y="894" type="curve" smooth="yes"/>
      <point x="1232" y="908" type="line" smooth="yes"/>
      <point x="1228" y="1082"/>
      <point x="1126" y="1153"/>
      <point x="969" y="1153" type="curve" smooth="yes"/>
      <point x="647" y="1153" type="line"/>
    </contour>
    <contour>
      <point x="778" y="742" type="line"/>
      <point x="778" y="1062" type="line"/>
      <point x="973" y="1062" type="line" smooth="yes"/>
      <point x="1091" y="1062"/>
      <point x="1100" y="960"/>
      <point x="1100" y="901" type="curve" smooth="yes"/>
      <point x="1100" y="877" type="line"/>
      <point x="1099" y="814"/>
      <point x="1078" y="742"/>
      <point x="964" y="742" type="curve" smooth="yes"/>
    </contour>
    <contour>
      <point x="885" y="82" type="curve" smooth="yes"/>
      <point x="521" y="82"/>
      <point x="256" y="357"/>
      <point x="256" y="722" type="curve" smooth="yes"/>
      <point x="256" y="1086"/>
      <point x="521" y="1361"/>
      <point x="885" y="1361" type="curve" smooth="yes"/>
      <point x="1251" y="1361"/>
      <point x="1513" y="1086"/>
      <point x="1513" y="722" type="curve" smooth="yes"/>
      <point x="1513" y="357"/>
      <point x="1251" y="82"/>
    </contour>
    <contour>
      <point x="883" y="-14" type="curve" smooth="yes"/>
      <point x="1299" y="-14"/>
      <point x="1619" y="303"/>
      <point x="1619" y="722" type="curve" smooth="yes"/>
      <point x="1619" y="1139"/>
      <point x="1299" y="1456"/>
      <point x="883" y="1456" type="curve" smooth="yes"/>
      <point x="470" y="1456"/>
      <point x="147" y="1139"/>
      <point x="147" y="722" type="curve" smooth="yes"/>
      <point x="147" y="303"/>
      <point x="470" y="-14"/>
    </contour>
  </outline>
</glyph>
<glyph name="summation" format="1">
  <advance width="1240"/>
  <unicode hex="2211"/>
  <outline>
    <contour>
      <point x="1087" y="0" type="line"/>
      <point x="1087" y="274" type="line"/>
      <point x="537" y="274" type="line"/>
      <point x="979" y="706" type="line"/>
      <point x="979" y="823" type="line"/>
      <point x="559" y="1222" type="line"/>
      <point x="1087" y="1222" type="line"/>
      <point x="1087" y="1494" type="line"/>
      <point x="139" y="1494" type="line"/>
      <point x="139" y="1210" type="line"/>
      <point x="594" y="762" type="line"/>
      <point x="139" y="283" type="line"/>
      <point x="139" y="0" type="line"/>
    </contour>
  </outline>
</glyph>
<glyph name="minus" format="1">
  <advance width="721"/>
  <unicode hex="2212"/>
  <outline>
    <contour>
      <point x="110" y="439" type="line"/>
      <point x="601" y="439" type="line"/>
      <point x="601" y="625" type="line"/>
      <point x="110" y="625" type="line"/>
    </contour>
  </outline>
</glyph>
<glyph name="bulletoperator" format="1">
  <advance width="259"/>
  <unicode hex="2219"/>
  <outline>
    <contour>
      <point x="-50" y="1807" type="curve"/>
      <point x="28" y="1807"/>
      <point x="483" y="1742"/>
      <point x="483" y="1664" type="curve"/>
      <point x="483" y="1585"/>
      <point x="425" y="1916"/>
      <point x="346" y="1916" type="curve"/>
      <point x="268" y="1916"/>
      <point x="-187" y="1980"/>
      <point x="-187" y="2059" type="curve"/>
      <point x="-187" y="2138"/>
      <point x="-129" y="1807"/>
    </contour>
  </outline>
</glyph>
<glyph name="radical" format="1">
  <advance width="1327"/>
  <unicode hex="221A"/>
  <outline>
    <contour>
      <point x="-62" y="554" type="line"/>
      <point x="57" y="554" type="line"/>
      <point x="415" y="0" type="line"/>
      <point x="704" y="0" type="line"/>
      <point x="1284" y="1506" type="line"/>
      <point x="1054" y="1506" type="line"/>
      <point x="560" y="271" type="line"/>
      <point x="327" y="665" type="line"/>
      <point x="-62" y="665" type="line"/>
    </contour>
  </outline>
</glyph>
<glyph name="infinity" format="1">
  <advance width="2287"/>
  <unicode hex="221E"/>
  <outline>
    <contour>
      <point x="591" y="285" type="curve" smooth="yes"/>
      <point x="777" y="285"/>
      <point x="1148" y="550"/>
      <point x="1148" y="550" type="curve"/>
      <point x="1148" y="550"/>
      <point x="1509" y="285"/>
      <point x="1695" y="285" type="curve" smooth="yes"/>
      <point x="1833" y="285"/>
      <point x="1976" y="409"/>
      <point x="1976" y="732" type="curve" smooth="yes"/>
      <point x="1976" y="1055"/>
      <point x="1833" y="1177"/>
      <point x="1695" y="1177" type="curve" smooth="yes"/>
      <point x="1509" y="1177"/>
      <point x="1148" y="896"/>
      <point x="1148" y="896" type="curve"/>
      <point x="1148" y="896"/>
      <point x="777" y="1177"/>
      <point x="591" y="1177" type="curve" smooth="yes"/>
      <point x="454" y="1177"/>
      <point x="310" y="1054"/>
      <point x="310" y="731" type="curve" smooth="yes"/>
      <point x="310" y="408"/>
      <point x="454" y="285"/>
    </contour>
    <contour>
      <point x="616" y="579" type="curve" smooth="yes"/>
      <point x="504" y="579"/>
      <point x="473" y="635"/>
      <point x="473" y="731" type="curve" smooth="yes"/>
      <point x="473" y="828"/>
      <point x="504" y="883"/>
      <point x="616" y="883" type="curve" smooth="yes"/>
      <point x="690" y="883"/>
      <point x="823" y="810"/>
      <point x="992" y="727" type="curve"/>
      <point x="823" y="643"/>
      <point x="690" y="579"/>
    </contour>
    <contour>
      <point x="1679" y="579" type="curve" smooth="yes"/>
      <point x="1605" y="579"/>
      <point x="1473" y="645"/>
      <point x="1303" y="728" type="curve"/>
      <point x="1473" y="812"/>
      <point x="1605" y="883"/>
      <point x="1679" y="883" type="curve" smooth="yes"/>
      <point x="1791" y="883"/>
      <point x="1822" y="828"/>
      <point x="1822" y="731" type="curve" smooth="yes"/>
      <point x="1822" y="635"/>
      <point x="1791" y="579"/>
    </contour>
  </outline>
</glyph>
<glyph name="integral" format="1">
  <advance width="575"/>
  <unicode hex="222B"/>
  <outline>
    <contour>
      <point x="131" y="-193" type="curve" smooth="yes"/>
      <point x="375" y="-193"/>
      <point x="367" y="-27"/>
      <point x="367" y="128" type="curve" smooth="yes"/>
      <point x="367" y="1135" type="line" smooth="yes"/>
      <point x="367" y="1203"/>
      <point x="374" y="1264"/>
      <point x="448" y="1264" type="curve" smooth="yes"/>
      <point x="464" y="1264"/>
      <point x="496" y="1257"/>
      <point x="523" y="1255" type="curve"/>
      <point x="523" y="1416" type="line"/>
      <point x="461" y="1423"/>
      <point x="431" y="1426"/>
      <point x="390" y="1426" type="curve" smooth="yes"/>
      <point x="145" y="1426"/>
      <point x="152" y="1259"/>
      <point x="152" y="1106" type="curve" smooth="yes"/>
      <point x="152" y="102" type="line" smooth="yes"/>
      <point x="152" y="34"/>
      <point x="150" y="-32"/>
      <point x="72" y="-32" type="curve" smooth="yes"/>
      <point x="57" y="-32"/>
      <point x="25" y="-27"/>
      <point x="-3" y="-22" type="curve"/>
      <point x="-3" y="-183" type="line"/>
      <point x="59" y="-191"/>
      <point x="90" y="-193"/>
    </contour>
  </outline>
</glyph>
<glyph name="approxequal" format="1">
  <advance width="1110"/>
  <unicode hex="2248"/>
  <outline>
    <contour>
      <point x="793" y="800" type="curve" smooth="yes"/>
      <point x="937" y="800"/>
      <point x="1052" y="912"/>
      <point x="1052" y="1113" type="curve"/>
      <point x="936" y="1113" type="line"/>
      <point x="936" y="1037"/>
      <point x="901" y="980"/>
      <point x="805" y="980" type="curve" smooth="yes"/>
      <point x="720" y="980"/>
      <point x="478" y="1131"/>
      <point x="315" y="1131" type="curve" smooth="yes"/>
      <point x="171" y="1131"/>
      <point x="58" y="1021"/>
      <point x="58" y="818" type="curve"/>
      <point x="172" y="818" type="line"/>
      <point x="172" y="894"/>
      <point x="208" y="953"/>
      <point x="305" y="953" type="curve" smooth="yes"/>
      <point x="388" y="953"/>
      <point x="629" y="800"/>
    </contour>
    <contour>
      <point x="793" y="1245" type="curve" smooth="yes"/>
      <point x="937" y="1245"/>
      <point x="1052" y="1356"/>
      <point x="1052" y="1558" type="curve"/>
      <point x="936" y="1558" type="line"/>
      <point x="936" y="1482"/>
      <point x="901" y="1425"/>
      <point x="805" y="1425" type="curve" smooth="yes"/>
      <point x="720" y="1425"/>
      <point x="478" y="1575"/>
      <point x="315" y="1575" type="curve" smooth="yes"/>
      <point x="171" y="1575"/>
      <point x="58" y="1466"/>
      <point x="58" y="1262" type="curve"/>
      <point x="172" y="1262" type="line"/>
      <point x="172" y="1339"/>
      <point x="208" y="1397"/>
      <point x="305" y="1397" type="curve" smooth="yes"/>
      <point x="388" y="1397"/>
      <point x="629" y="1245"/>
    </contour>
  </outline>
</glyph>
<glyph name="notequal" format="1">
  <advance width="1010"/>
  <unicode hex="2260"/>
  <outline>
    <contour>
      <point x="125" y="117" type="line"/>
      <point x="313" y="117" type="line"/>
      <point x="790" y="1039" type="line"/>
      <point x="599" y="1039" type="line"/>
    </contour>
    <component base="equal" xOffset="145"/>
  </outline>
</glyph>
<glyph name="caron.alt" format="1">
  <advance width="600"/>
  <outline>
    <contour>
      <point x="424" y="1082" type="move" name="_caron.alt"/>
    </contour>
    <contour>
      <point x="711" y="1176" type="line"/>
      <point x="775" y="1234"/>
      <point x="920" y="1443"/>
      <point x="920" y="1650" type="curve" smooth="yes"/>
      <point x="920" y="1897" type="line"/>
      <point x="560" y="1897" type="line"/>
      <point x="560" y="1595" type="line"/>
      <point x="740" y="1595" type="line"/>
      <point x="740" y="1454"/>
      <point x="642" y="1284"/>
      <point x="588" y="1224" type="curve"/>
    </contour>
  </outline>
</glyph>
